0
SECTION
2
HEADER
9
$INSUNITS
70
4
9
$ACADVER
1
AC1014
9
$HANDSEED
5
FFFF
0
ENDSEC
0
SECTION
2
TABLES
0
TABLE
2
VPORT
5
8
100
AcDbSymbolTable
0
ENDTAB
0
TABLE
2
LTYPE
5
5
100
AcDbSymbolTable
0
LTYPE
5
14
100
AcDbSymbolTableRecord
100
AcDbLinetypeTableRecord
2
BYBLOCK
70
0
0
LTYPE
5
15
100
AcDbSymbolTableRecord
100
AcDbLinetypeTableRecord
2
BYLAYER
70
0
0
ENDTAB
0
TABLE
2
LAYER
5
2
100
AcDbSymbolTable
70
2
0
LAYER
5
50
100
AcDbSymbolTableRecord
100
AcDbLayerTableRecord
2
0
70
0
6
CONTINUOUS
0
ENDTAB
0
TABLE
2
STYLE
5
3
100
AcDbSymbolTable
70
1
0
STYLE
5
11
100
AcDbSymbolTableRecord
100
AcDbTextStyleTableRecord
2
STANDARD
70
0
0
ENDTAB
0
TABLE
2
VIEW
5
6
100
AcDbSymbolTable
70
0
0
ENDTAB
0
TABLE
2
UCS
5
7
100
AcDbSymbolTable
70
0
0
ENDTAB
0
TABLE
2
APPID
5
9
100
AcDbSymbolTable
70
2
0
APPID
5
12
100
AcDbSymbolTableRecord
100
AcDbRegAppTableRecord
2
ACAD
70
0
0
ENDTAB
0
TABLE
2
DIMSTYLE
5
A
100
AcDbSymbolTable
70
1
0
ENDTAB
0
TABLE
2
BLOCK_RECORD
5
1
100
AcDbSymbolTable
70
1
0
BLOCK_RECORD
5
1F
100
AcDbSymbolTableRecord
100
AcDbBlockTableRecord
2
*MODEL_SPACE
0
BLOCK_RECORD
5
1B
100
AcDbSymbolTableRecord
100
AcDbBlockTableRecord
2
*PAPER_SPACE
0
ENDTAB
0
ENDSEC
0
SECTION
2
BLOCKS
0
BLOCK
5
20
100
AcDbEntity
100
AcDbBlockBegin
2
*MODEL_SPACE
0
ENDBLK
5
21
100
AcDbEntity
100
AcDbBlockEnd
0
BLOCK
5
1C
100
AcDbEntity
100
AcDbBlockBegin
2
*PAPER_SPACE
0
ENDBLK
5
1D
100
AcDbEntity
100
AcDbBlockEnd
0
ENDSEC
0
SECTION
2
ENTITIES
0
LWPOLYLINE
5
100
100
AcDbEntity
8
0
100
AcDbPolyline
90
12
70
1
43
0.0
10
506.43438260668336
20
-26.279403830943906
10
0.066217393316999329
20
-26.27940383094391
42
-0.19891236737965801
10
-3.4693165126157322
20
-24.814937736876644
10
-55.515925446960644
20
27.231671197468259
42
-0.19891236737965801
10
-56.980391541027899
20
30.767205103400968
10
-56.980391541027899
20
47.56227301864633
42
-0.41421356237309503
10
-51.059351227013607
20
53.483313332660607
10
492.43462291343531
20
53.483313332660586
42
-0.19739379659643941
10
495.949432099136
20
52.039451179836
10
539.50625378157906
20
8.9888374160901474
42
-0.41592649929987774
10
539.51868861371827
20
4.7338343642254976
10
509.9699165126159
20
-24.814937736876722
42
-0.19891236737965823
0
CIRCLE
5
101
100
AcDbEntity
8
0
100
AcDbCircle
10
442.00000658631461
20
43.000000640750102
30
0
40
0.99999198690118429
0
CIRCLE
5
102
100
AcDbEntity
8
0
100
AcDbCircle
10
378.33800658631503
20
43.000000640750102
30
0
40
0.99999198690118429
0
CIRCLE
5
103
100
AcDbEntity
8
0
100
AcDbCircle
10
314.67600658631545
20
43.000000640750088
30
0
40
0.99999198690118429
0
CIRCLE
5
104
100
AcDbEntity
8
0
100
AcDbCircle
10
251.0140065863159
20
43.000000640750081
30
0
40
0.99999198690118429
0
CIRCLE
5
105
100
AcDbEntity
8
0
100
AcDbCircle
10
187.35200658631635
20
43.000000640750073
30
0
40
0.99999198690118429
0
CIRCLE
5
106
100
AcDbEntity
8
0
100
AcDbCircle
10
123.69000658631676
20
43.000000640750066
30
0
40
0.99999198690118429
0
CIRCLE
5
107
100
AcDbEntity
8
0
100
AcDbCircle
10
60.028006586317176
20
43.000000640750066
30
0
40
0.99999198690118429
0
CIRCLE
5
108
100
AcDbEntity
8
0
100
AcDbCircle
10
-3.633993413682389
20
43.000000640750059
30
0
40
0.99999198690118429
0
CIRCLE
5
109
100
AcDbEntity
8
0
100
AcDbCircle
10
455.00000658631456
20
-11.999999359249907
30
0
40
0.99999198690118429
0
LINE
5
110
100
AcDbEntity
8
0
100
AcDbLine
10
519.08664557209488
20
23.547054427905216
30
0
11
521.8984929206556
21
26.391964705645471
31
0
0
CIRCLE
5
111
100
AcDbEntity
8
0
100
AcDbCircle
10
391.33800658631458
20
-11.999999359249907
30
0
40
0.99999198690118429
0
CIRCLE
5
112
100
AcDbEntity
8
0
100
AcDbCircle
10
327.6760065863146
20
-11.999999359249907
30
0
40
0.99999198690118429
0
CIRCLE
5
113
100
AcDbEntity
8
0
100
AcDbCircle
10
264.01400658631462
20
-11.999999359249907
30
0
40
0.99999198690118429
0
CIRCLE
5
114
100
AcDbEntity
8
0
100
AcDbCircle
10
200.35200658631459
20
-11.999999359249907
30
0
40
0.99999198690118429
0
CIRCLE
5
115
100
AcDbEntity
8
0
100
AcDbCircle
10
136.69000658631461
20
-11.999999359249907
30
0
40
0.99999198690118429
0
CIRCLE
5
116
100
AcDbEntity
8
0
100
AcDbCircle
10
73.028006586314618
20
-11.999999359249907
30
0
40
0.99999198690118429
0
CIRCLE
5
117
100
AcDbEntity
8
0
100
AcDbCircle
10
9.3660065863146258
20
-11.999999359249907
30
0
40
0.99999198690118429
0
ENDSEC
0
SECTION
2
OBJECTS
0
DICTIONARY
5
C
100
AcDbDictionary
3
ACAD_GROUP
350
D
3
ACAD_MLINESTYLE
350
17
0
DICTIONARY
5
D
100
AcDbDictionary
0
DICTIONARY
5
1A
330
C
100
AcDbDictionary
0
DICTIONARY
5
17
100
AcDbDictionary
0
ENDSEC
0
EOF
