0
SECTION
2
HEADER
9
$INSUNITS
70
4
9
$ACADVER
1
AC1014
9
$HANDSEED
5
FFFF
0
ENDSEC
0
SECTION
2
TABLES
0
TABLE
2
VPORT
5
8
100
AcDbSymbolTable
0
ENDTAB
0
TABLE
2
LTYPE
5
5
100
AcDbSymbolTable
0
LTYPE
5
14
100
AcDbSymbolTableRecord
100
AcDbLinetypeTableRecord
2
BYBLOCK
70
0
0
LTYPE
5
15
100
AcDbSymbolTableRecord
100
AcDbLinetypeTableRecord
2
BYLAYER
70
0
0
ENDTAB
0
TABLE
2
LAYER
5
2
100
AcDbSymbolTable
70
2
0
LAYER
5
50
100
AcDbSymbolTableRecord
100
AcDbLayerTableRecord
2
0
70
0
6
CONTINUOUS
0
ENDTAB
0
TABLE
2
STYLE
5
3
100
AcDbSymbolTable
70
1
0
STYLE
5
11
100
AcDbSymbolTableRecord
100
AcDbTextStyleTableRecord
2
STANDARD
70
0
0
ENDTAB
0
TABLE
2
VIEW
5
6
100
AcDbSymbolTable
70
0
0
ENDTAB
0
TABLE
2
UCS
5
7
100
AcDbSymbolTable
70
0
0
ENDTAB
0
TABLE
2
APPID
5
9
100
AcDbSymbolTable
70
2
0
APPID
5
12
100
AcDbSymbolTableRecord
100
AcDbRegAppTableRecord
2
ACAD
70
0
0
ENDTAB
0
TABLE
2
DIMSTYLE
5
A
100
AcDbSymbolTable
70
1
0
ENDTAB
0
TABLE
2
BLOCK_RECORD
5
1
100
AcDbSymbolTable
70
1
0
BLOCK_RECORD
5
1F
100
AcDbSymbolTableRecord
100
AcDbBlockTableRecord
2
*MODEL_SPACE
0
BLOCK_RECORD
5
1B
100
AcDbSymbolTableRecord
100
AcDbBlockTableRecord
2
*PAPER_SPACE
0
ENDTAB
0
ENDSEC
0
SECTION
2
BLOCKS
0
BLOCK
5
20
100
AcDbEntity
100
AcDbBlockBegin
2
*MODEL_SPACE
0
ENDBLK
5
21
100
AcDbEntity
100
AcDbBlockEnd
0
BLOCK
5
1C
100
AcDbEntity
100
AcDbBlockBegin
2
*PAPER_SPACE
0
ENDBLK
5
1D
100
AcDbEntity
100
AcDbBlockEnd
0
ENDSEC
0
SECTION
2
ENTITIES
0
LWPOLYLINE
5
100
100
AcDbEntity
8
0
100
AcDbPolyline
90
26
70
1
43
0.0
10
266.75608713223096
20
32.954512471356921
10
259.20808325050393
20
25.297487354988458
42
-0.20077644447811593
10
255.64729082185937
20
23.807580983384618
10
247.09814408511824
20
23.807580983384618
42
-0.19704961907535243
10
243.58805045672233
20
25.246788554739901
10
235.79772744382896
20
32.92619242864469
42
0.19704961907535345
10
232.28763381543291
20
34.365400000000001
10
-51.48739010134193
20
34.365400000000001
42
0.19891074192473382
10
-52.194492460013649
20
34.072511203673713
10
-55.15432034355964
20
31.112720343559644
42
0.3607849703981702
10
-55.515925446960644
20
27.231671197468266
10
-18.50152798791083
20
-9.7827262615815531
42
0.19891236737965803
10
-14.965994081978096
20
-11.24719235564881
10
261.49625901116076
20
-11.24719235564881
42
0.19891236737965898
10
265.0317929170937
20
-9.7827262615814892
10
278.28853032434142
20
3.4740111456662897
42
-0.41421356237309892
10
285.35959813620701
20
3.474011145666287
10
299.36914336661829
20
-10.535534084746711
42
0.19977119716148703
10
302.92119737437508
20
-11.999972887363068
10
521.45234165275497
20
-11.277937595244953
42
0.19805381976802611
10
524.9713554568641
20
-9.8134987926284563
10
539.41638390593266
20
4.6315296564401729
42
0.41421356237309587
10
539.41638390593266
20
8.8741703435593919
10
515.31060150059875
20
32.97995274889341
42
0.19891236737965881
10
511.77506759466576
20
34.444418842960772
10
270.31687956087558
20
34.444418842960786
42
0.20077644447811649
0
LWPOLYLINE
5
101
100
AcDbEntity
8
0
100
AcDbPolyline
90
4
70
1
43
0.0
10
293.62605187584893
20
3.0052277489813406
10
270.29152774898137
20
26.339751875848876
42
-0.99999999999999989
10
272.4128481241512
20
28.461072251018678
10
295.7473722510187
20
5.1265481241511424
42
-0.99999999999999989
0
LINE
5
102
100
AcDbEntity
8
0
100
AcDbLine
10
270.29152774898137
20
28.461072251018678
30
0
11
295.7473722510187
21
3.0052277489813384
31
0
0
LWPOLYLINE
5
103
100
AcDbEntity
8
0
100
AcDbPolyline
90
4
70
1
43
0.0
10
229.98645187584884
20
3.0052277489813406
10
206.65192774898131
20
26.339751875848894
42
-0.99999999999999989
10
208.77324812415111
20
28.461072251018678
10
232.10777225101864
20
5.1265481241511246
42
-0.99999999999999989
0
LINE
5
104
100
AcDbEntity
8
0
100
AcDbLine
10
206.65192774898131
20
28.461072251018678
30
0
11
232.10777225101864
21
3.0052277489813362
31
0
0
LWPOLYLINE
5
105
100
AcDbEntity
8
0
100
AcDbPolyline
90
4
70
1
43
0.0
10
145.17854812415112
20
28.461072251018692
10
168.51307225101863
20
5.1265481241511202
42
-0.99999999999999989
10
166.39175187584891
20
3.005227748981345
10
143.05722774898132
20
26.339751875848915
42
-0.99999999999999989
0
LINE
5
106
100
AcDbEntity
8
0
100
AcDbLine
10
168.51307225101866
20
3.005227748981345
30
0
11
143.05722774898132
21
28.461072251018685
31
0
0
LINE
5
107
100
AcDbEntity
8
0
100
AcDbLine
10
104.82857225101867
20
5.1265481241511246
30
0
11
81.494048124151135
21
28.461072251018674
31
0
0
ARC
5
108
100
AcDbEntity
8
0
100
AcDbCircle
10
80.433387936566234
20
27.400412063433777
30
0
40
1.5000000223517549
100
AcDbArc
50
44.999999999999908
51
224.99999999999989
0
LINE
5
109
100
AcDbEntity
8
0
100
AcDbLine
10
79.372727748981333
20
26.339751875848879
30
0
11
102.70725187584887
21
3.0052277489813317
31
0
0
ARC
5
110
100
AcDbEntity
8
0
100
AcDbCircle
10
103.76791206343377
20
4.0658879365662282
30
0
40
1.5000000223517549
100
AcDbArc
50
-135.00000000000011
51
44.999999999999886
0
LINE
5
111
100
AcDbEntity
8
0
100
AcDbLine
10
104.82857225101867
20
3.0052277489813317
30
0
11
79.372727748981333
21
28.461072251018674
31
0
0
LWPOLYLINE
5
112
100
AcDbEntity
8
0
100
AcDbPolyline
90
4
70
1
43
0.0
10
17.876898124151115
20
28.483522251018659
10
41.211422251018668
20
5.148998124151106
42
-0.99999999999999989
10
39.090101875848887
20
3.0276777489813256
10
15.755577748981331
20
26.362201875848875
42
-0.99999999999999989
0
LINE
5
113
100
AcDbEntity
8
0
100
AcDbLine
10
41.211422251018668
20
3.0276777489813216
30
0
11
15.755577748981331
21
28.483522251018663
31
0
0
LWPOLYLINE
5
114
100
AcDbEntity
8
0
100
AcDbPolyline
90
4
70
1
43
0.0
10
-45.830151875848898
20
28.461072251018674
10
-22.495627748981342
20
5.1265481241511157
42
-0.99999999999999989
10
-24.616948124151126
20
3.0052277489813317
10
-47.951472251018679
20
26.33975187584889
42
-0.99999999999999989
0
LINE
5
115
100
AcDbEntity
8
0
100
AcDbLine
10
-22.495627748981342
20
3.0052277489813317
30
0
11
-47.951472251018679
21
28.461072251018674
31
0
0
LWPOLYLINE
5
116
100
AcDbEntity
8
0
100
AcDbPolyline
90
4
70
1
43
0.0
10
336.07489812415116
20
28.438622251018675
10
359.40942225101873
20
5.1040981241511263
42
-0.99999999999999989
10
357.28810187584889
20
2.9827777489813245
10
333.95357774898139
20
26.317301875848873
42
-0.99999999999999989
0
LINE
5
117
100
AcDbEntity
8
0
100
AcDbLine
10
359.40942225101873
20
2.9827777489813263
30
0
11
333.95357774898139
21
28.438622251018671
31
0
0
LINE
5
118
100
AcDbEntity
8
0
100
AcDbLine
10
397.54827774898132
20
26.362201875848893
30
0
11
420.88280187584883
21
3.0276777489813522
31
0
0
ARC
5
119
100
AcDbEntity
8
0
100
AcDbCircle
10
421.94346206343374
20
4.0883379365662531
30
0
40
1.5000000223517578
100
AcDbArc
50
-135.0000000000004
51
44.999999999999638
0
LINE
5
120
100
AcDbEntity
8
0
100
AcDbLine
10
423.00412225101866
20
5.1489981241511549
30
0
11
399.66959812415109
21
28.483522251018695
31
0
0
ARC
5
121
100
AcDbEntity
8
0
100
AcDbCircle
10
398.60893793656624
20
27.422862063433794
30
0
40
1.5000000223517578
100
AcDbArc
50
45.000000000001151
51
224.9999999999996
0
LINE
5
122
100
AcDbEntity
8
0
100
AcDbLine
10
397.54827774898132
20
28.483522251018695
30
0
11
423.00412225101866
21
3.0276777489813504
31
0
0
LWPOLYLINE
5
123
100
AcDbEntity
8
0
100
AcDbPolyline
90
4
70
1
43
0.0
10
463.33164812415112
20
28.416172251018672
10
486.66617225101868
20
5.0816481241511298
42
-0.99999999999999989
10
484.54485187584885
20
2.9603277489813307
10
461.21032774898134
20
26.29485187584887
42
-0.99999999999999989
0
LINE
5
124
100
AcDbEntity
8
0
100
AcDbLine
10
486.66617225101868
20
2.9603277489813298
30
0
11
461.21032774898134
21
28.416172251018672
31
0
0
CIRCLE
5
125
100
AcDbEntity
8
0
100
AcDbCircle
10
488.08038612550934
20
1.5461138744906644
30
0
40
1.0000000000000142
0
CIRCLE
5
126
100
AcDbEntity
8
0
100
AcDbCircle
10
488.08038612550934
20
1.5461138744906644
30
0
40
0.99999999999999856
0
CIRCLE
5
127
100
AcDbEntity
8
0
100
AcDbCircle
10
459.79611387449069
20
29.830386125509335
30
0
40
1.0000000000000142
0
CIRCLE
5
128
100
AcDbEntity
8
0
100
AcDbCircle
10
459.79611387449069
20
29.830386125509335
30
0
40
1.0000000000000027
0
CIRCLE
5
129
100
AcDbEntity
8
0
100
AcDbCircle
10
424.41833612550937
20
1.6134638744906855
30
0
40
1.0000000000000142
0
CIRCLE
5
130
100
AcDbEntity
8
0
100
AcDbCircle
10
424.41833612550937
20
1.6134638744906855
30
0
40
0.99999999999999856
0
CIRCLE
5
131
100
AcDbEntity
8
0
100
AcDbCircle
10
396.13406387449066
20
29.897736125509358
30
0
40
0.99999999999998068
0
CIRCLE
5
132
100
AcDbEntity
8
0
100
AcDbCircle
10
396.13406387449066
20
29.897736125509358
30
0
40
1.0000000000000027
0
CIRCLE
5
133
100
AcDbEntity
8
0
100
AcDbCircle
10
360.82363612550932
20
1.5685638744906654
30
0
40
1.0000000000000142
0
CIRCLE
5
134
100
AcDbEntity
8
0
100
AcDbCircle
10
360.82363612550932
20
1.5685638744906654
30
0
40
0.99999999999999856
0
CIRCLE
5
135
100
AcDbEntity
8
0
100
AcDbCircle
10
332.53936387449073
20
29.852836125509334
30
0
40
0.99999999999997824
0
CIRCLE
5
136
100
AcDbEntity
8
0
100
AcDbCircle
10
332.53936387449073
20
29.852836125509334
30
0
40
1.0000000000000027
0
CIRCLE
5
137
100
AcDbEntity
8
0
100
AcDbCircle
10
268.87731387449071
20
29.875286125509348
30
0
40
1.000000000000014
0
CIRCLE
5
138
100
AcDbEntity
8
0
100
AcDbCircle
10
268.87731387449071
20
29.875286125509348
30
0
40
1.0000000000000027
0
CIRCLE
5
139
100
AcDbEntity
8
0
100
AcDbCircle
10
233.52198612550936
20
1.591013874490671
30
0
40
1.0000000000000142
0
CIRCLE
5
140
100
AcDbEntity
8
0
100
AcDbCircle
10
233.52198612550936
20
1.591013874490671
30
0
40
0.99999999999999856
0
CIRCLE
5
141
100
AcDbEntity
8
0
100
AcDbCircle
10
205.23771387449068
20
29.875286125509341
30
0
40
1.0000000000000142
0
CIRCLE
5
142
100
AcDbEntity
8
0
100
AcDbCircle
10
205.23771387449068
20
29.875286125509341
30
0
40
1.0000000000000027
0
CIRCLE
5
143
100
AcDbEntity
8
0
100
AcDbCircle
10
141.64301387449066
20
29.875286125509351
30
0
40
0.99999999999999645
0
CIRCLE
5
144
100
AcDbEntity
8
0
100
AcDbCircle
10
141.64301387449066
20
29.875286125509351
30
0
40
1.0000000000000027
0
CIRCLE
5
145
100
AcDbEntity
8
0
100
AcDbCircle
10
169.92728612550934
20
1.5910138744906799
30
0
40
1.0000000000000029
0
CIRCLE
5
146
100
AcDbEntity
8
0
100
AcDbCircle
10
169.92728612550934
20
1.5910138744906799
30
0
40
0.99999999999999856
0
CIRCLE
5
147
100
AcDbEntity
8
0
100
AcDbCircle
10
106.24278612550935
20
1.5910138744906666
30
0
40
0.99999999999999645
0
CIRCLE
5
148
100
AcDbEntity
8
0
100
AcDbCircle
10
106.24278612550935
20
1.5910138744906666
30
0
40
0.99999999999999856
0
CIRCLE
5
149
100
AcDbEntity
8
0
100
AcDbCircle
10
77.958513874490677
20
29.875286125509337
30
0
40
1.0000000000000053
0
CIRCLE
5
150
100
AcDbEntity
8
0
100
AcDbCircle
10
77.958513874490677
20
29.875286125509337
30
0
40
1.0000000000000027
0
CIRCLE
5
151
100
AcDbEntity
8
0
100
AcDbCircle
10
42.625636125509345
20
1.6134638744906566
30
0
40
0.99999999999999645
0
CIRCLE
5
152
100
AcDbEntity
8
0
100
AcDbCircle
10
42.625636125509345
20
1.6134638744906566
30
0
40
0.99999999999999856
0
CIRCLE
5
153
100
AcDbEntity
8
0
100
AcDbCircle
10
14.341363874490671
20
29.897736125509326
30
0
40
1.0000000000000024
0
CIRCLE
5
154
100
AcDbEntity
8
0
100
AcDbCircle
10
14.341363874490671
20
29.897736125509326
30
0
40
1.0000000000000027
0
CIRCLE
5
155
100
AcDbEntity
8
0
100
AcDbCircle
10
-21.081413874490664
20
1.5910138744906666
30
0
40
0.99999999999999645
0
CIRCLE
5
156
100
AcDbEntity
8
0
100
AcDbCircle
10
-21.081413874490664
20
1.5910138744906666
30
0
40
0.99999999999999856
0
CIRCLE
5
157
100
AcDbEntity
8
0
100
AcDbCircle
10
-49.365686125509342
20
29.875286125509337
30
0
40
1.0000000000000053
0
CIRCLE
5
158
100
AcDbEntity
8
0
100
AcDbCircle
10
-49.365686125509342
20
29.875286125509337
30
0
40
1.0000000000000027
0
CIRCLE
5
159
100
AcDbEntity
8
0
100
AcDbCircle
10
297.16158612550936
20
1.5910138744906732
30
0
40
1.0000000000000142
0
CIRCLE
5
160
100
AcDbEntity
8
0
100
AcDbCircle
10
297.16158612550936
20
1.5910138744906732
30
0
40
0.99999999999999856
0
ENDSEC
0
SECTION
2
OBJECTS
0
DICTIONARY
5
C
100
AcDbDictionary
3
ACAD_GROUP
350
D
3
ACAD_MLINESTYLE
350
17
0
DICTIONARY
5
D
100
AcDbDictionary
0
DICTIONARY
5
1A
330
C
100
AcDbDictionary
0
DICTIONARY
5
17
100
AcDbDictionary
0
ENDSEC
0
EOF
