G75*
%MOIN*%
%OFA0B0*%
%FSLAX25Y25*%
%IPPOS*%
%LPD*%
%AMOC8*
5,1,8,0,0,1.08239X$1,22.5*
%
%ADD10R,0.06112X0.06899*%
%ADD11R,0.03750X0.03750*%
%ADD12R,0.04143X0.03356*%
%ADD13R,0.01970X0.06100*%
%ADD14R,0.03356X0.04143*%
%ADD15R,0.12411X0.01584*%
%ADD16C,0.06506*%
%ADD17R,0.05324X0.02765*%
%ADD18C,0.00924*%
%ADD19C,0.03969*%
%ADD20C,0.03575*%
D10*
X0194963Y0166571D03*
X0205987Y0166571D03*
D11*
X0206089Y0120709D03*
X0206089Y0126614D03*
X0205105Y0136457D03*
X0205105Y0142362D03*
X0205105Y0151220D03*
X0205105Y0157126D03*
D12*
X0196247Y0156732D03*
X0196247Y0151614D03*
X0196247Y0139016D03*
X0196247Y0133898D03*
X0196247Y0128189D03*
X0196247Y0123071D03*
X0178633Y0122535D03*
X0178633Y0127654D03*
X0160814Y0208110D03*
X0160814Y0213228D03*
D13*
X0161636Y0168465D03*
X0159077Y0168465D03*
X0156518Y0168465D03*
X0153959Y0168465D03*
X0151400Y0168465D03*
X0148841Y0168465D03*
X0164196Y0168465D03*
X0166755Y0168465D03*
X0169314Y0168465D03*
X0171873Y0168465D03*
X0174432Y0168465D03*
X0176991Y0168465D03*
X0179550Y0168465D03*
X0182109Y0168465D03*
X0182109Y0139677D03*
X0179550Y0139677D03*
X0176991Y0139677D03*
X0174432Y0139677D03*
X0171873Y0139677D03*
X0169314Y0139677D03*
X0166755Y0139677D03*
X0164196Y0139677D03*
X0161636Y0139677D03*
X0159077Y0139677D03*
X0156518Y0139677D03*
X0153959Y0139677D03*
X0151400Y0139677D03*
X0148841Y0139677D03*
D14*
X0154577Y0131244D03*
X0159696Y0131244D03*
X0154711Y0190197D03*
X0149593Y0190197D03*
X0149593Y0198858D03*
X0154711Y0198858D03*
X0154711Y0207126D03*
X0149593Y0207126D03*
D15*
X0231680Y0171890D03*
X0231680Y0169921D03*
X0231680Y0167953D03*
X0231680Y0165984D03*
X0231680Y0164016D03*
X0231680Y0162047D03*
X0231680Y0160079D03*
X0231680Y0158110D03*
X0231680Y0156142D03*
X0231680Y0154173D03*
X0231680Y0152205D03*
X0231680Y0150236D03*
X0231680Y0148268D03*
X0231680Y0146299D03*
X0231680Y0144331D03*
X0231680Y0142362D03*
X0231680Y0140394D03*
X0231680Y0138425D03*
X0231680Y0136457D03*
X0231680Y0134488D03*
X0231680Y0132520D03*
X0231680Y0130551D03*
X0231680Y0128583D03*
X0231680Y0126614D03*
X0231680Y0124646D03*
X0231680Y0122677D03*
X0231680Y0120709D03*
X0231680Y0118740D03*
X0231680Y0116772D03*
X0231680Y0114803D03*
D16*
X0134396Y0121850D02*
X0128491Y0121850D01*
X0128491Y0131850D02*
X0134396Y0131850D01*
X0134396Y0141850D02*
X0128491Y0141850D01*
X0128491Y0151850D02*
X0134396Y0151850D01*
X0134396Y0161850D02*
X0128491Y0161850D01*
X0128491Y0171850D02*
X0134396Y0171850D01*
X0135026Y0199094D02*
X0129121Y0199094D01*
X0129121Y0209094D02*
X0135026Y0209094D01*
X0135026Y0219094D02*
X0129121Y0219094D01*
X0174003Y0219094D02*
X0179908Y0219094D01*
X0179908Y0209094D02*
X0174003Y0209094D01*
X0174003Y0199094D02*
X0179908Y0199094D01*
D17*
X0177743Y0160866D03*
X0177743Y0157126D03*
X0177743Y0153386D03*
X0167506Y0153386D03*
X0167506Y0160866D03*
D18*
X0167019Y0188725D02*
X0169175Y0188725D01*
X0167019Y0188725D02*
X0167019Y0191669D01*
X0169175Y0191669D01*
X0169175Y0188725D01*
X0169175Y0189648D02*
X0167019Y0189648D01*
X0167019Y0190571D02*
X0169175Y0190571D01*
X0169175Y0191494D02*
X0167019Y0191494D01*
X0176074Y0188725D02*
X0178230Y0188725D01*
X0176074Y0188725D02*
X0176074Y0191669D01*
X0178230Y0191669D01*
X0178230Y0188725D01*
X0178230Y0189648D02*
X0176074Y0189648D01*
X0176074Y0190571D02*
X0178230Y0190571D01*
X0178230Y0191494D02*
X0176074Y0191494D01*
X0157758Y0220803D02*
X0155602Y0220803D01*
X0157758Y0220803D02*
X0157758Y0217859D01*
X0155602Y0217859D01*
X0155602Y0220803D01*
X0155602Y0218782D02*
X0157758Y0218782D01*
X0157758Y0219705D02*
X0155602Y0219705D01*
X0155602Y0220628D02*
X0157758Y0220628D01*
X0148703Y0220803D02*
X0146547Y0220803D01*
X0148703Y0220803D02*
X0148703Y0217859D01*
X0146547Y0217859D01*
X0146547Y0220803D01*
X0146547Y0218782D02*
X0148703Y0218782D01*
X0148703Y0219705D02*
X0146547Y0219705D01*
X0146547Y0220628D02*
X0148703Y0220628D01*
D19*
X0141435Y0187933D02*
X0138066Y0187933D01*
X0138066Y0183012D02*
X0141435Y0183012D01*
X0128049Y0183012D02*
X0124681Y0183012D01*
X0124681Y0187933D02*
X0128049Y0187933D01*
X0157172Y0184204D02*
X0157172Y0180835D01*
X0162093Y0180835D02*
X0162093Y0184204D01*
D20*
X0170656Y0176811D03*
X0176656Y0181433D03*
X0188073Y0173165D03*
X0188373Y0166969D03*
X0184727Y0159780D03*
X0190341Y0151220D03*
X0200790Y0160724D03*
X0211995Y0159094D03*
X0211995Y0154173D03*
X0214948Y0150236D03*
X0221459Y0144976D03*
X0218885Y0140394D03*
X0215932Y0136457D03*
X0216538Y0130213D03*
X0203743Y0132181D03*
X0190341Y0133504D03*
X0180790Y0133402D03*
X0165932Y0149252D03*
X0173310Y0150331D03*
X0152940Y0145315D03*
X0147034Y0145315D03*
X0149790Y0131535D03*
X0214570Y0115449D03*
X0213963Y0170906D03*
M02*
