G75*
%MOIN*%
%OFA0B0*%
%FSLAX25Y25*%
%IPPOS*%
%LPD*%
%AMOC8*
5,1,8,0,0,1.08239X$1,22.5*
%
%ADD10C,0.00000*%
%ADD11C,0.00512*%
%ADD12C,0.00600*%
D10*
X0119475Y0111850D02*
X0119475Y0210276D01*
X0223806Y0210276D01*
X0223806Y0174843D01*
X0239475Y0174843D01*
X0239475Y0111850D01*
X0119475Y0111850D01*
D11*
X0119475Y0088425D01*
X0119731Y0096102D02*
X0129711Y0095079D01*
X0129711Y0094846D02*
X0119731Y0096102D01*
X0129711Y0097126D01*
X0129711Y0097359D02*
X0129711Y0094846D01*
X0129711Y0095591D02*
X0119731Y0096102D01*
X0129711Y0096614D01*
X0129711Y0097359D02*
X0119731Y0096102D01*
X0239219Y0096102D01*
X0229239Y0095079D01*
X0229239Y0094846D02*
X0239219Y0096102D01*
X0229239Y0097126D01*
X0229239Y0097359D02*
X0229239Y0094846D01*
X0229239Y0095591D02*
X0239219Y0096102D01*
X0229239Y0096614D01*
X0229239Y0097359D02*
X0239219Y0096102D01*
X0239475Y0088425D02*
X0239475Y0111850D01*
X0261995Y0111850D01*
X0254318Y0112106D02*
X0255341Y0122087D01*
X0255574Y0122087D02*
X0254318Y0112106D01*
X0253294Y0122087D01*
X0253061Y0122087D02*
X0255574Y0122087D01*
X0254829Y0122087D02*
X0254318Y0112106D01*
X0253806Y0122087D01*
X0253061Y0122087D02*
X0254318Y0112106D01*
X0254318Y0174587D01*
X0255341Y0164606D01*
X0255574Y0164606D02*
X0254318Y0174587D01*
X0253294Y0164606D01*
X0253061Y0164606D02*
X0255574Y0164606D01*
X0254829Y0164606D02*
X0254318Y0174587D01*
X0253806Y0164606D01*
X0253061Y0164606D02*
X0254318Y0174587D01*
X0261995Y0174843D02*
X0239475Y0174843D01*
X0223806Y0210276D02*
X0223806Y0225827D01*
X0223550Y0218150D02*
X0213570Y0217126D01*
X0213570Y0216893D02*
X0223550Y0218150D01*
X0213570Y0219173D01*
X0213570Y0219406D02*
X0213570Y0216893D01*
X0213570Y0217638D02*
X0223550Y0218150D01*
X0213570Y0218661D01*
X0213570Y0219406D02*
X0223550Y0218150D01*
X0119731Y0218150D01*
X0129711Y0217126D01*
X0129711Y0216893D02*
X0119731Y0218150D01*
X0129711Y0219173D01*
X0129711Y0219406D02*
X0129711Y0216893D01*
X0129711Y0217638D02*
X0119731Y0218150D01*
X0129711Y0218661D01*
X0129711Y0219406D02*
X0119731Y0218150D01*
X0119475Y0225827D02*
X0119475Y0210276D01*
X0097034Y0210276D01*
X0104711Y0210020D02*
X0105735Y0200039D01*
X0105968Y0200039D02*
X0104711Y0210020D01*
X0103688Y0200039D01*
X0103454Y0200039D02*
X0105968Y0200039D01*
X0105223Y0200039D02*
X0104711Y0210020D01*
X0104199Y0200039D01*
X0103454Y0200039D02*
X0104711Y0210020D01*
X0104711Y0112106D01*
X0105735Y0122087D01*
X0105968Y0122087D02*
X0104711Y0112106D01*
X0103688Y0122087D01*
X0103454Y0122087D02*
X0105968Y0122087D01*
X0105223Y0122087D02*
X0104711Y0112106D01*
X0104199Y0122087D01*
X0103454Y0122087D02*
X0104711Y0112106D01*
X0097034Y0111850D02*
X0119475Y0111850D01*
D12*
X0167247Y0104002D02*
X0168315Y0105070D01*
X0170450Y0105070D01*
X0171518Y0104002D01*
X0171518Y0102934D01*
X0170450Y0101867D01*
X0171518Y0100799D01*
X0171518Y0099732D01*
X0170450Y0098664D01*
X0168315Y0098664D01*
X0167247Y0099732D01*
X0169382Y0101867D02*
X0170450Y0101867D01*
X0173693Y0099732D02*
X0173693Y0104002D01*
X0174760Y0105070D01*
X0176895Y0105070D01*
X0177963Y0104002D01*
X0173693Y0099732D01*
X0174760Y0098664D01*
X0176895Y0098664D01*
X0177963Y0099732D01*
X0177963Y0104002D01*
X0183361Y0101867D02*
X0187631Y0101867D01*
X0189806Y0102934D02*
X0189806Y0104002D01*
X0190874Y0105070D01*
X0193009Y0105070D01*
X0194077Y0104002D01*
X0194077Y0102934D01*
X0193009Y0101867D01*
X0190874Y0101867D01*
X0189806Y0102934D01*
X0190874Y0101867D02*
X0189806Y0100799D01*
X0189806Y0099732D01*
X0190874Y0098664D01*
X0193009Y0098664D01*
X0194077Y0099732D01*
X0194077Y0100799D01*
X0193009Y0101867D01*
X0186564Y0105070D02*
X0183361Y0101867D01*
X0181206Y0099732D02*
X0180138Y0099732D01*
X0180138Y0098664D01*
X0181206Y0098664D01*
X0181206Y0099732D01*
X0186564Y0098664D02*
X0186564Y0105070D01*
X0245350Y0140212D02*
X0247485Y0138077D01*
X0245350Y0140212D02*
X0251756Y0140212D01*
X0251756Y0138077D02*
X0251756Y0142347D01*
X0250688Y0144522D02*
X0248553Y0144522D01*
X0248553Y0147725D01*
X0249621Y0148792D01*
X0250688Y0148792D01*
X0251756Y0147725D01*
X0251756Y0145590D01*
X0250688Y0144522D01*
X0248553Y0144522D02*
X0246418Y0146657D01*
X0245350Y0148792D01*
X0181505Y0220711D02*
X0179370Y0220711D01*
X0178302Y0221779D01*
X0178302Y0223914D02*
X0180438Y0224982D01*
X0181505Y0224982D01*
X0182573Y0223914D01*
X0182573Y0221779D01*
X0181505Y0220711D01*
X0178302Y0223914D02*
X0178302Y0227117D01*
X0182573Y0227117D01*
X0176147Y0221779D02*
X0176147Y0220711D01*
X0175080Y0220711D01*
X0175080Y0221779D01*
X0176147Y0221779D01*
X0172905Y0221779D02*
X0172905Y0222847D01*
X0171837Y0223914D01*
X0168634Y0223914D01*
X0168634Y0221779D01*
X0169702Y0220711D01*
X0171837Y0220711D01*
X0172905Y0221779D01*
X0170769Y0226049D02*
X0168634Y0223914D01*
X0166459Y0224982D02*
X0166459Y0226049D01*
X0165391Y0227117D01*
X0163256Y0227117D01*
X0162189Y0226049D01*
X0166459Y0224982D02*
X0162189Y0220711D01*
X0166459Y0220711D01*
X0170769Y0226049D02*
X0172905Y0227117D01*
X0102149Y0165441D02*
X0101082Y0166509D01*
X0098947Y0166509D01*
X0097879Y0165441D01*
X0097879Y0164374D01*
X0098947Y0162239D01*
X0095744Y0162239D01*
X0095744Y0166509D01*
X0102149Y0165441D02*
X0102149Y0163306D01*
X0101082Y0162239D01*
X0102149Y0160063D02*
X0102149Y0155793D01*
X0097879Y0160063D01*
X0096812Y0160063D01*
X0095744Y0158996D01*
X0095744Y0156861D01*
X0096812Y0155793D01*
M02*
