G75*
%MOIN*%
%OFA0B0*%
%FSLAX25Y25*%
%IPPOS*%
%LPD*%
%AMOC8*
5,1,8,0,0,1.08239X$1,22.5*
%
%ADD10C,0.00600*%
%ADD11C,0.00700*%
%ADD12C,0.00800*%
%ADD13C,0.00500*%
%ADD14C,0.00400*%
%ADD15C,0.01000*%
%ADD16C,0.00200*%
%ADD17R,0.15748X0.01476*%
%ADD18R,0.01476X0.15748*%
D10*
X0209272Y0115871D02*
X0209272Y0117572D01*
X0209839Y0118139D01*
X0210974Y0118139D01*
X0211541Y0117572D01*
X0211541Y0115871D01*
X0212675Y0115871D02*
X0209272Y0115871D01*
X0210974Y0119554D02*
X0210406Y0120121D01*
X0210406Y0121255D01*
X0210974Y0121823D01*
X0212108Y0121823D01*
X0212675Y0121255D01*
X0212675Y0120121D01*
X0212108Y0119554D01*
X0210974Y0119554D01*
X0210406Y0123237D02*
X0212108Y0123237D01*
X0212675Y0123804D01*
X0212108Y0124371D01*
X0212675Y0124939D01*
X0212108Y0125506D01*
X0210406Y0125506D01*
X0210974Y0126920D02*
X0210406Y0127487D01*
X0210406Y0128622D01*
X0210974Y0129189D01*
X0211541Y0129189D01*
X0211541Y0126920D01*
X0212108Y0126920D02*
X0210974Y0126920D01*
X0212108Y0126920D02*
X0212675Y0127487D01*
X0212675Y0128622D01*
X0212675Y0130603D02*
X0210406Y0130603D01*
X0210406Y0131738D02*
X0210406Y0132305D01*
X0210406Y0131738D02*
X0211541Y0130603D01*
X0210193Y0135760D02*
X0210193Y0138029D01*
X0210193Y0136895D02*
X0213596Y0136895D01*
X0213596Y0139444D02*
X0210193Y0141712D01*
X0210193Y0139444D02*
X0213596Y0141712D01*
X0212675Y0151371D02*
X0209272Y0151371D01*
X0209272Y0153072D01*
X0209839Y0153639D01*
X0210974Y0153639D01*
X0211541Y0153072D01*
X0211541Y0151371D01*
X0211541Y0152505D02*
X0212675Y0153639D01*
X0212675Y0155054D02*
X0209272Y0157323D01*
X0209272Y0155054D02*
X0212675Y0157323D01*
X0185948Y0165587D02*
X0185948Y0142555D01*
X0145003Y0142555D01*
X0145003Y0165587D01*
X0185948Y0165587D01*
X0180300Y0161748D02*
X0180302Y0161833D01*
X0180308Y0161917D01*
X0180318Y0162002D01*
X0180332Y0162085D01*
X0180349Y0162168D01*
X0180371Y0162250D01*
X0180397Y0162331D01*
X0180426Y0162411D01*
X0180459Y0162489D01*
X0180495Y0162565D01*
X0180535Y0162640D01*
X0180579Y0162713D01*
X0180626Y0162784D01*
X0180676Y0162852D01*
X0180729Y0162918D01*
X0180786Y0162981D01*
X0180845Y0163042D01*
X0180907Y0163100D01*
X0180972Y0163155D01*
X0181039Y0163207D01*
X0181108Y0163255D01*
X0181180Y0163300D01*
X0181254Y0163342D01*
X0181330Y0163380D01*
X0181407Y0163415D01*
X0181486Y0163446D01*
X0181566Y0163474D01*
X0181648Y0163497D01*
X0181730Y0163517D01*
X0181813Y0163533D01*
X0181897Y0163545D01*
X0181982Y0163553D01*
X0182067Y0163557D01*
X0182151Y0163557D01*
X0182236Y0163553D01*
X0182321Y0163545D01*
X0182405Y0163533D01*
X0182488Y0163517D01*
X0182570Y0163497D01*
X0182652Y0163474D01*
X0182732Y0163446D01*
X0182811Y0163415D01*
X0182888Y0163380D01*
X0182964Y0163342D01*
X0183038Y0163300D01*
X0183110Y0163255D01*
X0183179Y0163207D01*
X0183246Y0163155D01*
X0183311Y0163100D01*
X0183373Y0163042D01*
X0183432Y0162981D01*
X0183489Y0162918D01*
X0183542Y0162852D01*
X0183592Y0162784D01*
X0183639Y0162713D01*
X0183683Y0162640D01*
X0183723Y0162565D01*
X0183759Y0162489D01*
X0183792Y0162411D01*
X0183821Y0162331D01*
X0183847Y0162250D01*
X0183869Y0162168D01*
X0183886Y0162085D01*
X0183900Y0162002D01*
X0183910Y0161917D01*
X0183916Y0161833D01*
X0183918Y0161748D01*
X0183916Y0161663D01*
X0183910Y0161579D01*
X0183900Y0161494D01*
X0183886Y0161411D01*
X0183869Y0161328D01*
X0183847Y0161246D01*
X0183821Y0161165D01*
X0183792Y0161085D01*
X0183759Y0161007D01*
X0183723Y0160931D01*
X0183683Y0160856D01*
X0183639Y0160783D01*
X0183592Y0160712D01*
X0183542Y0160644D01*
X0183489Y0160578D01*
X0183432Y0160515D01*
X0183373Y0160454D01*
X0183311Y0160396D01*
X0183246Y0160341D01*
X0183179Y0160289D01*
X0183110Y0160241D01*
X0183038Y0160196D01*
X0182964Y0160154D01*
X0182888Y0160116D01*
X0182811Y0160081D01*
X0182732Y0160050D01*
X0182652Y0160022D01*
X0182570Y0159999D01*
X0182488Y0159979D01*
X0182405Y0159963D01*
X0182321Y0159951D01*
X0182236Y0159943D01*
X0182151Y0159939D01*
X0182067Y0159939D01*
X0181982Y0159943D01*
X0181897Y0159951D01*
X0181813Y0159963D01*
X0181730Y0159979D01*
X0181648Y0159999D01*
X0181566Y0160022D01*
X0181486Y0160050D01*
X0181407Y0160081D01*
X0181330Y0160116D01*
X0181254Y0160154D01*
X0181180Y0160196D01*
X0181108Y0160241D01*
X0181039Y0160289D01*
X0180972Y0160341D01*
X0180907Y0160396D01*
X0180845Y0160454D01*
X0180786Y0160515D01*
X0180729Y0160578D01*
X0180676Y0160644D01*
X0180626Y0160712D01*
X0180579Y0160783D01*
X0180535Y0160856D01*
X0180495Y0160931D01*
X0180459Y0161007D01*
X0180426Y0161085D01*
X0180397Y0161165D01*
X0180371Y0161246D01*
X0180349Y0161328D01*
X0180332Y0161411D01*
X0180318Y0161494D01*
X0180308Y0161579D01*
X0180302Y0161663D01*
X0180300Y0161748D01*
D11*
X0180946Y0175193D02*
X0178794Y0175193D01*
X0178077Y0175910D01*
X0178077Y0177344D01*
X0178794Y0178062D01*
X0180946Y0178062D01*
X0176342Y0177344D02*
X0176342Y0175193D01*
X0176342Y0177344D02*
X0175625Y0178062D01*
X0173473Y0178062D01*
X0173473Y0175193D01*
X0171738Y0175193D02*
X0171738Y0178062D01*
X0168869Y0178062D02*
X0168869Y0175910D01*
X0169586Y0175193D01*
X0171738Y0175193D01*
X0167134Y0175910D02*
X0167134Y0176627D01*
X0166417Y0177344D01*
X0164982Y0177344D01*
X0164265Y0178062D01*
X0164265Y0178779D01*
X0164982Y0179496D01*
X0166417Y0179496D01*
X0167134Y0178779D01*
X0167134Y0175910D02*
X0166417Y0175193D01*
X0164982Y0175193D01*
X0164265Y0175910D01*
X0157926Y0175193D02*
X0155775Y0175193D01*
X0155057Y0175910D01*
X0155057Y0177344D01*
X0155775Y0178062D01*
X0157926Y0178062D01*
X0152705Y0178062D02*
X0152705Y0175193D01*
X0151988Y0175193D02*
X0153423Y0175193D01*
X0152705Y0178062D02*
X0151988Y0178062D01*
X0152705Y0179496D02*
X0152705Y0180213D01*
X0150253Y0179496D02*
X0150253Y0175193D01*
X0150253Y0177344D02*
X0147384Y0177344D01*
X0147384Y0175193D02*
X0147384Y0179496D01*
X0187285Y0179496D02*
X0187285Y0175193D01*
X0190154Y0175193D01*
X0191889Y0175910D02*
X0191889Y0177344D01*
X0192606Y0178062D01*
X0194041Y0178062D01*
X0194758Y0177344D01*
X0194758Y0176627D01*
X0191889Y0176627D01*
X0191889Y0175910D02*
X0192606Y0175193D01*
X0194041Y0175193D01*
X0196493Y0175910D02*
X0197210Y0175193D01*
X0198644Y0175193D01*
X0199362Y0175910D01*
X0199362Y0177344D01*
X0198644Y0178062D01*
X0197210Y0178062D01*
X0196493Y0177344D01*
X0196493Y0175910D01*
X0201097Y0175193D02*
X0201097Y0178062D01*
X0203248Y0178062D01*
X0203966Y0177344D01*
X0203966Y0175193D01*
X0205700Y0175910D02*
X0205700Y0177344D01*
X0206418Y0178062D01*
X0207852Y0178062D01*
X0208570Y0177344D01*
X0208570Y0176627D01*
X0205700Y0176627D01*
X0205700Y0175910D02*
X0206418Y0175193D01*
X0207852Y0175193D01*
X0210304Y0175193D02*
X0212456Y0175193D01*
X0213174Y0175910D01*
X0212456Y0176627D01*
X0211022Y0176627D01*
X0210304Y0177344D01*
X0211022Y0178062D01*
X0213174Y0178062D01*
D12*
X0210318Y0171295D02*
X0204412Y0171295D01*
X0210318Y0171295D02*
X0210318Y0161846D01*
X0204412Y0161846D01*
X0203885Y0154724D02*
X0206365Y0154724D01*
X0205105Y0153465D01*
X0205105Y0153504D02*
X0203885Y0154724D01*
X0203294Y0153504D02*
X0205105Y0153504D01*
X0206916Y0153504D01*
X0196538Y0161846D02*
X0192207Y0161846D01*
X0190633Y0163421D01*
X0190633Y0169720D01*
X0192207Y0171295D01*
X0196538Y0171295D01*
X0174315Y0162726D02*
X0170934Y0162726D01*
X0169434Y0158183D02*
X0169434Y0156069D01*
X0170934Y0151526D02*
X0174315Y0151526D01*
X0203294Y0140079D02*
X0205105Y0140079D01*
X0206325Y0138858D01*
X0203845Y0138858D01*
X0205105Y0140118D01*
X0205105Y0140079D02*
X0206916Y0140079D01*
X0207349Y0124213D02*
X0204869Y0124213D01*
X0206089Y0122992D01*
X0207900Y0122992D01*
X0207349Y0124213D02*
X0206089Y0122953D01*
X0206089Y0122992D02*
X0204278Y0122992D01*
X0167605Y0174843D02*
X0151660Y0174843D01*
X0151660Y0186654D01*
X0167605Y0186654D01*
X0167605Y0174843D01*
X0147428Y0177500D02*
X0135617Y0177500D01*
X0135617Y0193445D01*
X0147428Y0193445D01*
X0147428Y0177500D01*
X0134042Y0177500D02*
X0122231Y0177500D01*
X0122231Y0193445D01*
X0134042Y0193445D01*
X0134042Y0177500D01*
X0169081Y0187638D02*
X0170656Y0187638D01*
X0170656Y0192756D01*
X0176168Y0192756D01*
X0170656Y0192756D02*
X0169081Y0192756D01*
X0170656Y0187638D02*
X0176168Y0187638D01*
X0155696Y0216772D02*
X0154121Y0216772D01*
X0154121Y0221890D01*
X0148609Y0221890D01*
X0154121Y0221890D02*
X0155696Y0221890D01*
X0154121Y0216772D02*
X0148609Y0216772D01*
D13*
X0235806Y0111780D02*
X0235806Y0107843D01*
X0237774Y0109811D01*
X0235806Y0111780D01*
X0237774Y0109811D02*
X0225963Y0109811D01*
D14*
X0220574Y0113943D02*
X0220574Y0117012D01*
X0220574Y0115477D02*
X0215970Y0115477D01*
X0217505Y0113943D01*
X0216738Y0164339D02*
X0215970Y0165106D01*
X0215970Y0166641D01*
X0216738Y0167408D01*
X0217505Y0167408D01*
X0218272Y0166641D01*
X0219040Y0167408D01*
X0219807Y0167408D01*
X0220574Y0166641D01*
X0220574Y0165106D01*
X0219807Y0164339D01*
X0218272Y0165873D02*
X0218272Y0166641D01*
X0216738Y0168943D02*
X0215970Y0169710D01*
X0215970Y0171244D01*
X0216738Y0172012D01*
X0219807Y0168943D01*
X0220574Y0169710D01*
X0220574Y0171244D01*
X0219807Y0172012D01*
X0216738Y0172012D01*
X0216738Y0168943D02*
X0219807Y0168943D01*
D15*
X0126444Y0116850D02*
X0118944Y0116850D01*
X0118944Y0136850D01*
X0118944Y0156850D01*
X0136444Y0156850D01*
X0136444Y0136850D01*
X0118944Y0136850D01*
X0126444Y0136850D01*
X0126444Y0116850D01*
X0143944Y0116850D01*
X0143944Y0136850D01*
X0136444Y0136850D01*
X0143944Y0136850D02*
X0126444Y0136850D01*
X0143944Y0136850D02*
X0143944Y0156850D01*
X0136444Y0156850D01*
X0136444Y0176850D01*
X0143944Y0176850D01*
X0143944Y0156850D01*
X0136444Y0156850D01*
X0118944Y0156850D01*
X0118944Y0176850D01*
X0136444Y0176850D01*
X0144573Y0194094D02*
X0127073Y0194094D01*
X0127073Y0224094D01*
X0144573Y0224094D01*
X0144573Y0194094D01*
X0127073Y0194094D02*
X0119573Y0194094D01*
X0119573Y0224094D01*
X0127073Y0224094D01*
X0164455Y0224094D02*
X0171955Y0224094D01*
X0171955Y0194094D01*
X0164455Y0194094D01*
X0164455Y0224094D01*
X0171955Y0224094D02*
X0189455Y0224094D01*
X0189455Y0194094D01*
X0171955Y0194094D01*
D16*
X0167014Y0186161D02*
X0166030Y0185177D01*
X0166030Y0182224D01*
X0167507Y0182224D01*
X0167507Y0179764D02*
X0166030Y0179764D01*
X0166030Y0175827D01*
X0153235Y0175827D02*
X0153235Y0179764D01*
X0151759Y0179764D01*
X0151759Y0182224D02*
X0153235Y0182224D01*
X0153235Y0185177D01*
X0152251Y0186161D01*
X0153235Y0185177D02*
X0166030Y0185177D01*
X0146444Y0179075D02*
X0142507Y0179075D01*
X0142507Y0177598D01*
X0140046Y0177598D02*
X0140046Y0179075D01*
X0137093Y0179075D01*
X0136109Y0178091D01*
X0137093Y0179075D02*
X0137093Y0191870D01*
X0136109Y0192854D01*
X0137093Y0191870D02*
X0140046Y0191870D01*
X0140046Y0193346D01*
X0142507Y0193346D02*
X0142507Y0191870D01*
X0146444Y0191870D01*
X0133058Y0191870D02*
X0129121Y0191870D01*
X0129121Y0193346D01*
X0126660Y0193346D02*
X0126660Y0191870D01*
X0123707Y0191870D01*
X0122723Y0192854D01*
X0123707Y0191870D02*
X0123707Y0179075D01*
X0122723Y0178091D01*
X0123707Y0179075D02*
X0126660Y0179075D01*
X0126660Y0177598D01*
X0129121Y0177598D02*
X0129121Y0179075D01*
X0133058Y0179075D01*
D17*
X0159633Y0175581D03*
D18*
X0146690Y0185472D03*
X0133304Y0185472D03*
M02*
