G75*
%MOIN*%
%OFA0B0*%
%FSLAX25Y25*%
%IPPOS*%
%LPD*%
%AMOC8*
5,1,8,0,0,1.08239X$1,22.5*
%
%ADD10R,0.05512X0.06299*%
%ADD11R,0.03150X0.03150*%
%ADD12R,0.03543X0.02756*%
%ADD13R,0.01370X0.05500*%
%ADD14R,0.02756X0.03543*%
%ADD15R,0.11811X0.00984*%
%ADD16C,0.05906*%
%ADD17R,0.04724X0.02165*%
%ADD18C,0.00744*%
%ADD19C,0.03369*%
%ADD20C,0.01000*%
%ADD21C,0.02975*%
%ADD22C,0.01600*%
%ADD23C,0.01200*%
D10*
X0194963Y0166571D03*
X0205987Y0166571D03*
D11*
X0205105Y0157126D03*
X0205105Y0151220D03*
X0205105Y0142362D03*
X0205105Y0136457D03*
X0206089Y0126614D03*
X0206089Y0120709D03*
D12*
X0196247Y0123071D03*
X0196247Y0128189D03*
X0196247Y0133898D03*
X0196247Y0139016D03*
X0196247Y0151614D03*
X0196247Y0156732D03*
X0178633Y0127654D03*
X0178633Y0122535D03*
X0160814Y0208110D03*
X0160814Y0213228D03*
D13*
X0161636Y0168465D03*
X0159077Y0168465D03*
X0156518Y0168465D03*
X0153959Y0168465D03*
X0151400Y0168465D03*
X0148841Y0168465D03*
X0164196Y0168465D03*
X0166755Y0168465D03*
X0169314Y0168465D03*
X0171873Y0168465D03*
X0174432Y0168465D03*
X0176991Y0168465D03*
X0179550Y0168465D03*
X0182109Y0168465D03*
X0182109Y0139677D03*
X0179550Y0139677D03*
X0176991Y0139677D03*
X0174432Y0139677D03*
X0171873Y0139677D03*
X0169314Y0139677D03*
X0166755Y0139677D03*
X0164196Y0139677D03*
X0161636Y0139677D03*
X0159077Y0139677D03*
X0156518Y0139677D03*
X0153959Y0139677D03*
X0151400Y0139677D03*
X0148841Y0139677D03*
D14*
X0154577Y0131244D03*
X0159696Y0131244D03*
X0154711Y0190197D03*
X0149593Y0190197D03*
X0149593Y0198858D03*
X0154711Y0198858D03*
X0154711Y0207126D03*
X0149593Y0207126D03*
D15*
X0231680Y0171890D03*
X0231680Y0169921D03*
X0231680Y0167953D03*
X0231680Y0165984D03*
X0231680Y0164016D03*
X0231680Y0162047D03*
X0231680Y0160079D03*
X0231680Y0158110D03*
X0231680Y0156142D03*
X0231680Y0154173D03*
X0231680Y0152205D03*
X0231680Y0150236D03*
X0231680Y0148268D03*
X0231680Y0146299D03*
X0231680Y0144331D03*
X0231680Y0142362D03*
X0231680Y0140394D03*
X0231680Y0138425D03*
X0231680Y0136457D03*
X0231680Y0134488D03*
X0231680Y0132520D03*
X0231680Y0130551D03*
X0231680Y0128583D03*
X0231680Y0126614D03*
X0231680Y0124646D03*
X0231680Y0122677D03*
X0231680Y0120709D03*
X0231680Y0118740D03*
X0231680Y0116772D03*
X0231680Y0114803D03*
D16*
X0134396Y0121850D02*
X0128491Y0121850D01*
X0128491Y0131850D02*
X0134396Y0131850D01*
X0134396Y0141850D02*
X0128491Y0141850D01*
X0128491Y0151850D02*
X0134396Y0151850D01*
X0134396Y0161850D02*
X0128491Y0161850D01*
X0128491Y0171850D02*
X0134396Y0171850D01*
X0135026Y0199094D02*
X0129121Y0199094D01*
X0129121Y0209094D02*
X0135026Y0209094D01*
X0135026Y0219094D02*
X0129121Y0219094D01*
X0174003Y0219094D02*
X0179908Y0219094D01*
X0179908Y0209094D02*
X0174003Y0209094D01*
X0174003Y0199094D02*
X0179908Y0199094D01*
D17*
X0177743Y0160866D03*
X0177743Y0157126D03*
X0177743Y0153386D03*
X0167506Y0153386D03*
X0167506Y0160866D03*
D18*
X0167229Y0188935D02*
X0168965Y0188935D01*
X0167229Y0188935D02*
X0167229Y0191459D01*
X0168965Y0191459D01*
X0168965Y0188935D01*
X0168965Y0189678D02*
X0167229Y0189678D01*
X0167229Y0190421D02*
X0168965Y0190421D01*
X0168965Y0191164D02*
X0167229Y0191164D01*
X0176284Y0188935D02*
X0178020Y0188935D01*
X0176284Y0188935D02*
X0176284Y0191459D01*
X0178020Y0191459D01*
X0178020Y0188935D01*
X0178020Y0189678D02*
X0176284Y0189678D01*
X0176284Y0190421D02*
X0178020Y0190421D01*
X0178020Y0191164D02*
X0176284Y0191164D01*
X0157548Y0220593D02*
X0155812Y0220593D01*
X0157548Y0220593D02*
X0157548Y0218069D01*
X0155812Y0218069D01*
X0155812Y0220593D01*
X0155812Y0218812D02*
X0157548Y0218812D01*
X0157548Y0219555D02*
X0155812Y0219555D01*
X0155812Y0220298D02*
X0157548Y0220298D01*
X0148493Y0220593D02*
X0146757Y0220593D01*
X0148493Y0220593D02*
X0148493Y0218069D01*
X0146757Y0218069D01*
X0146757Y0220593D01*
X0146757Y0218812D02*
X0148493Y0218812D01*
X0148493Y0219555D02*
X0146757Y0219555D01*
X0146757Y0220298D02*
X0148493Y0220298D01*
D19*
X0141435Y0187933D02*
X0138066Y0187933D01*
X0138066Y0183012D02*
X0141435Y0183012D01*
X0128049Y0183012D02*
X0124681Y0183012D01*
X0124681Y0187933D02*
X0128049Y0187933D01*
X0157172Y0184204D02*
X0157172Y0180835D01*
X0162093Y0180835D02*
X0162093Y0184204D01*
D20*
X0121475Y0181957D02*
X0121475Y0113850D01*
X0224345Y0113850D01*
X0224274Y0114114D01*
X0224274Y0114803D01*
X0224873Y0114803D01*
X0224873Y0114803D01*
X0224274Y0114803D01*
X0224274Y0115402D01*
X0224093Y0115583D01*
X0224093Y0133708D01*
X0224274Y0133889D01*
X0224274Y0134276D01*
X0218232Y0134276D01*
X0217727Y0133771D01*
X0216562Y0133288D01*
X0215301Y0133288D01*
X0214476Y0133630D01*
X0214476Y0119231D01*
X0214098Y0118319D01*
X0213400Y0117621D01*
X0210447Y0114668D01*
X0209536Y0114291D01*
X0162926Y0114291D01*
X0162015Y0114668D01*
X0161317Y0115366D01*
X0154577Y0122105D01*
X0152219Y0119747D01*
X0151307Y0119369D01*
X0138384Y0119369D01*
X0138325Y0119226D01*
X0137021Y0117922D01*
X0135318Y0117217D01*
X0127569Y0117217D01*
X0125866Y0117922D01*
X0124562Y0119226D01*
X0123857Y0120929D01*
X0123857Y0122772D01*
X0124562Y0124475D01*
X0125866Y0125779D01*
X0127569Y0126484D01*
X0135318Y0126484D01*
X0137021Y0125779D01*
X0138325Y0124475D01*
X0138384Y0124331D01*
X0149786Y0124331D01*
X0152096Y0126642D01*
X0152096Y0128198D01*
X0151518Y0128776D01*
X0151518Y0128822D01*
X0150420Y0128367D01*
X0149160Y0128367D01*
X0147995Y0128849D01*
X0147104Y0129741D01*
X0146622Y0130905D01*
X0146622Y0132166D01*
X0147104Y0133330D01*
X0147995Y0134222D01*
X0149160Y0134704D01*
X0150420Y0134704D01*
X0151585Y0134222D01*
X0151778Y0134028D01*
X0151778Y0135246D01*
X0147460Y0135246D01*
X0146475Y0136231D01*
X0146475Y0142146D01*
X0146404Y0142146D01*
X0145239Y0142629D01*
X0144348Y0143520D01*
X0143866Y0144685D01*
X0143866Y0145945D01*
X0144348Y0147110D01*
X0145239Y0148001D01*
X0146404Y0148483D01*
X0147664Y0148483D01*
X0148829Y0148001D01*
X0149720Y0147110D01*
X0149987Y0146466D01*
X0150253Y0147110D01*
X0151145Y0148001D01*
X0152309Y0148483D01*
X0153570Y0148483D01*
X0154734Y0148001D01*
X0155626Y0147110D01*
X0156108Y0145945D01*
X0156108Y0144685D01*
X0155794Y0143927D01*
X0156518Y0143927D01*
X0156518Y0139677D01*
X0156518Y0139677D01*
X0156518Y0135427D01*
X0156140Y0135427D01*
X0156140Y0134697D01*
X0156652Y0134697D01*
X0157265Y0134084D01*
X0157397Y0134216D01*
X0157739Y0134414D01*
X0158120Y0134516D01*
X0159507Y0134516D01*
X0159507Y0131433D01*
X0159885Y0131433D01*
X0162573Y0131433D01*
X0162573Y0131668D01*
X0163806Y0130435D01*
X0172625Y0130435D01*
X0175180Y0127880D01*
X0175180Y0125579D01*
X0175793Y0124966D01*
X0175661Y0124834D01*
X0175463Y0124492D01*
X0175361Y0124111D01*
X0175361Y0122724D01*
X0178443Y0122724D01*
X0178443Y0122346D01*
X0175361Y0122346D01*
X0175361Y0120960D01*
X0175463Y0120578D01*
X0175661Y0120236D01*
X0175940Y0119957D01*
X0176282Y0119760D01*
X0176663Y0119657D01*
X0178444Y0119657D01*
X0178444Y0122346D01*
X0178822Y0122346D01*
X0178822Y0122724D01*
X0181904Y0122724D01*
X0181904Y0124111D01*
X0181802Y0124492D01*
X0181604Y0124834D01*
X0181472Y0124966D01*
X0181878Y0125372D01*
X0185436Y0125372D01*
X0190399Y0130335D01*
X0190971Y0130335D01*
X0192136Y0130818D01*
X0192341Y0131023D01*
X0193554Y0131023D01*
X0192794Y0130263D01*
X0192794Y0126115D01*
X0193279Y0125630D01*
X0192794Y0125145D01*
X0192794Y0120997D01*
X0193779Y0120012D01*
X0198715Y0120012D01*
X0199293Y0120590D01*
X0200087Y0120590D01*
X0200999Y0120967D01*
X0203604Y0123573D01*
X0203656Y0123520D01*
X0203593Y0123484D01*
X0203314Y0123204D01*
X0203117Y0122862D01*
X0203014Y0122481D01*
X0203014Y0120996D01*
X0205802Y0120996D01*
X0205802Y0120421D01*
X0203014Y0120421D01*
X0203014Y0119253D01*
X0164448Y0119253D01*
X0157059Y0126642D01*
X0157059Y0128198D01*
X0157265Y0128404D01*
X0157397Y0128272D01*
X0157739Y0128075D01*
X0158120Y0127972D01*
X0159507Y0127972D01*
X0159507Y0131055D01*
X0159885Y0131055D01*
X0159885Y0131433D01*
X0159885Y0134357D01*
X0159355Y0134886D01*
X0159355Y0135246D01*
X0157696Y0135246D01*
X0157491Y0135451D01*
X0157401Y0135427D01*
X0156518Y0135427D01*
X0156518Y0139677D01*
X0156518Y0139677D01*
X0156518Y0143927D01*
X0157401Y0143927D01*
X0157491Y0143903D01*
X0157696Y0144108D01*
X0158905Y0144108D01*
X0153644Y0149369D01*
X0138384Y0149369D01*
X0138325Y0149226D01*
X0137021Y0147922D01*
X0135318Y0147217D01*
X0127569Y0147217D01*
X0125866Y0147922D01*
X0124562Y0149226D01*
X0123857Y0150929D01*
X0123857Y0152772D01*
X0124562Y0154475D01*
X0125866Y0155779D01*
X0127569Y0156484D01*
X0135318Y0156484D01*
X0137021Y0155779D01*
X0138325Y0154475D01*
X0138384Y0154331D01*
X0155165Y0154331D01*
X0156077Y0153954D01*
X0163042Y0146989D01*
X0163740Y0146291D01*
X0164118Y0145379D01*
X0164118Y0143927D01*
X0164195Y0143927D01*
X0164195Y0139677D01*
X0164196Y0139677D01*
X0164196Y0143927D01*
X0164573Y0143927D01*
X0164573Y0146254D01*
X0164666Y0146347D01*
X0164137Y0146566D01*
X0163246Y0147457D01*
X0162763Y0148622D01*
X0162763Y0149882D01*
X0163246Y0151047D01*
X0163634Y0151435D01*
X0163463Y0151607D01*
X0163463Y0155165D01*
X0164448Y0156150D01*
X0168816Y0156150D01*
X0170344Y0157677D01*
X0170344Y0158102D01*
X0164448Y0158102D01*
X0163463Y0159087D01*
X0163463Y0162645D01*
X0164448Y0163630D01*
X0170565Y0163630D01*
X0170871Y0163323D01*
X0171582Y0164033D01*
X0167932Y0164033D01*
X0167727Y0164239D01*
X0167637Y0164215D01*
X0166755Y0164215D01*
X0166755Y0168464D01*
X0166755Y0168464D01*
X0166755Y0164215D01*
X0165872Y0164215D01*
X0165782Y0164239D01*
X0165577Y0164033D01*
X0147460Y0164033D01*
X0146475Y0165018D01*
X0146475Y0171911D01*
X0147460Y0172896D01*
X0165577Y0172896D01*
X0165782Y0172690D01*
X0165872Y0172715D01*
X0166755Y0172715D01*
X0166755Y0168465D01*
X0166755Y0168465D01*
X0166755Y0172715D01*
X0167637Y0172715D01*
X0167727Y0172690D01*
X0167932Y0172896D01*
X0169692Y0172896D01*
X0169692Y0173781D01*
X0168861Y0174125D01*
X0168656Y0174330D01*
X0148456Y0174330D01*
X0145578Y0171453D01*
X0145578Y0164506D01*
X0145200Y0163595D01*
X0144503Y0162897D01*
X0141353Y0159747D01*
X0140441Y0159369D01*
X0138384Y0159369D01*
X0138325Y0159226D01*
X0137021Y0157922D01*
X0135318Y0157217D01*
X0127569Y0157217D01*
X0125866Y0157922D01*
X0124562Y0159226D01*
X0123857Y0160929D01*
X0123857Y0162772D01*
X0124562Y0164475D01*
X0125866Y0165779D01*
X0127569Y0166484D01*
X0135318Y0166484D01*
X0137021Y0165779D01*
X0138325Y0164475D01*
X0138384Y0164331D01*
X0138920Y0164331D01*
X0140616Y0166028D01*
X0140616Y0172974D01*
X0140994Y0173886D01*
X0145324Y0178216D01*
X0146022Y0178914D01*
X0146934Y0179292D01*
X0154169Y0179292D01*
X0153807Y0180166D01*
X0153807Y0184873D01*
X0154319Y0186110D01*
X0154953Y0186744D01*
X0152637Y0186744D01*
X0152024Y0187357D01*
X0151892Y0187225D01*
X0151550Y0187027D01*
X0151169Y0186925D01*
X0149782Y0186925D01*
X0149782Y0190008D01*
X0149404Y0190008D01*
X0146715Y0190008D01*
X0146715Y0188228D01*
X0146817Y0187846D01*
X0147015Y0187504D01*
X0147294Y0187225D01*
X0147636Y0187027D01*
X0148018Y0186925D01*
X0149404Y0186925D01*
X0149404Y0190008D01*
X0149404Y0190386D01*
X0146715Y0190386D01*
X0146715Y0192166D01*
X0146817Y0192547D01*
X0147015Y0192890D01*
X0147294Y0193169D01*
X0147636Y0193366D01*
X0148018Y0193468D01*
X0149404Y0193468D01*
X0149404Y0190386D01*
X0149782Y0190386D01*
X0149782Y0193468D01*
X0151169Y0193468D01*
X0151550Y0193366D01*
X0151892Y0193169D01*
X0152024Y0193037D01*
X0152230Y0193243D01*
X0152230Y0195812D01*
X0152152Y0195890D01*
X0151667Y0195406D01*
X0147519Y0195406D01*
X0146534Y0196390D01*
X0146534Y0196613D01*
X0139014Y0196613D01*
X0138955Y0196470D01*
X0137651Y0195166D01*
X0135948Y0194461D01*
X0128199Y0194461D01*
X0126496Y0195166D01*
X0125192Y0196470D01*
X0124487Y0198173D01*
X0124487Y0200016D01*
X0125192Y0201719D01*
X0126496Y0203023D01*
X0128199Y0203728D01*
X0135948Y0203728D01*
X0137651Y0203023D01*
X0138955Y0201719D01*
X0139014Y0201576D01*
X0146783Y0201576D01*
X0147519Y0202311D01*
X0151667Y0202311D01*
X0152152Y0201826D01*
X0152637Y0202311D01*
X0156786Y0202311D01*
X0157770Y0201326D01*
X0157770Y0196390D01*
X0157192Y0195812D01*
X0157192Y0193243D01*
X0157757Y0192678D01*
X0165545Y0192678D01*
X0165616Y0192749D01*
X0165616Y0194431D01*
X0165994Y0195342D01*
X0169369Y0198717D01*
X0169369Y0200016D01*
X0170074Y0201719D01*
X0171378Y0203023D01*
X0173081Y0203728D01*
X0180830Y0203728D01*
X0182533Y0203023D01*
X0183837Y0201719D01*
X0184404Y0200349D01*
X0184404Y0207840D01*
X0183837Y0206470D01*
X0182533Y0205166D01*
X0180830Y0204461D01*
X0173081Y0204461D01*
X0171378Y0205166D01*
X0170915Y0205629D01*
X0163860Y0205629D01*
X0163282Y0205051D01*
X0158346Y0205051D01*
X0157770Y0205627D01*
X0157770Y0204658D01*
X0156786Y0203673D01*
X0152637Y0203673D01*
X0152152Y0204158D01*
X0151667Y0203673D01*
X0147519Y0203673D01*
X0146534Y0204658D01*
X0146534Y0206613D01*
X0139014Y0206613D01*
X0138955Y0206470D01*
X0137651Y0205166D01*
X0135948Y0204461D01*
X0128199Y0204461D01*
X0126496Y0205166D01*
X0125192Y0206470D01*
X0124487Y0208173D01*
X0124487Y0210016D01*
X0125192Y0211719D01*
X0126496Y0213023D01*
X0128199Y0213728D01*
X0135948Y0213728D01*
X0137651Y0213023D01*
X0138955Y0211719D01*
X0139014Y0211576D01*
X0148118Y0211576D01*
X0149030Y0211198D01*
X0149649Y0210579D01*
X0151667Y0210579D01*
X0152152Y0210094D01*
X0152230Y0210172D01*
X0152230Y0217856D01*
X0152608Y0218768D01*
X0153306Y0219466D01*
X0153759Y0219918D01*
X0153759Y0221443D01*
X0154371Y0222055D01*
X0149678Y0222055D01*
X0149991Y0221742D01*
X0150237Y0221315D01*
X0150365Y0220839D01*
X0150365Y0219451D01*
X0147745Y0219451D01*
X0147745Y0219211D01*
X0150365Y0219211D01*
X0150365Y0217822D01*
X0150237Y0217346D01*
X0149991Y0216919D01*
X0149642Y0216571D01*
X0149215Y0216324D01*
X0148739Y0216197D01*
X0147745Y0216197D01*
X0147745Y0219211D01*
X0147505Y0219211D01*
X0147505Y0216197D01*
X0146510Y0216197D01*
X0146034Y0216324D01*
X0145607Y0216571D01*
X0145259Y0216919D01*
X0145012Y0217346D01*
X0144885Y0217822D01*
X0144885Y0219211D01*
X0147505Y0219211D01*
X0147505Y0219451D01*
X0144885Y0219451D01*
X0144885Y0220839D01*
X0145012Y0221315D01*
X0145259Y0221742D01*
X0145572Y0222055D01*
X0138363Y0222055D01*
X0138423Y0221995D01*
X0138835Y0221428D01*
X0139153Y0220804D01*
X0139369Y0220137D01*
X0139458Y0219579D01*
X0132558Y0219579D01*
X0132558Y0218610D01*
X0139458Y0218610D01*
X0139369Y0218052D01*
X0139153Y0217385D01*
X0138835Y0216761D01*
X0138423Y0216194D01*
X0137927Y0215698D01*
X0137360Y0215286D01*
X0136736Y0214968D01*
X0136069Y0214751D01*
X0135377Y0214642D01*
X0132558Y0214642D01*
X0132558Y0218610D01*
X0131589Y0218610D01*
X0131589Y0214642D01*
X0128770Y0214642D01*
X0128078Y0214751D01*
X0127411Y0214968D01*
X0126787Y0215286D01*
X0126220Y0215698D01*
X0125724Y0216194D01*
X0125312Y0216761D01*
X0124994Y0217385D01*
X0124778Y0218052D01*
X0124689Y0218610D01*
X0131589Y0218610D01*
X0131589Y0219579D01*
X0124689Y0219579D01*
X0124778Y0220137D01*
X0124994Y0220804D01*
X0125312Y0221428D01*
X0125724Y0221995D01*
X0125784Y0222055D01*
X0121475Y0222055D01*
X0121475Y0188988D01*
X0121828Y0189839D01*
X0122774Y0190786D01*
X0124011Y0191298D01*
X0128718Y0191298D01*
X0129955Y0190786D01*
X0130327Y0190414D01*
X0135788Y0190414D01*
X0136160Y0190786D01*
X0137397Y0191298D01*
X0142104Y0191298D01*
X0143341Y0190786D01*
X0144288Y0189839D01*
X0144800Y0188602D01*
X0144800Y0187264D01*
X0144288Y0186027D01*
X0143734Y0185472D01*
X0144288Y0184918D01*
X0144800Y0183681D01*
X0144800Y0182342D01*
X0144288Y0181105D01*
X0143341Y0180159D01*
X0142104Y0179646D01*
X0137397Y0179646D01*
X0136160Y0180159D01*
X0135788Y0180531D01*
X0130327Y0180531D01*
X0129955Y0180159D01*
X0128718Y0179646D01*
X0124011Y0179646D01*
X0122774Y0180159D01*
X0121828Y0181105D01*
X0121475Y0181957D01*
X0121475Y0181746D02*
X0121562Y0181746D01*
X0121475Y0180748D02*
X0122185Y0180748D01*
X0121475Y0179749D02*
X0123763Y0179749D01*
X0121475Y0178751D02*
X0145859Y0178751D01*
X0144860Y0177752D02*
X0121475Y0177752D01*
X0121475Y0176754D02*
X0143862Y0176754D01*
X0142863Y0175755D02*
X0137045Y0175755D01*
X0137021Y0175779D02*
X0135318Y0176484D01*
X0127569Y0176484D01*
X0125866Y0175779D01*
X0124562Y0174475D01*
X0123857Y0172772D01*
X0123857Y0170929D01*
X0124562Y0169226D01*
X0125866Y0167922D01*
X0127569Y0167217D01*
X0135318Y0167217D01*
X0137021Y0167922D01*
X0138325Y0169226D01*
X0139030Y0170929D01*
X0139030Y0172772D01*
X0138325Y0174475D01*
X0137021Y0175779D01*
X0138043Y0174757D02*
X0141865Y0174757D01*
X0140941Y0173758D02*
X0138622Y0173758D01*
X0139030Y0172760D02*
X0140616Y0172760D01*
X0140616Y0171761D02*
X0139030Y0171761D01*
X0138961Y0170763D02*
X0140616Y0170763D01*
X0140616Y0169764D02*
X0138548Y0169764D01*
X0137865Y0168766D02*
X0140616Y0168766D01*
X0140616Y0167767D02*
X0136647Y0167767D01*
X0137030Y0165770D02*
X0140358Y0165770D01*
X0140616Y0166769D02*
X0121475Y0166769D01*
X0121475Y0167767D02*
X0126240Y0167767D01*
X0125022Y0168766D02*
X0121475Y0168766D01*
X0121475Y0169764D02*
X0124339Y0169764D01*
X0123926Y0170763D02*
X0121475Y0170763D01*
X0121475Y0171761D02*
X0123857Y0171761D01*
X0123857Y0172760D02*
X0121475Y0172760D01*
X0121475Y0173758D02*
X0124265Y0173758D01*
X0124844Y0174757D02*
X0121475Y0174757D01*
X0121475Y0175755D02*
X0125842Y0175755D01*
X0128966Y0179749D02*
X0137149Y0179749D01*
X0142352Y0179749D02*
X0153979Y0179749D01*
X0153807Y0180748D02*
X0143930Y0180748D01*
X0144553Y0181746D02*
X0153807Y0181746D01*
X0153807Y0182745D02*
X0144800Y0182745D01*
X0144775Y0183743D02*
X0153807Y0183743D01*
X0153807Y0184742D02*
X0144361Y0184742D01*
X0144001Y0185740D02*
X0154166Y0185740D01*
X0154947Y0186739D02*
X0144583Y0186739D01*
X0144800Y0187737D02*
X0146880Y0187737D01*
X0146715Y0188736D02*
X0144745Y0188736D01*
X0144331Y0189734D02*
X0146715Y0189734D01*
X0146715Y0190733D02*
X0143395Y0190733D01*
X0146715Y0191731D02*
X0121475Y0191731D01*
X0121475Y0190733D02*
X0122721Y0190733D01*
X0121784Y0189734D02*
X0121475Y0189734D01*
X0121475Y0192730D02*
X0146923Y0192730D01*
X0149404Y0192730D02*
X0149782Y0192730D01*
X0149782Y0191731D02*
X0149404Y0191731D01*
X0149404Y0190733D02*
X0149782Y0190733D01*
X0149782Y0189734D02*
X0149404Y0189734D01*
X0149404Y0188736D02*
X0149782Y0188736D01*
X0149782Y0187737D02*
X0149404Y0187737D01*
X0157611Y0187569D02*
X0157757Y0187716D01*
X0165545Y0187716D01*
X0166379Y0186882D01*
X0169816Y0186882D01*
X0171018Y0188085D01*
X0171018Y0192309D01*
X0170578Y0192749D01*
X0170578Y0192909D01*
X0172408Y0194739D01*
X0173081Y0194461D01*
X0180830Y0194461D01*
X0182533Y0195166D01*
X0183837Y0196470D01*
X0184404Y0197840D01*
X0184404Y0192518D01*
X0195822Y0181101D01*
X0196993Y0179929D01*
X0221806Y0179929D01*
X0221806Y0174014D01*
X0222977Y0172843D01*
X0224345Y0172843D01*
X0224274Y0172579D01*
X0224274Y0171890D01*
X0225489Y0171890D01*
X0225488Y0171890D01*
X0224274Y0171890D01*
X0224274Y0171200D01*
X0224353Y0170905D01*
X0224274Y0170611D01*
X0224274Y0169921D01*
X0224274Y0169322D01*
X0224093Y0169141D01*
X0224093Y0168165D01*
X0217981Y0168165D01*
X0212079Y0162263D01*
X0211364Y0162263D01*
X0210200Y0161781D01*
X0209309Y0160889D01*
X0208826Y0159725D01*
X0208826Y0158464D01*
X0209309Y0157300D01*
X0209974Y0156634D01*
X0209309Y0155968D01*
X0208826Y0154803D01*
X0208826Y0153543D01*
X0209309Y0152378D01*
X0210200Y0151487D01*
X0211364Y0151005D01*
X0211836Y0151005D01*
X0211779Y0150866D01*
X0211779Y0149606D01*
X0212261Y0148441D01*
X0213153Y0147550D01*
X0213521Y0147397D01*
X0210589Y0144466D01*
X0209891Y0143768D01*
X0209514Y0142856D01*
X0209514Y0120752D01*
X0209164Y0120402D01*
X0209164Y0120421D01*
X0206377Y0120421D01*
X0206377Y0120996D01*
X0209164Y0120996D01*
X0209164Y0122481D01*
X0209062Y0122862D01*
X0208864Y0123204D01*
X0208585Y0123484D01*
X0208522Y0123520D01*
X0209345Y0124343D01*
X0209345Y0128885D01*
X0208360Y0129870D01*
X0203818Y0129870D01*
X0203043Y0129095D01*
X0202643Y0129095D01*
X0201731Y0128718D01*
X0201033Y0128020D01*
X0199699Y0126686D01*
X0199699Y0130263D01*
X0198919Y0131043D01*
X0199699Y0131823D01*
X0199699Y0135401D01*
X0200049Y0135051D01*
X0200747Y0134353D01*
X0201659Y0133976D01*
X0202059Y0133976D01*
X0202834Y0133201D01*
X0207376Y0133201D01*
X0208361Y0134186D01*
X0208361Y0138728D01*
X0207679Y0139409D01*
X0208361Y0140091D01*
X0208361Y0144633D01*
X0207376Y0145618D01*
X0204934Y0145618D01*
X0204040Y0146512D01*
X0203481Y0146512D01*
X0204934Y0147965D01*
X0207376Y0147965D01*
X0208361Y0148949D01*
X0208361Y0153492D01*
X0207679Y0154173D01*
X0208361Y0154855D01*
X0208361Y0159397D01*
X0207376Y0160382D01*
X0202834Y0160382D01*
X0201849Y0159397D01*
X0201849Y0159213D01*
X0199293Y0159213D01*
X0198715Y0159791D01*
X0194547Y0159791D01*
X0196100Y0161344D01*
X0196369Y0161456D01*
X0196653Y0161740D01*
X0198415Y0161740D01*
X0199400Y0162725D01*
X0199400Y0170393D01*
X0201887Y0170393D01*
X0201833Y0170299D01*
X0201731Y0169918D01*
X0201731Y0167071D01*
X0205487Y0167071D01*
X0205487Y0166071D01*
X0206487Y0166071D01*
X0206487Y0167071D01*
X0210243Y0167071D01*
X0210243Y0169918D01*
X0210141Y0170299D01*
X0210087Y0170393D01*
X0210795Y0170393D01*
X0210795Y0170275D01*
X0211277Y0169111D01*
X0212168Y0168219D01*
X0213333Y0167737D01*
X0214594Y0167737D01*
X0215758Y0168219D01*
X0216649Y0169111D01*
X0217132Y0170275D01*
X0217132Y0171536D01*
X0216649Y0172700D01*
X0215758Y0173592D01*
X0214594Y0174074D01*
X0214304Y0174074D01*
X0214098Y0174279D01*
X0213400Y0174977D01*
X0212488Y0175355D01*
X0196178Y0175355D01*
X0195266Y0174977D01*
X0193558Y0173269D01*
X0192860Y0172571D01*
X0192482Y0171659D01*
X0192482Y0171402D01*
X0191511Y0171402D01*
X0190526Y0170417D01*
X0190526Y0169296D01*
X0190168Y0169655D01*
X0189003Y0170137D01*
X0188289Y0170137D01*
X0187780Y0170646D01*
X0184475Y0170646D01*
X0184475Y0171911D01*
X0183490Y0172896D01*
X0174054Y0172896D01*
X0174054Y0176498D01*
X0173825Y0176727D01*
X0173825Y0177441D01*
X0173342Y0178606D01*
X0172451Y0179497D01*
X0171286Y0179980D01*
X0170026Y0179980D01*
X0168861Y0179497D01*
X0168656Y0179292D01*
X0165097Y0179292D01*
X0165459Y0180166D01*
X0165459Y0184873D01*
X0164946Y0186110D01*
X0163999Y0187057D01*
X0162763Y0187569D01*
X0161424Y0187569D01*
X0160187Y0187057D01*
X0159633Y0186503D01*
X0159078Y0187057D01*
X0157841Y0187569D01*
X0157611Y0187569D01*
X0159396Y0186739D02*
X0159869Y0186739D01*
X0164318Y0186739D02*
X0190183Y0186739D01*
X0189185Y0187737D02*
X0179470Y0187737D01*
X0179518Y0187786D02*
X0179765Y0188212D01*
X0179892Y0188689D01*
X0179892Y0190077D01*
X0177272Y0190077D01*
X0177272Y0187063D01*
X0178267Y0187063D01*
X0178743Y0187191D01*
X0179170Y0187437D01*
X0179518Y0187786D01*
X0179892Y0188736D02*
X0188186Y0188736D01*
X0187188Y0189734D02*
X0179892Y0189734D01*
X0179892Y0190317D02*
X0179892Y0191705D01*
X0179765Y0192181D01*
X0179518Y0192608D01*
X0179170Y0192957D01*
X0178743Y0193203D01*
X0178267Y0193331D01*
X0177272Y0193331D01*
X0177272Y0190317D01*
X0177032Y0190317D01*
X0177032Y0190077D01*
X0174412Y0190077D01*
X0174412Y0188689D01*
X0174540Y0188212D01*
X0174786Y0187786D01*
X0175135Y0187437D01*
X0175562Y0187191D01*
X0176038Y0187063D01*
X0177032Y0187063D01*
X0177032Y0190077D01*
X0177272Y0190077D01*
X0177272Y0190317D01*
X0179892Y0190317D01*
X0179892Y0190733D02*
X0186189Y0190733D01*
X0185191Y0191731D02*
X0179885Y0191731D01*
X0179397Y0192730D02*
X0184404Y0192730D01*
X0184404Y0193728D02*
X0171397Y0193728D01*
X0170598Y0192730D02*
X0174908Y0192730D01*
X0174786Y0192608D02*
X0174540Y0192181D01*
X0174412Y0191705D01*
X0174412Y0190317D01*
X0177032Y0190317D01*
X0177032Y0193331D01*
X0176038Y0193331D01*
X0175562Y0193203D01*
X0175135Y0192957D01*
X0174786Y0192608D01*
X0174419Y0191731D02*
X0171018Y0191731D01*
X0171018Y0190733D02*
X0174412Y0190733D01*
X0174412Y0189734D02*
X0171018Y0189734D01*
X0171018Y0188736D02*
X0174412Y0188736D01*
X0174834Y0187737D02*
X0170671Y0187737D01*
X0165099Y0185740D02*
X0191182Y0185740D01*
X0192180Y0184742D02*
X0165459Y0184742D01*
X0165459Y0183743D02*
X0193179Y0183743D01*
X0192050Y0184146D02*
X0190475Y0182571D01*
X0183475Y0182571D01*
X0182975Y0182071D01*
X0182975Y0179130D01*
X0173696Y0177752D02*
X0221806Y0177752D01*
X0221806Y0176754D02*
X0173825Y0176754D01*
X0174054Y0175755D02*
X0221806Y0175755D01*
X0221806Y0174757D02*
X0213621Y0174757D01*
X0215356Y0173758D02*
X0222062Y0173758D01*
X0224323Y0172760D02*
X0216590Y0172760D01*
X0217038Y0171761D02*
X0224274Y0171761D01*
X0224315Y0170763D02*
X0217132Y0170763D01*
X0216920Y0169764D02*
X0224274Y0169764D01*
X0224274Y0169921D02*
X0224873Y0169921D01*
X0224873Y0169921D01*
X0224274Y0169921D01*
X0224093Y0168766D02*
X0216304Y0168766D01*
X0217583Y0167767D02*
X0214666Y0167767D01*
X0213261Y0167767D02*
X0210243Y0167767D01*
X0210243Y0168766D02*
X0211622Y0168766D01*
X0211006Y0169764D02*
X0210243Y0169764D01*
X0206487Y0166769D02*
X0216584Y0166769D01*
X0215586Y0165770D02*
X0210243Y0165770D01*
X0210243Y0166071D02*
X0206487Y0166071D01*
X0206487Y0161921D01*
X0208940Y0161921D01*
X0209322Y0162023D01*
X0209664Y0162221D01*
X0209943Y0162500D01*
X0210141Y0162842D01*
X0210243Y0163224D01*
X0210243Y0166071D01*
X0210243Y0164771D02*
X0214587Y0164771D01*
X0213589Y0163773D02*
X0210243Y0163773D01*
X0210101Y0162774D02*
X0212590Y0162774D01*
X0210195Y0161776D02*
X0198451Y0161776D01*
X0199400Y0162774D02*
X0201872Y0162774D01*
X0201833Y0162842D02*
X0202031Y0162500D01*
X0202310Y0162221D01*
X0202652Y0162023D01*
X0203033Y0161921D01*
X0205487Y0161921D01*
X0205487Y0166071D01*
X0201731Y0166071D01*
X0201731Y0163224D01*
X0201833Y0162842D01*
X0201731Y0163773D02*
X0199400Y0163773D01*
X0199400Y0164771D02*
X0201731Y0164771D01*
X0201731Y0165770D02*
X0199400Y0165770D01*
X0199400Y0166769D02*
X0205487Y0166769D01*
X0205487Y0165770D02*
X0206487Y0165770D01*
X0206487Y0164771D02*
X0205487Y0164771D01*
X0205487Y0163773D02*
X0206487Y0163773D01*
X0206487Y0162774D02*
X0205487Y0162774D01*
X0207979Y0159779D02*
X0208849Y0159779D01*
X0208826Y0158780D02*
X0208361Y0158780D01*
X0208361Y0157782D02*
X0209109Y0157782D01*
X0209825Y0156783D02*
X0208361Y0156783D01*
X0208361Y0155785D02*
X0209233Y0155785D01*
X0208826Y0154786D02*
X0208292Y0154786D01*
X0208065Y0153788D02*
X0208826Y0153788D01*
X0209138Y0152789D02*
X0208361Y0152789D01*
X0208361Y0151791D02*
X0209896Y0151791D01*
X0208361Y0150792D02*
X0211779Y0150792D01*
X0211779Y0149794D02*
X0208361Y0149794D01*
X0208207Y0148795D02*
X0212115Y0148795D01*
X0212906Y0147797D02*
X0204766Y0147797D01*
X0203767Y0146798D02*
X0212922Y0146798D01*
X0211924Y0145800D02*
X0204752Y0145800D01*
X0203136Y0144331D02*
X0205105Y0142362D01*
X0203136Y0144331D02*
X0170656Y0144331D01*
X0169314Y0142988D01*
X0169314Y0139677D01*
X0166755Y0139677D02*
X0166755Y0145350D01*
X0168688Y0147283D01*
X0201168Y0147283D01*
X0205105Y0151220D01*
X0211995Y0154173D02*
X0219869Y0162047D01*
X0231680Y0162047D01*
X0231680Y0165984D02*
X0218885Y0165984D01*
X0211995Y0159094D01*
X0209262Y0160777D02*
X0195533Y0160777D01*
X0194963Y0163559D02*
X0194963Y0166571D01*
X0192605Y0164213D01*
X0189948Y0164213D01*
X0188766Y0163031D01*
X0179909Y0163031D01*
X0177743Y0160866D01*
X0177785Y0157167D02*
X0181605Y0157167D01*
X0181605Y0158406D01*
X0181503Y0158788D01*
X0181497Y0158798D01*
X0181786Y0159087D01*
X0181786Y0160850D01*
X0188588Y0160850D01*
X0188238Y0160500D01*
X0187860Y0159588D01*
X0187860Y0153702D01*
X0186645Y0153702D01*
X0185555Y0154791D01*
X0184857Y0155489D01*
X0183945Y0155867D01*
X0181605Y0155867D01*
X0181605Y0157085D01*
X0177785Y0157085D01*
X0177785Y0157167D01*
X0181605Y0156783D02*
X0187860Y0156783D01*
X0187860Y0155785D02*
X0184143Y0155785D01*
X0185555Y0154791D02*
X0185555Y0154791D01*
X0185560Y0154786D02*
X0187860Y0154786D01*
X0187860Y0153788D02*
X0186558Y0153788D01*
X0183535Y0149794D02*
X0169764Y0149794D01*
X0169628Y0149465D02*
X0169987Y0150333D01*
X0169987Y0150622D01*
X0170565Y0150622D01*
X0171549Y0151607D01*
X0171549Y0152431D01*
X0173570Y0154451D01*
X0173700Y0154582D01*
X0173700Y0151607D01*
X0174685Y0150622D01*
X0180802Y0150622D01*
X0181084Y0150905D01*
X0182424Y0150905D01*
X0183864Y0149465D01*
X0169628Y0149465D01*
X0170735Y0150792D02*
X0174514Y0150792D01*
X0173700Y0151791D02*
X0171549Y0151791D01*
X0171908Y0152789D02*
X0173700Y0152789D01*
X0173700Y0153788D02*
X0172906Y0153788D01*
X0169450Y0156783D02*
X0121475Y0156783D01*
X0121475Y0155785D02*
X0125881Y0155785D01*
X0124874Y0154786D02*
X0121475Y0154786D01*
X0121475Y0153788D02*
X0124278Y0153788D01*
X0123864Y0152789D02*
X0121475Y0152789D01*
X0121475Y0151791D02*
X0123857Y0151791D01*
X0123913Y0150792D02*
X0121475Y0150792D01*
X0121475Y0149794D02*
X0124327Y0149794D01*
X0124993Y0148795D02*
X0121475Y0148795D01*
X0121475Y0147797D02*
X0126168Y0147797D01*
X0126782Y0145977D02*
X0126157Y0145659D01*
X0125590Y0145247D01*
X0125094Y0144751D01*
X0124682Y0144184D01*
X0124364Y0143560D01*
X0124148Y0142893D01*
X0124059Y0142335D01*
X0130959Y0142335D01*
X0130959Y0146303D01*
X0128140Y0146303D01*
X0127448Y0146193D01*
X0126782Y0145977D01*
X0126434Y0145800D02*
X0121475Y0145800D01*
X0121475Y0146798D02*
X0144219Y0146798D01*
X0143866Y0145800D02*
X0136453Y0145800D01*
X0136730Y0145659D02*
X0136106Y0145977D01*
X0135439Y0146193D01*
X0134747Y0146303D01*
X0131928Y0146303D01*
X0131928Y0142335D01*
X0130959Y0142335D01*
X0130959Y0141366D01*
X0124059Y0141366D01*
X0124148Y0140808D01*
X0124364Y0140141D01*
X0124682Y0139517D01*
X0125094Y0138950D01*
X0125590Y0138454D01*
X0126157Y0138042D01*
X0126782Y0137724D01*
X0127448Y0137507D01*
X0128140Y0137398D01*
X0130959Y0137398D01*
X0130959Y0141366D01*
X0131928Y0141366D01*
X0131928Y0142335D01*
X0138828Y0142335D01*
X0138739Y0142893D01*
X0138523Y0143560D01*
X0138205Y0144184D01*
X0137793Y0144751D01*
X0137297Y0145247D01*
X0136730Y0145659D01*
X0137743Y0144801D02*
X0143866Y0144801D01*
X0144231Y0143803D02*
X0138399Y0143803D01*
X0138753Y0142804D02*
X0145064Y0142804D01*
X0146475Y0141806D02*
X0131928Y0141806D01*
X0131928Y0141366D02*
X0138828Y0141366D01*
X0138739Y0140808D01*
X0138523Y0140141D01*
X0138205Y0139517D01*
X0137793Y0138950D01*
X0137297Y0138454D01*
X0136730Y0138042D01*
X0136106Y0137724D01*
X0135439Y0137507D01*
X0134747Y0137398D01*
X0131928Y0137398D01*
X0131928Y0141366D01*
X0131928Y0140807D02*
X0130959Y0140807D01*
X0130959Y0139809D02*
X0131928Y0139809D01*
X0131928Y0138810D02*
X0130959Y0138810D01*
X0130959Y0137812D02*
X0131928Y0137812D01*
X0131928Y0136303D02*
X0131928Y0132335D01*
X0130959Y0132335D01*
X0130959Y0136303D01*
X0128140Y0136303D01*
X0127448Y0136193D01*
X0126782Y0135977D01*
X0126157Y0135659D01*
X0125590Y0135247D01*
X0125094Y0134751D01*
X0124682Y0134184D01*
X0124364Y0133560D01*
X0124148Y0132893D01*
X0124059Y0132335D01*
X0130959Y0132335D01*
X0130959Y0131366D01*
X0124059Y0131366D01*
X0124148Y0130808D01*
X0124364Y0130141D01*
X0124682Y0129517D01*
X0125094Y0128950D01*
X0125590Y0128454D01*
X0126157Y0128042D01*
X0126782Y0127724D01*
X0127448Y0127507D01*
X0128140Y0127398D01*
X0130959Y0127398D01*
X0130959Y0131366D01*
X0131928Y0131366D01*
X0131928Y0132335D01*
X0138828Y0132335D01*
X0138739Y0132893D01*
X0138523Y0133560D01*
X0138205Y0134184D01*
X0137793Y0134751D01*
X0137297Y0135247D01*
X0136730Y0135659D01*
X0136106Y0135977D01*
X0135439Y0136193D01*
X0134747Y0136303D01*
X0131928Y0136303D01*
X0131928Y0135815D02*
X0130959Y0135815D01*
X0130959Y0134816D02*
X0131928Y0134816D01*
X0131928Y0133818D02*
X0130959Y0133818D01*
X0130959Y0132819D02*
X0131928Y0132819D01*
X0131928Y0131821D02*
X0146622Y0131821D01*
X0146656Y0130822D02*
X0138742Y0130822D01*
X0138739Y0130808D02*
X0138828Y0131366D01*
X0131928Y0131366D01*
X0131928Y0127398D01*
X0134747Y0127398D01*
X0135439Y0127507D01*
X0136106Y0127724D01*
X0136730Y0128042D01*
X0137297Y0128454D01*
X0137793Y0128950D01*
X0138205Y0129517D01*
X0138523Y0130141D01*
X0138739Y0130808D01*
X0138361Y0129824D02*
X0147070Y0129824D01*
X0148054Y0128825D02*
X0137668Y0128825D01*
X0136307Y0127827D02*
X0152096Y0127827D01*
X0152096Y0126828D02*
X0121475Y0126828D01*
X0121475Y0125830D02*
X0125989Y0125830D01*
X0124918Y0124831D02*
X0121475Y0124831D01*
X0121475Y0123833D02*
X0124296Y0123833D01*
X0123883Y0122834D02*
X0121475Y0122834D01*
X0121475Y0121836D02*
X0123857Y0121836D01*
X0123895Y0120837D02*
X0121475Y0120837D01*
X0121475Y0119838D02*
X0124309Y0119838D01*
X0124948Y0118840D02*
X0121475Y0118840D01*
X0121475Y0117841D02*
X0126060Y0117841D01*
X0121475Y0116843D02*
X0159840Y0116843D01*
X0160838Y0115844D02*
X0121475Y0115844D01*
X0121475Y0114846D02*
X0161837Y0114846D01*
X0158841Y0117841D02*
X0136827Y0117841D01*
X0137939Y0118840D02*
X0157843Y0118840D01*
X0156844Y0119838D02*
X0152311Y0119838D01*
X0153309Y0120837D02*
X0155846Y0120837D01*
X0154847Y0121836D02*
X0154308Y0121836D01*
X0150285Y0124831D02*
X0137969Y0124831D01*
X0136899Y0125830D02*
X0151284Y0125830D01*
X0157059Y0126828D02*
X0175180Y0126828D01*
X0175180Y0125830D02*
X0157871Y0125830D01*
X0158869Y0124831D02*
X0175659Y0124831D01*
X0175361Y0123833D02*
X0159868Y0123833D01*
X0160866Y0122834D02*
X0175361Y0122834D01*
X0175361Y0121836D02*
X0161865Y0121836D01*
X0162863Y0120837D02*
X0175394Y0120837D01*
X0176145Y0119838D02*
X0163862Y0119838D01*
X0161652Y0128075D02*
X0161271Y0127972D01*
X0159885Y0127972D01*
X0159885Y0131055D01*
X0162573Y0131055D01*
X0162573Y0129275D01*
X0162471Y0128893D01*
X0162274Y0128551D01*
X0161995Y0128272D01*
X0161652Y0128075D01*
X0162432Y0128825D02*
X0174235Y0128825D01*
X0175180Y0127827D02*
X0157059Y0127827D01*
X0159507Y0128825D02*
X0159885Y0128825D01*
X0159885Y0129824D02*
X0159507Y0129824D01*
X0159507Y0130822D02*
X0159885Y0130822D01*
X0159885Y0131821D02*
X0159507Y0131821D01*
X0159507Y0132819D02*
X0159885Y0132819D01*
X0159885Y0133818D02*
X0159507Y0133818D01*
X0159425Y0134816D02*
X0156140Y0134816D01*
X0156518Y0135815D02*
X0156518Y0135815D01*
X0156518Y0136813D02*
X0156518Y0136813D01*
X0156518Y0137812D02*
X0156518Y0137812D01*
X0156518Y0138810D02*
X0156518Y0138810D01*
X0156518Y0139809D02*
X0156518Y0139809D01*
X0156518Y0140807D02*
X0156518Y0140807D01*
X0156518Y0141806D02*
X0156518Y0141806D01*
X0156518Y0142804D02*
X0156518Y0142804D01*
X0156518Y0143803D02*
X0156518Y0143803D01*
X0156108Y0144801D02*
X0158212Y0144801D01*
X0157214Y0145800D02*
X0156108Y0145800D01*
X0156215Y0146798D02*
X0155755Y0146798D01*
X0155217Y0147797D02*
X0154939Y0147797D01*
X0154218Y0148795D02*
X0137895Y0148795D01*
X0136719Y0147797D02*
X0145035Y0147797D01*
X0147034Y0145315D02*
X0148841Y0143508D01*
X0148841Y0139677D01*
X0146475Y0139809D02*
X0138353Y0139809D01*
X0138739Y0140807D02*
X0146475Y0140807D01*
X0146475Y0138810D02*
X0137653Y0138810D01*
X0136278Y0137812D02*
X0146475Y0137812D01*
X0146475Y0136813D02*
X0121475Y0136813D01*
X0121475Y0135815D02*
X0126463Y0135815D01*
X0125159Y0134816D02*
X0121475Y0134816D01*
X0121475Y0133818D02*
X0124496Y0133818D01*
X0124136Y0132819D02*
X0121475Y0132819D01*
X0121475Y0131821D02*
X0130959Y0131821D01*
X0130959Y0130822D02*
X0131928Y0130822D01*
X0131928Y0129824D02*
X0130959Y0129824D01*
X0130959Y0128825D02*
X0131928Y0128825D01*
X0131928Y0127827D02*
X0130959Y0127827D01*
X0126580Y0127827D02*
X0121475Y0127827D01*
X0121475Y0128825D02*
X0125219Y0128825D01*
X0124526Y0129824D02*
X0121475Y0129824D01*
X0121475Y0130822D02*
X0124145Y0130822D01*
X0126609Y0137812D02*
X0121475Y0137812D01*
X0121475Y0138810D02*
X0125234Y0138810D01*
X0124534Y0139809D02*
X0121475Y0139809D01*
X0121475Y0140807D02*
X0124148Y0140807D01*
X0124134Y0142804D02*
X0121475Y0142804D01*
X0121475Y0141806D02*
X0130959Y0141806D01*
X0130959Y0142804D02*
X0131928Y0142804D01*
X0131928Y0143803D02*
X0130959Y0143803D01*
X0130959Y0144801D02*
X0131928Y0144801D01*
X0131928Y0145800D02*
X0130959Y0145800D01*
X0125145Y0144801D02*
X0121475Y0144801D01*
X0121475Y0143803D02*
X0124488Y0143803D01*
X0136424Y0135815D02*
X0146891Y0135815D01*
X0147591Y0133818D02*
X0138391Y0133818D01*
X0138751Y0132819D02*
X0146892Y0132819D01*
X0151778Y0134816D02*
X0137728Y0134816D01*
X0151400Y0139677D02*
X0151400Y0143776D01*
X0152940Y0145315D01*
X0150124Y0146798D02*
X0149849Y0146798D01*
X0149033Y0147797D02*
X0150941Y0147797D01*
X0158240Y0151791D02*
X0163463Y0151791D01*
X0163463Y0152789D02*
X0157242Y0152789D01*
X0156243Y0153788D02*
X0163463Y0153788D01*
X0163463Y0154786D02*
X0138014Y0154786D01*
X0137006Y0155785D02*
X0164083Y0155785D01*
X0163770Y0158780D02*
X0137880Y0158780D01*
X0136683Y0157782D02*
X0170344Y0157782D01*
X0163463Y0159779D02*
X0141385Y0159779D01*
X0142383Y0160777D02*
X0163463Y0160777D01*
X0163463Y0161776D02*
X0143382Y0161776D01*
X0144380Y0162774D02*
X0163592Y0162774D01*
X0166755Y0164771D02*
X0166755Y0164771D01*
X0166755Y0165770D02*
X0166755Y0165770D01*
X0166755Y0166769D02*
X0166755Y0166769D01*
X0166755Y0167767D02*
X0166755Y0167767D01*
X0166975Y0168244D02*
X0166755Y0168465D01*
X0166755Y0168766D02*
X0166755Y0168766D01*
X0166755Y0169764D02*
X0166755Y0169764D01*
X0166755Y0170763D02*
X0166755Y0170763D01*
X0166755Y0171761D02*
X0166755Y0171761D01*
X0167796Y0172760D02*
X0165713Y0172760D01*
X0169692Y0173758D02*
X0147884Y0173758D01*
X0147324Y0172760D02*
X0146885Y0172760D01*
X0146475Y0171761D02*
X0145887Y0171761D01*
X0145578Y0170763D02*
X0146475Y0170763D01*
X0146475Y0169764D02*
X0145578Y0169764D01*
X0145578Y0168766D02*
X0146475Y0168766D01*
X0146475Y0167767D02*
X0145578Y0167767D01*
X0145578Y0166769D02*
X0146475Y0166769D01*
X0146475Y0165770D02*
X0145578Y0165770D01*
X0145578Y0164771D02*
X0146722Y0164771D01*
X0145274Y0163773D02*
X0171321Y0163773D01*
X0171873Y0168465D02*
X0171873Y0175594D01*
X0170656Y0176811D01*
X0169470Y0179749D02*
X0165286Y0179749D01*
X0165459Y0180748D02*
X0196175Y0180748D01*
X0195822Y0181101D02*
X0195822Y0181101D01*
X0195176Y0181746D02*
X0165459Y0181746D01*
X0165459Y0182745D02*
X0194178Y0182745D01*
X0195046Y0174757D02*
X0174054Y0174757D01*
X0174054Y0173758D02*
X0194047Y0173758D01*
X0193049Y0172760D02*
X0183626Y0172760D01*
X0184475Y0171761D02*
X0192524Y0171761D01*
X0190872Y0170763D02*
X0184475Y0170763D01*
X0182109Y0168465D02*
X0186877Y0168465D01*
X0188373Y0166969D01*
X0189903Y0169764D02*
X0190526Y0169764D01*
X0199400Y0169764D02*
X0201731Y0169764D01*
X0201731Y0168766D02*
X0199400Y0168766D01*
X0199400Y0167767D02*
X0201731Y0167767D01*
X0202231Y0159779D02*
X0198727Y0159779D01*
X0188515Y0160777D02*
X0181786Y0160777D01*
X0181786Y0159779D02*
X0187939Y0159779D01*
X0187860Y0158780D02*
X0181505Y0158780D01*
X0181605Y0157782D02*
X0187860Y0157782D01*
X0182536Y0150792D02*
X0180972Y0150792D01*
X0195475Y0151571D02*
X0196247Y0151614D01*
X0208193Y0144801D02*
X0210925Y0144801D01*
X0209926Y0143803D02*
X0208361Y0143803D01*
X0208361Y0142804D02*
X0209514Y0142804D01*
X0209514Y0141806D02*
X0208361Y0141806D01*
X0208361Y0140807D02*
X0209514Y0140807D01*
X0209514Y0139809D02*
X0208079Y0139809D01*
X0208279Y0138810D02*
X0209514Y0138810D01*
X0209514Y0137812D02*
X0208361Y0137812D01*
X0208361Y0136813D02*
X0209514Y0136813D01*
X0209514Y0135815D02*
X0208361Y0135815D01*
X0208361Y0134816D02*
X0209514Y0134816D01*
X0209514Y0133818D02*
X0207993Y0133818D01*
X0209514Y0132819D02*
X0199699Y0132819D01*
X0199697Y0131821D02*
X0209514Y0131821D01*
X0209514Y0130822D02*
X0199141Y0130822D01*
X0199699Y0129824D02*
X0203772Y0129824D01*
X0201991Y0128825D02*
X0199699Y0128825D01*
X0199699Y0127827D02*
X0200840Y0127827D01*
X0199842Y0126828D02*
X0199699Y0126828D01*
X0205034Y0126630D02*
X0205475Y0127071D01*
X0206089Y0126614D01*
X0209345Y0126828D02*
X0209514Y0126828D01*
X0209514Y0125830D02*
X0209345Y0125830D01*
X0209345Y0124831D02*
X0209514Y0124831D01*
X0209514Y0123833D02*
X0208835Y0123833D01*
X0209069Y0122834D02*
X0209514Y0122834D01*
X0209514Y0121836D02*
X0209164Y0121836D01*
X0209514Y0120837D02*
X0206377Y0120837D01*
X0205802Y0120837D02*
X0200684Y0120837D01*
X0201867Y0121836D02*
X0203014Y0121836D01*
X0203109Y0122834D02*
X0202865Y0122834D01*
X0203014Y0119838D02*
X0181120Y0119838D01*
X0180983Y0119760D02*
X0181325Y0119957D01*
X0181604Y0120236D01*
X0181802Y0120578D01*
X0181904Y0120960D01*
X0181904Y0122346D01*
X0178822Y0122346D01*
X0178822Y0119657D01*
X0180602Y0119657D01*
X0180983Y0119760D01*
X0181871Y0120837D02*
X0192954Y0120837D01*
X0192794Y0121836D02*
X0181904Y0121836D01*
X0181904Y0122834D02*
X0192794Y0122834D01*
X0192794Y0123833D02*
X0181904Y0123833D01*
X0181606Y0124831D02*
X0192794Y0124831D01*
X0193079Y0125830D02*
X0185893Y0125830D01*
X0186891Y0126828D02*
X0192794Y0126828D01*
X0192794Y0127827D02*
X0187890Y0127827D01*
X0188888Y0128825D02*
X0192794Y0128825D01*
X0192794Y0129824D02*
X0189887Y0129824D01*
X0192140Y0130822D02*
X0193353Y0130822D01*
X0187173Y0133561D02*
X0183546Y0129935D01*
X0181878Y0129935D01*
X0181101Y0130713D01*
X0178799Y0130713D01*
X0174514Y0134998D01*
X0165696Y0134998D01*
X0165447Y0135246D01*
X0173254Y0135246D01*
X0173459Y0135451D01*
X0173549Y0135427D01*
X0174432Y0135427D01*
X0175314Y0135427D01*
X0175696Y0135529D01*
X0175711Y0135538D01*
X0175727Y0135529D01*
X0176108Y0135427D01*
X0176991Y0135427D01*
X0177873Y0135427D01*
X0177963Y0135451D01*
X0178168Y0135246D01*
X0183490Y0135246D01*
X0184475Y0136231D01*
X0184475Y0142150D01*
X0201849Y0142150D01*
X0201849Y0140269D01*
X0200999Y0141119D01*
X0200087Y0141497D01*
X0199293Y0141497D01*
X0198715Y0142075D01*
X0193779Y0142075D01*
X0192794Y0141090D01*
X0192794Y0136941D01*
X0193279Y0136457D01*
X0192807Y0135985D01*
X0192341Y0135985D01*
X0192136Y0136190D01*
X0190971Y0136672D01*
X0189711Y0136672D01*
X0188546Y0136190D01*
X0187655Y0135299D01*
X0187173Y0134134D01*
X0187173Y0133561D01*
X0187173Y0133818D02*
X0175694Y0133818D01*
X0174696Y0134816D02*
X0187455Y0134816D01*
X0188171Y0135815D02*
X0184059Y0135815D01*
X0184475Y0136813D02*
X0192922Y0136813D01*
X0192794Y0137812D02*
X0184475Y0137812D01*
X0184475Y0138810D02*
X0192794Y0138810D01*
X0192794Y0139809D02*
X0184475Y0139809D01*
X0184475Y0140807D02*
X0192794Y0140807D01*
X0193510Y0141806D02*
X0184475Y0141806D01*
X0176991Y0139677D02*
X0176991Y0135427D01*
X0176991Y0139677D01*
X0176991Y0139677D01*
X0174432Y0139677D01*
X0174432Y0139677D01*
X0174432Y0135427D01*
X0174432Y0139677D01*
X0174432Y0139677D01*
X0176617Y0139677D01*
X0176991Y0139677D01*
X0176991Y0139677D01*
X0176991Y0138810D02*
X0176991Y0138810D01*
X0176991Y0137812D02*
X0176991Y0137812D01*
X0176991Y0136813D02*
X0176991Y0136813D01*
X0176991Y0135815D02*
X0176991Y0135815D01*
X0174432Y0135815D02*
X0174432Y0135815D01*
X0174432Y0136813D02*
X0174432Y0136813D01*
X0174432Y0137812D02*
X0174432Y0137812D01*
X0174432Y0138810D02*
X0174432Y0138810D01*
X0164196Y0139809D02*
X0164195Y0139809D01*
X0164195Y0140807D02*
X0164196Y0140807D01*
X0164195Y0141806D02*
X0164196Y0141806D01*
X0164195Y0142804D02*
X0164196Y0142804D01*
X0164195Y0143803D02*
X0164196Y0143803D01*
X0164118Y0144801D02*
X0164573Y0144801D01*
X0164573Y0145800D02*
X0163943Y0145800D01*
X0163904Y0146798D02*
X0163233Y0146798D01*
X0163105Y0147797D02*
X0162234Y0147797D01*
X0162763Y0148795D02*
X0161236Y0148795D01*
X0160237Y0149794D02*
X0162763Y0149794D01*
X0163140Y0150792D02*
X0159239Y0150792D01*
X0153959Y0139677D02*
X0153959Y0131862D01*
X0154577Y0131244D01*
X0162573Y0130822D02*
X0163419Y0130822D01*
X0162573Y0129824D02*
X0173237Y0129824D01*
X0176693Y0132819D02*
X0186430Y0132819D01*
X0185432Y0131821D02*
X0177691Y0131821D01*
X0178690Y0130822D02*
X0184433Y0130822D01*
X0178822Y0121836D02*
X0178444Y0121836D01*
X0178444Y0120837D02*
X0178822Y0120837D01*
X0178822Y0119838D02*
X0178444Y0119838D01*
X0199699Y0133818D02*
X0202217Y0133818D01*
X0200284Y0134816D02*
X0199699Y0134816D01*
X0208407Y0129824D02*
X0209514Y0129824D01*
X0209514Y0128825D02*
X0209345Y0128825D01*
X0209345Y0127827D02*
X0209514Y0127827D01*
X0214476Y0127827D02*
X0224093Y0127827D01*
X0224093Y0128825D02*
X0214476Y0128825D01*
X0214476Y0129824D02*
X0224093Y0129824D01*
X0224093Y0130822D02*
X0214476Y0130822D01*
X0214476Y0131821D02*
X0224093Y0131821D01*
X0224093Y0132819D02*
X0214476Y0132819D01*
X0216538Y0130213D02*
X0219869Y0130213D01*
X0219869Y0134488D01*
X0231680Y0134488D01*
X0231680Y0136457D02*
X0215932Y0136457D01*
X0215773Y0139625D02*
X0215301Y0139625D01*
X0214476Y0139283D01*
X0214476Y0141334D01*
X0217051Y0143910D01*
X0217351Y0144634D01*
X0218804Y0146087D01*
X0224093Y0146087D01*
X0224093Y0145111D01*
X0224274Y0144930D01*
X0224274Y0144331D01*
X0224873Y0144331D01*
X0224873Y0144331D01*
X0224274Y0144331D01*
X0224274Y0143641D01*
X0224353Y0143346D01*
X0224274Y0143052D01*
X0224274Y0142362D01*
X0224274Y0141763D01*
X0224093Y0141582D01*
X0224093Y0140606D01*
X0222053Y0140606D01*
X0222053Y0141024D01*
X0221571Y0142189D01*
X0220679Y0143080D01*
X0219515Y0143562D01*
X0218254Y0143562D01*
X0217090Y0143080D01*
X0216198Y0142189D01*
X0215716Y0141024D01*
X0215716Y0139763D01*
X0215773Y0139625D01*
X0215716Y0139809D02*
X0214476Y0139809D01*
X0214476Y0140807D02*
X0215716Y0140807D01*
X0216040Y0141806D02*
X0214947Y0141806D01*
X0215946Y0142804D02*
X0216814Y0142804D01*
X0216944Y0143803D02*
X0224274Y0143803D01*
X0224274Y0144801D02*
X0217518Y0144801D01*
X0218517Y0145800D02*
X0224093Y0145800D01*
X0221837Y0144331D02*
X0231680Y0144331D01*
X0231680Y0144126D02*
X0231680Y0142567D01*
X0231680Y0142567D01*
X0231680Y0144126D01*
X0231680Y0144126D01*
X0231680Y0143803D02*
X0231680Y0143803D01*
X0231680Y0142804D02*
X0231680Y0142804D01*
X0231680Y0142362D02*
X0221837Y0142362D01*
X0221837Y0144331D01*
X0220955Y0142804D02*
X0224274Y0142804D01*
X0224274Y0142362D02*
X0224873Y0142362D01*
X0224274Y0142362D01*
X0224274Y0141806D02*
X0221729Y0141806D01*
X0222053Y0140807D02*
X0224093Y0140807D01*
X0224873Y0142362D02*
X0224873Y0142362D01*
X0220853Y0138425D02*
X0218885Y0140394D01*
X0220853Y0138425D02*
X0231680Y0138425D01*
X0224203Y0133818D02*
X0217774Y0133818D01*
X0214476Y0126828D02*
X0224093Y0126828D01*
X0224093Y0125830D02*
X0214476Y0125830D01*
X0214476Y0124831D02*
X0224093Y0124831D01*
X0224093Y0123833D02*
X0214476Y0123833D01*
X0214476Y0122834D02*
X0224093Y0122834D01*
X0224093Y0121836D02*
X0214476Y0121836D01*
X0214476Y0120837D02*
X0224093Y0120837D01*
X0224093Y0119838D02*
X0214476Y0119838D01*
X0214314Y0118840D02*
X0224093Y0118840D01*
X0224093Y0117841D02*
X0213621Y0117841D01*
X0212622Y0116843D02*
X0224093Y0116843D01*
X0224093Y0115844D02*
X0211624Y0115844D01*
X0210625Y0114846D02*
X0224274Y0114846D01*
X0221837Y0114803D02*
X0231680Y0114803D01*
X0221837Y0116772D02*
X0221837Y0117756D01*
X0201849Y0140807D02*
X0201310Y0140807D01*
X0201849Y0141806D02*
X0198984Y0141806D01*
X0214948Y0145315D02*
X0217900Y0148268D01*
X0231680Y0148268D01*
X0231680Y0158110D02*
X0222822Y0158110D01*
X0214948Y0150236D01*
X0221837Y0169921D02*
X0231680Y0169921D01*
X0231680Y0170126D02*
X0231680Y0171890D01*
X0231680Y0171890D01*
X0231680Y0170126D01*
X0231680Y0170126D01*
X0231680Y0170763D02*
X0231680Y0170763D01*
X0231680Y0171761D02*
X0231680Y0171761D01*
X0221806Y0178751D02*
X0173197Y0178751D01*
X0171843Y0179749D02*
X0221806Y0179749D01*
X0184404Y0194727D02*
X0181473Y0194727D01*
X0183092Y0195725D02*
X0184404Y0195725D01*
X0184404Y0196724D02*
X0183942Y0196724D01*
X0184355Y0197722D02*
X0184404Y0197722D01*
X0184404Y0200718D02*
X0184251Y0200718D01*
X0184404Y0201716D02*
X0183838Y0201716D01*
X0184404Y0202715D02*
X0182841Y0202715D01*
X0184404Y0203713D02*
X0180866Y0203713D01*
X0181437Y0204712D02*
X0184404Y0204712D01*
X0184404Y0205710D02*
X0183077Y0205710D01*
X0183936Y0206709D02*
X0184404Y0206709D01*
X0184404Y0207707D02*
X0184349Y0207707D01*
X0184404Y0210349D02*
X0183837Y0211719D01*
X0182533Y0213023D01*
X0180830Y0213728D01*
X0173081Y0213728D01*
X0171378Y0213023D01*
X0170074Y0211719D01*
X0169607Y0210591D01*
X0163860Y0210591D01*
X0163654Y0210797D01*
X0163786Y0210929D01*
X0163983Y0211271D01*
X0164085Y0211653D01*
X0164085Y0213039D01*
X0161003Y0213039D01*
X0161003Y0213417D01*
X0164085Y0213417D01*
X0164085Y0214804D01*
X0163983Y0215185D01*
X0163786Y0215527D01*
X0163506Y0215807D01*
X0163164Y0216004D01*
X0162783Y0216106D01*
X0161003Y0216106D01*
X0161003Y0213417D01*
X0160625Y0213417D01*
X0160625Y0213039D01*
X0157542Y0213039D01*
X0157542Y0211653D01*
X0157644Y0211271D01*
X0157842Y0210929D01*
X0157974Y0210797D01*
X0157768Y0210591D01*
X0157192Y0210591D01*
X0157192Y0216016D01*
X0158398Y0216016D01*
X0159601Y0217218D01*
X0159601Y0221443D01*
X0158989Y0222055D01*
X0170666Y0222055D01*
X0170606Y0221995D01*
X0170194Y0221428D01*
X0169876Y0220804D01*
X0169660Y0220137D01*
X0169571Y0219579D01*
X0176471Y0219579D01*
X0176471Y0218610D01*
X0177440Y0218610D01*
X0177440Y0219579D01*
X0184340Y0219579D01*
X0184251Y0220137D01*
X0184035Y0220804D01*
X0183716Y0221428D01*
X0183304Y0221995D01*
X0183245Y0222055D01*
X0184404Y0222055D01*
X0184404Y0210349D01*
X0184404Y0210703D02*
X0184257Y0210703D01*
X0184404Y0211702D02*
X0183844Y0211702D01*
X0184404Y0212700D02*
X0182856Y0212700D01*
X0184404Y0213699D02*
X0180902Y0213699D01*
X0180608Y0214697D02*
X0184404Y0214697D01*
X0184404Y0215696D02*
X0182805Y0215696D01*
X0182809Y0215698D02*
X0183304Y0216194D01*
X0183716Y0216761D01*
X0184035Y0217385D01*
X0184251Y0218052D01*
X0184340Y0218610D01*
X0177440Y0218610D01*
X0177440Y0214642D01*
X0180259Y0214642D01*
X0180951Y0214751D01*
X0181617Y0214968D01*
X0182242Y0215286D01*
X0182809Y0215698D01*
X0183668Y0216694D02*
X0184404Y0216694D01*
X0184404Y0217693D02*
X0184135Y0217693D01*
X0184404Y0218691D02*
X0177440Y0218691D01*
X0176471Y0218691D02*
X0159601Y0218691D01*
X0159601Y0217693D02*
X0169776Y0217693D01*
X0169876Y0217385D02*
X0169660Y0218052D01*
X0169571Y0218610D01*
X0176471Y0218610D01*
X0176471Y0214642D01*
X0173652Y0214642D01*
X0172960Y0214751D01*
X0172293Y0214968D01*
X0171669Y0215286D01*
X0171102Y0215698D01*
X0170606Y0216194D01*
X0170194Y0216761D01*
X0169876Y0217385D01*
X0170243Y0216694D02*
X0159077Y0216694D01*
X0158845Y0216106D02*
X0160625Y0216106D01*
X0160625Y0213417D01*
X0157542Y0213417D01*
X0157542Y0214804D01*
X0157644Y0215185D01*
X0157842Y0215527D01*
X0158121Y0215807D01*
X0158463Y0216004D01*
X0158845Y0216106D01*
X0158010Y0215696D02*
X0157192Y0215696D01*
X0157192Y0214697D02*
X0157542Y0214697D01*
X0157542Y0213699D02*
X0157192Y0213699D01*
X0157192Y0212700D02*
X0157542Y0212700D01*
X0157542Y0211702D02*
X0157192Y0211702D01*
X0157192Y0210703D02*
X0157879Y0210703D01*
X0160625Y0213699D02*
X0161003Y0213699D01*
X0161003Y0214697D02*
X0160625Y0214697D01*
X0160625Y0215696D02*
X0161003Y0215696D01*
X0163617Y0215696D02*
X0171105Y0215696D01*
X0173303Y0214697D02*
X0164085Y0214697D01*
X0164085Y0213699D02*
X0173009Y0213699D01*
X0171055Y0212700D02*
X0164085Y0212700D01*
X0164085Y0211702D02*
X0170067Y0211702D01*
X0169653Y0210703D02*
X0163748Y0210703D01*
X0157770Y0204712D02*
X0172474Y0204712D01*
X0173045Y0203713D02*
X0156826Y0203713D01*
X0157380Y0201716D02*
X0170073Y0201716D01*
X0169659Y0200718D02*
X0157770Y0200718D01*
X0157770Y0199719D02*
X0169369Y0199719D01*
X0169369Y0198721D02*
X0157770Y0198721D01*
X0157770Y0197722D02*
X0168374Y0197722D01*
X0167375Y0196724D02*
X0157770Y0196724D01*
X0157192Y0195725D02*
X0166377Y0195725D01*
X0165739Y0194727D02*
X0157192Y0194727D01*
X0157192Y0193728D02*
X0165616Y0193728D01*
X0165597Y0192730D02*
X0157705Y0192730D01*
X0152230Y0193728D02*
X0121475Y0193728D01*
X0121475Y0194727D02*
X0127556Y0194727D01*
X0125937Y0195725D02*
X0121475Y0195725D01*
X0121475Y0196724D02*
X0125087Y0196724D01*
X0124673Y0197722D02*
X0121475Y0197722D01*
X0121475Y0198721D02*
X0124487Y0198721D01*
X0124487Y0199719D02*
X0121475Y0199719D01*
X0121475Y0200718D02*
X0124778Y0200718D01*
X0125191Y0201716D02*
X0121475Y0201716D01*
X0121475Y0202715D02*
X0126188Y0202715D01*
X0128163Y0203713D02*
X0121475Y0203713D01*
X0121475Y0204712D02*
X0127592Y0204712D01*
X0125951Y0205710D02*
X0121475Y0205710D01*
X0121475Y0206709D02*
X0125093Y0206709D01*
X0124680Y0207707D02*
X0121475Y0207707D01*
X0121475Y0208706D02*
X0124487Y0208706D01*
X0124487Y0209705D02*
X0121475Y0209705D01*
X0121475Y0210703D02*
X0124771Y0210703D01*
X0125185Y0211702D02*
X0121475Y0211702D01*
X0121475Y0212700D02*
X0126173Y0212700D01*
X0128127Y0213699D02*
X0121475Y0213699D01*
X0121475Y0214697D02*
X0128421Y0214697D01*
X0126223Y0215696D02*
X0121475Y0215696D01*
X0121475Y0216694D02*
X0125361Y0216694D01*
X0124894Y0217693D02*
X0121475Y0217693D01*
X0121475Y0218691D02*
X0131589Y0218691D01*
X0132558Y0218691D02*
X0144885Y0218691D01*
X0144885Y0219690D02*
X0139440Y0219690D01*
X0139190Y0220688D02*
X0144885Y0220688D01*
X0145227Y0221687D02*
X0138647Y0221687D01*
X0139253Y0217693D02*
X0144919Y0217693D01*
X0145484Y0216694D02*
X0138786Y0216694D01*
X0137923Y0215696D02*
X0152230Y0215696D01*
X0152230Y0216694D02*
X0149765Y0216694D01*
X0150330Y0217693D02*
X0152230Y0217693D01*
X0152576Y0218691D02*
X0150365Y0218691D01*
X0150365Y0219690D02*
X0153530Y0219690D01*
X0153759Y0220688D02*
X0150365Y0220688D01*
X0150023Y0221687D02*
X0154002Y0221687D01*
X0147745Y0218691D02*
X0147505Y0218691D01*
X0147505Y0217693D02*
X0147745Y0217693D01*
X0147745Y0216694D02*
X0147505Y0216694D01*
X0152230Y0214697D02*
X0135726Y0214697D01*
X0136020Y0213699D02*
X0152230Y0213699D01*
X0152230Y0212700D02*
X0137974Y0212700D01*
X0138962Y0211702D02*
X0152230Y0211702D01*
X0152230Y0210703D02*
X0149525Y0210703D01*
X0146534Y0205710D02*
X0138195Y0205710D01*
X0136555Y0204712D02*
X0146534Y0204712D01*
X0147479Y0203713D02*
X0135984Y0203713D01*
X0137959Y0202715D02*
X0171070Y0202715D01*
X0172396Y0194727D02*
X0172438Y0194727D01*
X0177032Y0192730D02*
X0177272Y0192730D01*
X0177272Y0191731D02*
X0177032Y0191731D01*
X0177032Y0190733D02*
X0177272Y0190733D01*
X0177272Y0189734D02*
X0177032Y0189734D01*
X0177032Y0188736D02*
X0177272Y0188736D01*
X0177272Y0187737D02*
X0177032Y0187737D01*
X0152230Y0194727D02*
X0136591Y0194727D01*
X0138210Y0195725D02*
X0147199Y0195725D01*
X0151987Y0195725D02*
X0152230Y0195725D01*
X0146924Y0201716D02*
X0138956Y0201716D01*
X0151708Y0203713D02*
X0152597Y0203713D01*
X0132558Y0214697D02*
X0131589Y0214697D01*
X0131589Y0215696D02*
X0132558Y0215696D01*
X0132558Y0216694D02*
X0131589Y0216694D01*
X0131589Y0217693D02*
X0132558Y0217693D01*
X0124707Y0219690D02*
X0121475Y0219690D01*
X0121475Y0220688D02*
X0124957Y0220688D01*
X0125500Y0221687D02*
X0121475Y0221687D01*
X0159357Y0221687D02*
X0170382Y0221687D01*
X0169839Y0220688D02*
X0159601Y0220688D01*
X0159601Y0219690D02*
X0169589Y0219690D01*
X0176471Y0217693D02*
X0177440Y0217693D01*
X0177440Y0216694D02*
X0176471Y0216694D01*
X0176471Y0215696D02*
X0177440Y0215696D01*
X0177440Y0214697D02*
X0176471Y0214697D01*
X0184322Y0219690D02*
X0184404Y0219690D01*
X0184404Y0220688D02*
X0184072Y0220688D01*
X0184404Y0221687D02*
X0183529Y0221687D01*
X0136107Y0190733D02*
X0130009Y0190733D01*
X0125857Y0165770D02*
X0121475Y0165770D01*
X0121475Y0164771D02*
X0124859Y0164771D01*
X0124272Y0163773D02*
X0121475Y0163773D01*
X0121475Y0162774D02*
X0123858Y0162774D01*
X0123857Y0161776D02*
X0121475Y0161776D01*
X0121475Y0160777D02*
X0123920Y0160777D01*
X0124333Y0159779D02*
X0121475Y0159779D01*
X0121475Y0158780D02*
X0125008Y0158780D01*
X0126204Y0157782D02*
X0121475Y0157782D01*
X0138028Y0164771D02*
X0139360Y0164771D01*
D21*
X0165932Y0149252D03*
X0173310Y0150331D03*
X0184727Y0159780D03*
X0188373Y0166969D03*
X0188073Y0173165D03*
X0176656Y0181433D03*
X0170656Y0176811D03*
X0200790Y0160724D03*
X0211995Y0159094D03*
X0211995Y0154173D03*
X0214948Y0150236D03*
X0221459Y0144976D03*
X0218885Y0140394D03*
X0215932Y0136457D03*
X0216538Y0130213D03*
X0203743Y0132181D03*
X0190341Y0133504D03*
X0180790Y0133402D03*
X0190341Y0151220D03*
X0213963Y0170906D03*
X0152940Y0145315D03*
X0147034Y0145315D03*
X0149790Y0131535D03*
X0214570Y0115449D03*
D22*
X0211995Y0119724D02*
X0209042Y0116772D01*
X0163420Y0116772D01*
X0154577Y0125614D01*
X0154577Y0131244D01*
X0154286Y0131535D01*
X0149790Y0131535D01*
X0154577Y0125614D02*
X0150814Y0121850D01*
X0131444Y0121850D01*
X0161636Y0139677D02*
X0161636Y0144886D01*
X0154672Y0151850D01*
X0131444Y0151850D01*
X0131444Y0161850D02*
X0139948Y0161850D01*
X0143097Y0165000D01*
X0143097Y0172480D01*
X0147428Y0176811D01*
X0157664Y0176811D01*
X0157172Y0177303D01*
X0157172Y0182520D01*
X0157664Y0176811D02*
X0170656Y0176811D01*
X0168097Y0190197D02*
X0154711Y0190197D01*
X0154711Y0198858D01*
X0149593Y0198858D02*
X0149357Y0199094D01*
X0132073Y0199094D01*
X0132073Y0209094D02*
X0147625Y0209094D01*
X0149593Y0207126D01*
X0154711Y0207126D02*
X0154711Y0217362D01*
X0156680Y0219331D01*
X0155696Y0208110D02*
X0160814Y0208110D01*
X0175971Y0208110D01*
X0176955Y0209094D01*
X0176955Y0199094D02*
X0176719Y0198858D01*
X0173018Y0198858D01*
X0168097Y0193937D01*
X0168097Y0190197D01*
X0154711Y0207126D02*
X0155696Y0208110D01*
X0139751Y0187933D02*
X0126365Y0187933D01*
X0126365Y0183012D02*
X0139751Y0183012D01*
X0167506Y0153386D02*
X0167506Y0150826D01*
X0165932Y0149252D01*
X0177743Y0153386D02*
X0183451Y0153386D01*
X0185617Y0151220D01*
X0190341Y0151220D01*
X0190341Y0159094D01*
X0194806Y0163559D01*
X0194963Y0163559D01*
X0194963Y0166571D02*
X0194963Y0171165D01*
X0196672Y0172874D01*
X0211995Y0172874D01*
X0213963Y0170906D01*
X0205105Y0157126D02*
X0204711Y0156732D01*
X0196247Y0156732D01*
X0196247Y0151614D02*
X0195853Y0151220D01*
X0190341Y0151220D01*
X0196247Y0139016D02*
X0199593Y0139016D01*
X0202152Y0136457D01*
X0205105Y0136457D01*
X0211995Y0142362D02*
X0211995Y0119724D01*
X0206089Y0126614D02*
X0203136Y0126614D01*
X0199593Y0123071D01*
X0196247Y0123071D01*
X0195656Y0127598D02*
X0196247Y0128189D01*
X0196247Y0133898D01*
X0195853Y0133504D01*
X0190341Y0133504D01*
X0211995Y0142362D02*
X0214948Y0145315D01*
D23*
X0190341Y0133504D02*
X0184491Y0127654D01*
X0178633Y0127654D01*
X0173570Y0132717D01*
X0164751Y0132717D01*
X0161636Y0135831D01*
X0161636Y0139677D01*
X0167506Y0153386D02*
X0169278Y0153386D01*
X0172625Y0156732D01*
X0172625Y0161850D01*
X0174432Y0163657D01*
X0174432Y0168465D01*
M02*
