256047,358.6647,14:0,3,Note on,37,64,
256047,358.6660,129:1,3,Note on,37,64,
256047,358.6674,14:0,4,Note on,37,64,
256047,358.6692,129:1,4,Note on,37,64,
256377,358.8366,14:0,4,Note off,37,0,
256377,358.8396,129:1,4,Note off,37,0,
256491,358.8953,14:0,4,Note on,37,64,
256491,358.8985,129:1,4,Note on,37,64,
256827,359.0704,14:0,4,Note off,37,0,
256827,359.0740,129:1,4,Note off,37,0,
256946,359.1329,14:0,4,Note on,41,64,
256946,359.1373,129:1,4,Note on,41,64,
257278,359.3059,14:0,4,Note off,41,0,
257278,359.3137,129:1,4,Note off,41,0,
257387,359.3632,14:0,4,Note on,41,64,
257387,359.3703,129:1,4,Note on,41,64,
257731,359.5413,14:0,4,Note off,41,0,
257731,359.5489,129:1,4,Note off,41,0,
257838,359.5980,14:0,3,Note off,37,0,
257838,359.6040,129:1,3,Note off,37,0,
257838,359.6068,14:0,3,Note on,36,64,
257838,359.6116,129:1,3,Note on,36,64,
257838,359.6157,14:0,4,Note on,36,64,
257838,359.6190,129:1,4,Note on,36,64,
258178,359.7751,14:0,4,Note off,36,0,
258178,359.7808,129:1,4,Note off,36,0,
258290,359.8325,14:0,4,Note on,36,64,
258290,359.8379,129:1,4,Note on,36,64,
258622,360.0061,14:0,4,Note off,36,0,
258622,360.0156,129:1,4,Note off,36,0,
258743,360.0689,14:0,4,Note on,43,64,
258743,360.0759,129:1,4,Note on,43,64,
259077,360.2429,14:0,4,Note off,43,0,
259077,360.2540,129:1,4,Note off,43,0,
259186,360.3001,14:0,4,Note on,35,64,
259186,360.3125,129:1,4,Note on,35,64,
259528,360.4777,14:0,4,Note off,35,0,
259528,360.4891,129:1,4,Note off,35,0,
259637,360.5346,14:0,3,Note off,36,0,
259637,360.5415,129:1,3,Note off,36,0,
259637,360.5507,14:0,3,Note on,35,64,
259637,360.5581,129:1,3,Note on,35,64,
259637,360.5653,14:0,4,Note on,35,64,
259637,360.5712,129:1,4,Note on,35,64,
259970,360.7074,14:0,4,Note off,35,0,
259970,360.7195,129:1,4,Note off,35,0,
260089,360.7896,14:0,4,Note on,40,64,
260089,360.8031,129:1,4,Note on,40,64,
260421,360.9432,14:0,4,Note off,40,0,
260421,360.9568,129:1,4,Note off,40,0,
260532,361.0077,14:0,4,Note on,40,64,
260532,361.0160,129:1,4,Note on,40,64,
260874,361.1791,14:0,4,Note off,40,0,
260874,361.1898,129:1,4,Note off,40,0,
260985,361.2392,14:0,4,Note on,33,64,
260985,361.2479,129:1,4,Note on,33,64,
261325,361.4134,14:0,4,Note off,33,0,
261325,361.4268,129:1,4,Note off,33,0,
261436,361.4780,14:0,3,Note off,35,0,
261436,361.4868,129:1,3,Note off,35,0,
261436,361.4942,14:0,3,Note on,40,64,
261436,361.5023,129:1,3,Note on,40,64,
261436,361.5106,14:0,4,Note on,40,64,
261436,361.5187,129:1,4,Note on,40,64,
261771,361.6456,14:0,4,Note off,40,0,
261771,361.6608,129:1,4,Note off,40,0,
261880,361.7200,14:0,4,Note on,40,64,
261880,361.7308,129:1,4,Note on,40,64,
262220,361.8798,14:0,4,Note off,40,0,
262220,361.8948,129:1,4,Note off,40,0,
262331,361.9504,14:0,4,Note on,37,64,
262331,361.9583,129:1,4,Note on,37,64,
262671,362.1150,14:0,4,Note off,37,0,
262671,362.1268,129:1,4,Note off,37,0,
262782,362.1880,14:0,4,Note on,37,64,
262782,362.1966,129:1,4,Note on,37,64,
263115,362.3454,14:0,4,Note off,37,0,
263115,362.3579,129:1,4,Note off,37,0,
263234,362.4184,14:0,3,Note off,40,0,
263234,362.4270,129:1,3,Note off,40,0,
263234,362.4368,14:0,3,Note on,41,64,
263234,362.4442,129:1,3,Note on,41,64,
263234,362.4531,14:0,4,Note on,41,64,
263234,362.4605,129:1,4,Note on,41,64,
263566,362.5805,14:0,4,Note off,41,0,
263566,362.5899,129:1,4,Note off,41,0,
263677,362.6431,14:0,4,Note on,41,64,
263677,362.6521,129:1,4,Note on,41,64,
264019,362.8163,14:0,4,Note off,41,0,
264019,362.8278,129:1,4,Note off,41,0,
264128,362.8760,14:0,4,Note on,36,64,
264128,362.8844,129:1,4,Note on,36,64,
264470,363.0519,14:0,4,Note off,36,0,
264470,363.0668,129:1,4,Note off,36,0,
264581,363.1172,14:0,4,Note on,43,64,
264581,363.1251,129:1,4,Note on,43,64,
264914,363.2824,14:0,4,Note off,43,0,
264914,363.2967,129:1,4,Note off,43,0,
265033,363.3523,14:0,3,Note off,41,0,
265033,363.3601,129:1,3,Note off,41,0,
265033,363.3688,14:0,3,Note on,43,64,
265033,363.3763,129:1,3,Note on,43,64,
265033,363.3891,14:0,4,Note on,43,64,
265033,363.3963,129:1,4,Note on,43,64,
265365,363.5173,14:0,4,Note off,43,0,
265365,363.5291,129:1,4,Note off,43,0,
265480,363.5803,14:0,4,Note on,35,64,
265480,363.5896,129:1,4,Note on,35,64,
265808,363.7491,14:0,4,Note off,35,0,
265808,363.7597,129:1,4,Note off,35,0,
265929,363.8189,14:0,4,Note on,35,64,
265929,363.8313,129:1,4,Note on,35,64,
266260,363.9839,14:0,4,Note off,35,0,
266260,363.9919,129:1,4,Note off,35,0,
266380,364.0466,14:0,4,Note on,40,64,
266380,364.0563,129:1,4,Note on,40,64,
266711,364.2185,14:0,4,Note off,40,0,
266711,364.2297,129:1,4,Note off,40,0,
266820,364.2923,14:0,3,Note off,43,0,
266820,364.3018,129:1,3,Note off,43,0,
266820,364.3093,14:0,3,Note on,33,64,
266820,364.3188,129:1,3,Note on,33,64,
266820,364.3272,14:0,4,Note on,33,64,
266820,364.3362,129:1,4,Note on,33,64,
267160,364.4526,14:0,4,Note off,33,0,
267160,364.4675,129:1,4,Note off,33,0,
267269,364.5314,14:0,4,Note on,33,64,
267269,364.5408,129:1,4,Note on,33,64,
267609,364.6868,14:0,4,Note off,33,0,
267609,364.6946,129:1,4,Note off,33,0,
267719,364.7514,14:0,4,Note on,40,64,
267719,364.7597,129:1,4,Note on,40,64,
268060,364.9213,14:0,4,Note off,40,0,
268060,364.9364,129:1,4,Note off,40,0,
268170,364.9916,14:0,4,Note on,40,64,
268170,365.0011,129:1,4,Note on,40,64,
268514,365.1576,14:0,4,Note off,40,0,
268514,365.1691,129:1,4,Note off,40,0,
268623,365.2293,14:0,3,Note off,33,0,
268623,365.2379,129:1,3,Note off,33,0,
268623,365.2462,14:0,3,Note on,37,64,
268623,365.2546,129:1,3,Note on,37,64,
268623,365.2623,14:0,4,Note on,37,64,
268623,365.2708,129:1,4,Note on,37,64,
268955,365.3875,14:0,4,Note off,37,0,
268955,365.3952,129:1,4,Note off,37,0,
269074,365.4573,14:0,4,Note on,37,64,
269074,365.4662,129:1,4,Note on,37,64,
269410,365.6250,14:0,4,Note off,37,0,
269410,365.6359,129:1,4,Note off,37,0,
269520,365.7008,14:0,4,Note on,41,64,
269520,365.7105,129:1,4,Note on,41,64,
269858,365.8578,14:0,4,Note off,41,0,
269858,365.8671,129:1,4,Note off,41,0,
269967,365.9274,14:0,4,Note on,36,64,
269967,365.9359,129:1,4,Note on,36,64,
270309,366.0927,14:0,4,Note off,36,0,
270309,366.1067,129:1,4,Note off,36,0,
270418,366.1670,14:0,3,Note off,37,0,
270418,366.1781,129:1,3,Note off,37,0,
270418,366.1883,14:0,3,Note on,36,64,
270418,366.1966,129:1,3,Note on,36,64,
270418,366.2059,14:0,4,Note on,36,64,
270418,366.2132,129:1,4,Note on,36,64,
270758,366.3266,14:0,4,Note off,36,0,
270758,366.3360,129:1,4,Note off,36,0,
270869,366.4005,14:0,4,Note on,43,64,
270869,366.4097,129:1,4,Note on,43,64,
271200,366.5571,14:0,4,Note off,43,0,
271200,366.5716,129:1,4,Note off,43,0,
271321,366.6334,14:0,4,Note on,43,64,
271321,366.6417,129:1,4,Note on,43,64,
271651,366.7919,14:0,4,Note off,43,0,
271651,366.8063,129:1,4,Note off,43,0,
271772,366.8661,14:0,4,Note on,35,64,
271772,366.8759,129:1,4,Note on,35,64,
272100,367.0261,14:0,4,Note off,35,0,
272100,367.0377,129:1,4,Note off,35,0,
272219,367.1015,14:0,3,Note off,36,0,
272219,367.1113,129:1,3,Note off,36,0,
272219,367.1209,14:0,3,Note on,40,64,
272219,367.1292,129:1,3,Note on,40,64,
272219,367.1386,14:0,4,Note on,40,64,
272219,367.1480,129:1,4,Note on,40,64,
272549,367.2596,14:0,4,Note off,40,0,
272549,367.2693,129:1,4,Note off,40,0,
272668,367.3353,14:0,4,Note on,40,64,
272668,367.3446,129:1,4,Note on,40,64,
272999,367.4939,14:0,4,Note off,40,0,
272999,367.5083,129:1,4,Note off,40,0,
273110,367.5759,14:0,4,Note on,33,64,
273110,367.5870,129:1,4,Note on,33,64,
273452,367.7298,14:0,4,Note off,33,0,
273452,367.7414,129:1,4,Note off,33,0,
273561,367.8169,14:0,4,Note on,33,64,
273561,367.8268,129:1,4,Note on,33,64,
273903,367.9645,14:0,4,Note off,33,0,
273903,367.9779,129:1,4,Note off,33,0,
274012,368.0511,14:0,3,Note off,40,0,
274012,368.0599,129:1,3,Note off,40,0,
274012,368.0688,14:0,3,Note on,40,64,
274012,368.0773,129:1,3,Note on,40,64,
274012,368.0861,14:0,4,Note on,40,64,
274012,368.0944,129:1,4,Note on,40,64,
274352,368.1982,14:0,4,Note off,40,0,
274352,368.2092,129:1,4,Note off,40,0,
274464,368.2756,14:0,4,Note on,40,64,
274464,368.2849,129:1,4,Note on,40,64,
274804,368.4335,14:0,4,Note off,40,0,
274804,368.4469,129:1,4,Note off,40,0,
274913,368.5103,14:0,4,Note on,37,64,
274913,368.5195,129:1,4,Note on,37,64,
275243,368.6628,14:0,4,Note off,37,0,
275243,368.6717,129:1,4,Note off,37,0,
275364,368.7388,14:0,4,Note on,41,64,
275364,368.7479,129:1,4,Note on,41,64,
275696,368.8984,14:0,4,Note off,41,0,
275696,368.9102,129:1,4,Note off,41,0,
275815,368.9754,14:0,3,Note off,40,0,
275815,368.9849,129:1,3,Note off,40,0,
275815,368.9926,14:0,3,Note on,41,64,
275815,369.0013,129:1,3,Note on,41,64,
275815,369.0088,14:0,4,Note on,41,64,
275815,369.0168,129:1,4,Note on,41,64,
276144,369.1318,14:0,4,Note off,41,0,
276144,369.1451,129:1,4,Note off,41,0,
276263,369.2185,14:0,4,Note on,36,64,
276263,369.2275,129:1,4,Note on,36,64,
276595,369.3666,14:0,4,Note off,36,0,
276595,369.3814,129:1,4,Note off,36,0,
276704,369.4628,14:0,4,Note on,36,64,
276704,369.4728,129:1,4,Note on,36,64,
277046,369.6017,14:0,4,Note off,36,0,
277046,369.6165,129:1,4,Note off,36,0,
277156,369.7000,14:0,4,Note on,43,64,
277156,369.7084,129:1,4,Note on,43,64,
277497,369.8371,14:0,4,Note off,43,0,
277497,369.8486,129:1,4,Note off,43,0,
277607,369.9249,14:0,3,Note off,41,0,
277607,369.9364,129:1,3,Note off,41,0,
277607,369.9454,14:0,3,Note on,35,64,
277607,369.9554,129:1,3,Note on,35,64,
277607,369.9654,14:0,4,Note on,35,64,
277607,369.9741,129:1,4,Note on,35,64,
277947,370.0709,14:0,4,Note off,35,0,
277947,370.0805,129:1,4,Note off,35,0,
278058,370.1600,14:0,4,Note on,35,64,
278058,370.1721,129:1,4,Note on,35,64,
278388,370.3010,14:0,4,Note off,35,0,
278388,370.3098,129:1,4,Note off,35,0,
278509,370.3885,14:0,4,Note on,40,64,
278509,370.3969,129:1,4,Note on,40,64,
278839,370.5359,14:0,4,Note off,40,0,
278839,370.5462,129:1,4,Note off,40,0,
278953,370.6260,14:0,4,Note on,40,64,
278953,370.6349,129:1,4,Note on,40,64,
279292,370.7714,14:0,4,Note off,40,0,
279292,370.7819,129:1,4,Note off,40,0,
279402,370.8623,14:0,3,Note off,35,0,
279402,370.8718,129:1,3,Note off,35,0,
279402,370.8796,14:0,3,Note on,33,64,
279402,370.8882,129:1,3,Note on,33,64,
279402,370.8969,14:0,4,Note on,33,64,
279402,370.9065,129:1,4,Note on,33,64,
279740,371.0067,14:0,4,Note off,33,0,
279740,371.0217,129:1,4,Note off,33,0,
279851,371.1026,14:0,4,Note on,40,64,
279851,371.1148,129:1,4,Note on,40,64,
280189,371.2387,14:0,4,Note off,40,0,
280189,371.2493,129:1,4,Note off,40,0,
280299,371.3386,14:0,4,Note on,40,64,
280299,371.3487,129:1,4,Note on,40,64,
280638,371.4883,14:0,4,Note off,40,0,
280638,371.4993,129:1,4,Note off,40,0,
280748,371.5837,14:0,4,Note on,37,64,
280748,371.5979,129:1,4,Note on,37,64,
281090,371.7075,14:0,4,Note off,37,0,
281090,371.7199,129:1,4,Note off,37,0,
281199,371.8144,14:0,3,Note off,33,0,
281199,371.8247,129:1,3,Note off,33,0,
281199,371.8346,14:0,3,Note on,37,64,
281199,371.8434,129:1,3,Note on,37,64,
281199,371.8534,14:0,4,Note on,37,64,
281199,371.8647,129:1,4,Note on,37,64,
281539,371.9423,14:0,4,Note off,37,0,
281539,371.9544,129:1,4,Note off,37,0,
281648,372.0367,14:0,4,Note on,41,64,
281648,372.0764,129:1,4,Note on,41,64,
281988,372.1802,14:0,4,Note off,41,0,
281988,372.2127,129:1,4,Note off,41,0,
282098,372.3335,14:0,4,Note on,41,64,
282098,372.3467,129:1,4,Note on,41,64,
282436,372.4314,14:0,4,Note off,41,0,
282436,372.4404,129:1,4,Note off,41,0,
282547,372.5193,14:0,4,Note on,36,64,
282547,372.5289,129:1,4,Note on,36,64,
282885,372.6430,14:0,4,Note off,36,0,
282885,372.6560,129:1,4,Note off,36,0,
282996,372.7425,14:0,3,Note off,37,0,
282996,372.7522,129:1,3,Note off,37,0,
282996,372.7634,14:0,3,Note on,43,64,
282996,372.7710,129:1,3,Note on,43,64,
282996,372.7820,14:0,4,Note on,43,64,
282996,372.7899,129:1,4,Note on,43,64,
283334,372.8769,14:0,4,Note off,43,0,
283334,372.8902,129:1,4,Note off,43,0,
283445,372.9745,14:0,4,Note on,43,64,
283445,372.9842,129:1,4,Note on,43,64,
283785,373.1116,14:0,4,Note off,43,0,
283785,373.1263,129:1,4,Note off,43,0,
283895,373.2210,14:0,4,Note on,35,64,
283895,373.2309,129:1,4,Note on,35,64,
284235,373.3454,14:0,4,Note off,35,0,
284235,373.3589,129:1,4,Note off,35,0,
284344,373.4506,14:0,4,Note on,35,64,
284344,373.4628,129:1,4,Note on,35,64,
284682,373.5782,14:0,4,Note off,35,0,
284682,373.5959,129:1,4,Note off,35,0,
284797,373.6975,14:0,3,Note off,43,0,
284797,373.7088,129:1,3,Note off,43,0,
284797,373.7193,14:0,3,Note on,40,64,
284797,373.7299,129:1,3,Note on,40,64,
284797,373.7407,14:0,4,Note on,40,64,
284797,373.7596,129:1,4,Note on,40,64,
285137,373.8877,14:0,4,Note off,40,0,
285137,373.8993,129:1,4,Note off,40,0,
285246,373.9129,14:0,4,Note on,33,64,
285246,373.9209,129:1,4,Note on,33,64,
285584,374.0489,14:0,4,Note off,33,0,
285584,374.0587,129:1,4,Note off,33,0,
285694,374.1457,14:0,4,Note on,33,64,
285694,374.1599,129:1,4,Note on,33,64,
286032,374.2818,14:0,4,Note off,33,0,
286032,374.2993,129:1,4,Note off,33,0,
286141,374.3854,14:0,4,Note on,40,64,
286141,374.3969,129:1,4,Note on,40,64,
286481,374.5153,14:0,4,Note off,40,0,
286481,374.5238,129:1,4,Note off,40,0,
286590,374.6134,14:0,3,Note off,40,0,
286590,374.6229,129:1,3,Note off,40,0,
286590,374.6359,14:0,3,Note on,40,64,
286590,374.6435,129:1,3,Note on,40,64,
286590,374.6518,14:0,4,Note on,40,64,
286590,374.6590,129:1,4,Note on,40,64,
286930,374.7493,14:0,4,Note off,40,0,
286930,374.7588,129:1,4,Note off,40,0,
287038,374.8389,14:0,4,Note on,37,64,
287040,374.8488,129:1,4,Note on,37,64,
287378,374.9827,14:0,4,Note off,37,0,
287378,374.9912,129:1,4,Note off,37,0,
287487,375.0787,14:0,4,Note on,37,64,
287487,375.0897,129:1,4,Note on,37,64,
287825,375.2157,14:0,4,Note off,37,0,
287825,375.2271,129:1,4,Note off,37,0,
287944,375.3135,14:0,4,Note on,41,64,
287944,375.3231,129:1,4,Note on,41,64,
288274,375.4499,14:0,4,Note off,41,0,
288274,375.4623,129:1,4,Note off,41,0,
288395,375.5690,14:0,3,Note off,40,0,
288395,375.5782,129:1,3,Note off,40,0,
288395,375.5890,14:0,3,Note on,36,64,
288395,375.5985,129:1,3,Note on,36,64,
288395,375.6128,14:0,4,Note on,36,64,
288395,375.6246,129:1,4,Note on,36,64,
288727,375.7225,14:0,4,Note off,36,0,
288727,375.7320,129:1,4,Note off,36,0,
288837,375.8350,14:0,4,Note on,36,64,
288837,375.8457,129:1,4,Note on,36,64,
289175,375.9546,14:0,4,Note off,36,0,
289175,375.9656,129:1,4,Note off,36,0,
289284,376.0577,14:0,4,Note on,43,64,
289284,376.0688,129:1,4,Note on,43,64,
289624,376.1657,14:0,4,Note off,43,0,
289624,376.1744,129:1,4,Note off,43,0,
289733,376.2734,14:0,4,Note on,43,64,
289733,376.2845,129:1,4,Note on,43,64,
290071,376.3860,14:0,4,Note off,43,0,
290071,376.3979,129:1,4,Note off,43,0,
290190,376.4811,14:0,3,Note off,36,0,
290190,376.4899,129:1,3,Note off,36,0,
290190,376.4978,14:0,3,Note on,35,64,
290190,376.5051,129:1,3,Note on,35,64,
290190,376.5124,14:0,4,Note on,35,64,
290190,376.5203,129:1,4,Note on,35,64,
290519,376.6187,14:0,4,Note off,35,0,
290519,376.6316,129:1,4,Note off,35,0,
290638,376.7138,14:0,4,Note on,40,64,
290638,376.7233,129:1,4,Note on,40,64,
290976,376.8569,14:0,4,Note off,40,0,
290976,376.8691,129:1,4,Note off,40,0,
291087,376.9546,14:0,4,Note on,40,64,
291087,376.9640,129:1,4,Note on,40,64,
291427,377.0918,14:0,4,Note off,40,0,
291427,377.1060,129:1,4,Note off,40,0,
291538,377.1979,14:0,4,Note on,33,64,
291538,377.2064,129:1,4,Note on,33,64,
291867,377.3230,14:0,4,Note off,33,0,
291867,377.3350,129:1,4,Note off,33,0,
291986,377.4224,14:0,3,Note off,35,0,
291986,377.4333,129:1,3,Note off,35,0,
291986,377.4448,14:0,3,Note on,33,64,
291986,377.4517,129:1,3,Note on,33,64,
291986,377.4586,14:0,4,Note on,33,64,
291986,377.4670,129:1,4,Note on,33,64,
292325,377.5683,14:0,4,Note off,33,0,
292325,377.5799,129:1,4,Note off,33,0,
292431,377.6811,14:0,4,Note on,40,64,
292431,377.6919,129:1,4,Note on,40,64,
292769,377.8001,14:0,4,Note off,40,0,
292769,377.8109,129:1,4,Note off,40,0,
292880,377.9157,14:0,4,Note on,40,64,
292880,377.9256,129:1,4,Note on,40,64,
293218,378.0327,14:0,4,Note off,40,0,
293218,378.0442,129:1,4,Note off,40,0,
293328,378.1474,14:0,4,Note on,37,64,
293328,378.1606,129:1,4,Note on,37,64,
293668,378.2590,14:0,4,Note off,37,0,
293668,378.2687,129:1,4,Note off,37,0,
293787,378.3659,14:0,3,Note off,33,0,
293787,378.3767,129:1,3,Note off,33,0,
293787,378.3869,14:0,3,Note on,41,64,
293787,378.3982,129:1,3,Note on,41,64,
293787,378.4066,14:0,4,Note on,41,64,
293787,378.4155,129:1,4,Note on,41,64,
294115,378.5187,14:0,4,Note off,41,0,
294115,378.5277,129:1,4,Note off,41,0,
294234,378.6252,14:0,4,Note on,41,64,
294234,378.6389,129:1,4,Note on,41,64,
294572,378.7370,14:0,4,Note off,41,0,
294572,378.7469,129:1,4,Note off,41,0,
294681,378.8401,14:0,4,Note on,36,64,
294681,378.8518,129:1,4,Note on,36,64,
295021,379.0003,14:0,4,Note off,36,0,
295021,379.0132,129:1,4,Note off,36,0,
295131,379.0282,14:0,4,Note on,36,64,
295131,379.0408,129:1,4,Note on,36,64,
295470,379.1977,14:0,4,Note off,36,0,
295470,379.2088,129:1,4,Note off,36,0,
295580,379.3096,14:0,3,Note off,41,0,
295580,379.3215,129:1,3,Note off,41,0,
295580,379.3308,14:0,3,Note on,43,64,
295580,379.3391,129:1,3,Note on,43,64,
295580,379.3473,14:0,4,Note on,43,64,
295580,379.3545,129:1,4,Note on,43,64,
295920,379.4590,14:0,4,Note off,43,0,
295920,379.4684,129:1,4,Note off,43,0,
296029,379.5615,14:0,4,Note on,35,64,
296029,379.5759,129:1,4,Note on,35,64,
296361,379.6807,14:0,4,Note off,35,0,
296361,379.6937,129:1,4,Note off,35,0,
296480,379.8043,14:0,4,Note on,35,64,
296480,379.8170,129:1,4,Note on,35,64,
296809,379.9295,14:0,4,Note off,35,0,
296809,379.9409,129:1,4,Note off,35,0,
296928,380.0357,14:0,4,Note on,40,64,
296928,380.0460,129:1,4,Note on,40,64,
297266,380.1526,14:0,4,Note off,40,0,
297266,380.1956,129:1,4,Note off,40,0,
297375,380.3124,14:0,3,Note off,43,0,
297375,380.3250,129:1,3,Note off,43,0,
297375,380.3338,14:0,3,Note on,40,64,
297375,380.3429,129:1,3,Note on,40,64,
297375,380.3537,14:0,4,Note on,40,64,
297375,380.3617,129:1,4,Note on,40,64,
297717,380.3704,14:0,4,Note off,40,0,
297717,380.3779,129:1,4,Note off,40,0,
297824,380.4873,14:0,4,Note on,33,64,
297824,380.4963,129:1,4,Note on,33,64,
298164,380.6003,14:0,4,Note off,33,0,
298164,380.6095,129:1,4,Note off,33,0,
298274,380.7132,14:0,4,Note on,33,64,
298274,380.7211,129:1,4,Note on,33,64,
298610,380.8329,14:0,4,Note off,33,0,
298610,380.8457,129:1,4,Note off,33,0,
298719,380.9440,14:0,4,Note on,40,64,
298719,380.9526,129:1,4,Note on,40,64,
299059,381.0671,14:0,4,Note off,40,0,
299059,381.0768,129:1,4,Note off,40,0,
299178,381.1907,14:0,3,Note off,40,0,
299178,381.2018,129:1,3,Note off,40,0,
299178,381.2142,14:0,3,Note on,37,64,
299178,381.2219,129:1,3,Note on,37,64,
299178,381.2335,14:0,4,Note on,37,64,
299178,381.2408,129:1,4,Note on,37,64,
299506,381.3449,14:0,4,Note off,37,0,
299506,381.3561,129:1,4,Note off,37,0,
299627,381.4766,14:0,4,Note on,37,64,
299627,381.5117,129:1,4,Note on,37,64,
299956,381.6378,14:0,4,Note off,37,0,
299956,381.6504,129:1,4,Note off,37,0,
300073,381.6585,14:0,4,Note on,41,64,
300073,381.6669,129:1,4,Note on,41,64,
300403,381.7695,14:0,4,Note off,41,0,
300403,381.7799,129:1,4,Note off,41,0,
300522,381.8981,14:0,4,Note on,41,64,
300522,381.9078,129:1,4,Note on,41,64,
300860,382.0131,14:0,4,Note off,41,0,
300860,382.0235,129:1,4,Note off,41,0,
300971,382.1272,14:0,3,Note off,37,0,
300971,382.1387,129:1,3,Note off,37,0,
300971,382.1501,14:0,3,Note on,36,64,
300971,382.1585,129:1,3,Note on,36,64,
300971,382.1685,14:0,4,Note on,36,64,
300971,382.1772,129:1,4,Note on,36,64,
301311,382.2937,14:0,4,Note off,36,0,
301311,382.3027,129:1,4,Note off,36,0,
301420,382.3114,14:0,4,Note on,43,64,
301420,382.3219,129:1,4,Note on,43,64,
301753,382.4698,14:0,4,Note off,43,0,
301753,382.4779,129:1,4,Note off,43,0,
301874,382.5897,14:0,4,Note on,43,64,
301874,382.5981,129:1,4,Note on,43,64,
302204,382.7047,14:0,4,Note off,43,0,
302204,382.7147,129:1,4,Note off,43,0,
302313,382.8272,14:0,4,Note on,35,64,
302313,382.8361,129:1,4,Note on,35,64,
302653,382.9414,14:0,4,Note off,35,0,
302653,382.9523,129:1,4,Note off,35,0,
302764,383.0792,14:0,3,Note off,36,0,
302764,383.1117,129:1,3,Note off,36,0,
302764,383.1214,14:0,3,Note on,35,64,
302764,383.1307,129:1,3,Note on,35,64,
302764,383.1395,14:0,4,Note on,35,64,
302764,383.1498,129:1,4,Note on,35,64,
303104,383.2766,14:0,4,Note off,35,0,
303104,383.2901,129:1,4,Note off,35,0,
303214,383.3058,14:0,4,Note on,40,64,
303214,383.3137,129:1,4,Note on,40,64,
303554,383.4195,14:0,4,Note off,40,0,
303554,383.4282,129:1,4,Note off,40,0,
303663,383.5382,14:0,4,Note on,33,64,
303663,383.5476,129:1,4,Note on,33,64,
304003,383.6515,14:0,4,Note off,33,0,
304003,383.6595,129:1,4,Note off,33,0,
304112,383.7635,14:0,4,Note on,33,64,
304112,383.7736,129:1,4,Note on,33,64,
304452,383.9020,14:0,4,Note off,33,0,
304452,383.9106,129:1,4,Note off,33,0,
304564,384.0210,14:0,3,Note off,35,0,
304564,384.0301,129:1,3,Note off,35,0,
304564,384.0379,14:0,3,Note on,40,64,
304564,384.0466,129:1,3,Note on,40,64,
304564,384.0544,14:0,4,Note on,40,64,
304564,384.0619,129:1,4,Note on,40,64,
304903,384.1917,14:0,4,Note off,40,0,
304903,384.2004,129:1,4,Note off,40,0,
305013,384.2088,14:0,4,Note on,40,64,
305013,384.2171,129:1,4,Note on,40,64,
305355,384.3454,14:0,4,Note off,40,0,
305355,384.3543,129:1,4,Note off,40,0,
305464,384.4648,14:0,4,Note on,37,64,
305464,384.4731,129:1,4,Note on,37,64,
305794,384.5928,14:0,4,Note off,37,0,
305794,384.6015,129:1,4,Note off,37,0,
305913,384.7084,14:0,4,Note on,37,64,
305913,384.7170,129:1,4,Note on,37,64,
306253,384.8345,14:0,4,Note off,37,0,
306253,384.8436,129:1,4,Note off,37,0,
306363,384.9537,14:0,3,Note off,40,0,
306363,384.9629,129:1,3,Note off,40,0,
306363,384.9711,14:0,3,Note on,41,64,
306363,384.9785,129:1,3,Note on,41,64,
306363,384.9877,14:0,4,Note on,41,64,
306363,384.9958,129:1,4,Note on,41,64,
306693,385.1170,14:0,4,Note off,41,0,
306693,385.1257,129:1,4,Note off,41,0,
306814,385.1342,14:0,4,Note on,36,64,
306814,385.1412,129:1,4,Note on,36,64,
307142,385.2768,14:0,4,Note off,36,0,
307142,385.2888,129:1,4,Note off,36,0,
307261,385.4099,14:0,4,Note on,36,64,
307261,385.4217,129:1,4,Note on,36,64,
307601,385.5469,14:0,4,Note off,36,0,
307601,385.5569,129:1,4,Note off,36,0,
307710,385.6815,14:0,4,Note on,43,64,
307710,385.6938,129:1,4,Note on,43,64,
308050,385.8244,14:0,4,Note off,43,0,
308050,385.8345,129:1,4,Note off,43,0,
308162,385.8434,14:0,3,Note off,41,0,
308162,385.8538,129:1,3,Note off,41,0,
308162,385.8627,14:0,3,Note on,43,64,
308162,385.8721,129:1,3,Note on,43,64,
308162,385.8801,14:0,4,Note on,43,64,
308162,385.8885,129:1,4,Note on,43,64,
308492,386.0138,14:0,4,Note off,43,0,
308492,386.0524,129:1,4,Note off,43,0,
308611,386.1798,14:0,4,Note on,35,64,
308611,386.1934,129:1,4,Note on,35,64,
308941,386.3120,14:0,4,Note off,35,0,
308941,386.3213,129:1,4,Note off,35,0,
309062,386.3301,14:0,4,Note on,40,64,
309062,386.3377,129:1,4,Note on,40,64,
309392,386.4504,14:0,4,Note off,40,0,
309392,386.4638,129:1,4,Note off,40,0,
309511,386.5885,14:0,4,Note on,40,64,
309511,386.5976,129:1,4,Note on,40,64,
309838,386.7471,14:0,4,Note off,40,0,
309838,386.7601,129:1,4,Note off,40,0,
309959,386.7714,14:0,3,Note off,43,0,
309959,386.7944,129:1,3,Note off,43,0,
309959,386.8043,14:0,3,Note on,33,64,
309959,386.8143,129:1,3,Note on,33,64,
309959,386.8303,14:0,4,Note on,33,64,
309959,386.8426,129:1,4,Note on,33,64,
310297,386.9773,14:0,4,Note off,33,0,
310297,386.9880,129:1,4,Note off,33,0,
310406,386.9976,14:0,4,Note on,33,64,
310406,387.0077,129:1,4,Note on,33,64,
310738,387.1735,14:0,4,Note off,33,0,
310738,387.1830,129:1,4,Note off,33,0,
310857,387.3480,14:0,4,Note on,40,64,
310857,387.3575,129:1,4,Note on,40,64,
311188,387.4990,14:0,4,Note off,40,0,
311188,387.5107,129:1,4,Note off,40,0,
311308,387.5207,14:0,4,Note on,40,64,
311308,387.5308,129:1,4,Note on,40,64,
311643,387.6723,14:0,4,Note off,40,0,
311643,387.6824,129:1,4,Note off,40,0,
311752,387.6925,14:0,3,Note off,33,0,
311752,387.7030,129:1,3,Note off,33,0,
311752,387.7146,14:0,3,Note on,37,64,
311752,387.7247,129:1,3,Note on,37,64,
311752,387.7357,14:0,4,Note on,37,64,
311752,387.7451,129:1,4,Note on,37,64,
312092,387.9004,14:0,4,Note off,37,0,
312092,387.9146,129:1,4,Note off,37,0,
312201,387.9271,14:0,4,Note on,41,64,
312201,387.9347,129:1,4,Note on,41,64,
312539,388.0881,14:0,4,Note off,41,0,
312539,388.0992,129:1,4,Note off,41,0,
312649,388.2375,14:0,4,Note on,41,64,
312649,388.2480,129:1,4,Note on,41,64,
312989,388.3838,14:0,4,Note off,41,0,
312989,388.3960,129:1,4,Note off,41,0,
313098,388.4031,14:0,4,Note on,36,64,
313098,388.4112,129:1,4,Note on,36,64,
313438,388.5560,14:0,4,Note off,36,0,
313438,388.5645,129:1,4,Note off,36,0,
313549,388.6889,14:0,3,Note off,37,0,
313549,388.6995,129:1,3,Note off,37,0,
313549,388.7092,14:0,3,Note on,36,64,
313549,388.7182,129:1,3,Note on,36,64,
313549,388.7269,14:0,4,Note on,36,64,
313549,388.7363,129:1,4,Note on,36,64,
313889,388.8686,14:0,4,Note off,36,0,
313889,388.8767,129:1,4,Note off,36,0,
313998,388.8842,14:0,4,Note on,43,64,
313998,388.8918,129:1,4,Note on,43,64,
314338,389.0250,14:0,4,Note off,43,0,
314338,389.0347,129:1,4,Note off,43,0,
314448,389.1632,14:0,4,Note on,35,64,
314448,389.1738,129:1,4,Note on,35,64,
314786,389.3040,14:0,4,Note off,35,0,
314786,389.3147,129:1,4,Note off,35,0,
314895,389.3228,14:0,4,Note on,35,64,
314895,389.3318,129:1,4,Note on,35,64,
315235,389.4912,14:0,4,Note off,35,0,
315235,389.5010,129:1,4,Note off,35,0,
315344,389.6412,14:0,3,Note off,36,0,
315344,389.6508,129:1,3,Note off,36,0,
315344,389.6588,14:0,3,Note on,40,64,
315344,389.6669,129:1,3,Note on,40,64,
315344,389.6753,14:0,4,Note on,40,64,
315344,389.6843,129:1,4,Note on,40,64,
315678,389.8354,14:0,4,Note off,40,0,
315678,389.8468,129:1,4,Note off,40,0,
315799,389.8558,14:0,4,Note on,40,64,
315799,389.8668,129:1,4,Note on,40,64,
316128,389.9914,14:0,4,Note off,40,0,
316128,390.0028,129:1,4,Note off,40,0,
316249,390.1493,14:0,4,Note on,33,64,
316249,390.1648,129:1,4,Note on,33,64,
316587,390.3046,14:0,4,Note off,33,0,
316587,390.3138,129:1,4,Note off,33,0,
316696,390.3218,14:0,4,Note on,33,64,
316696,390.3299,129:1,4,Note on,33,64,
317026,390.4586,14:0,4,Note off,33,0,
317026,390.4704,129:1,4,Note off,33,0,
317145,390.5975,14:0,3,Note off,40,0,
317145,390.6054,129:1,3,Note off,40,0,
317145,390.6143,14:0,3,Note on,40,64,
317145,390.6219,129:1,3,Note on,40,64,
317145,390.6308,14:0,4,Note on,40,64,
317145,390.6382,129:1,4,Note on,40,64,
317477,390.7794,14:0,4,Note off,40,0,
317477,390.7890,129:1,4,Note off,40,0,
317597,390.7977,14:0,4,Note on,37,64,
317597,390.8059,129:1,4,Note on,37,64,
317927,390.9383,14:0,4,Note off,37,0,
317927,390.9491,129:1,4,Note off,37,0,
318046,390.9641,14:0,4,Note on,37,64,
318046,390.9724,129:1,4,Note on,37,64,
318374,391.1268,14:0,4,Note off,37,0,
318374,391.1369,129:1,4,Note off,37,0,
318493,391.2799,14:0,4,Note on,41,64,
318493,391.2898,129:1,4,Note on,41,64,
318833,391.4536,14:0,4,Note off,41,0,
318833,391.4659,129:1,4,Note off,41,0,
318942,391.4733,14:0,3,Note off,40,0,
318942,391.4813,129:1,3,Note off,40,0,
318942,391.4890,14:0,3,Note on,41,64,
318942,391.4973,129:1,3,Note on,41,64,
318942,391.5049,14:0,4,Note on,41,64,
318942,391.5129,129:1,4,Note on,41,64,
319275,391.6484,14:0,4,Note off,41,0,
319275,391.6585,129:1,4,Note off,41,0,
319392,391.6690,14:0,4,Note on,36,64,
319392,391.6803,129:1,4,Note on,36,64,
319730,391.8395,14:0,4,Note off,36,0,
319730,391.8501,129:1,4,Note off,36,0,
319839,391.9884,14:0,4,Note on,43,64,
319839,391.9975,129:1,4,Note on,43,64,
320179,392.1293,14:0,4,Note off,43,0,
320179,392.1379,129:1,4,Note off,43,0,
320288,392.1457,14:0,4,Note on,43,64,
320288,392.1538,129:1,4,Note on,43,64,
320630,392.3026,14:0,4,Note off,43,0,
320630,392.3157,129:1,4,Note off,43,0,
320740,392.4572,14:0,3,Note off,41,0,
320740,392.4685,129:1,3,Note off,41,0,
320740,392.4781,14:0,3,Note on,35,64,
320740,392.4870,129:1,3,Note on,35,64,
320740,392.4958,14:0,4,Note on,35,64,
320740,392.5041,129:1,4,Note on,35,64,
321079,392.6563,14:0,4,Note off,35,0,
321079,392.6691,129:1,4,Note off,35,0,
321191,392.6788,14:0,4,Note on,35,64,
321191,392.6885,129:1,4,Note on,35,64,
321519,392.8412,14:0,4,Note off,35,0,
321519,392.8519,129:1,4,Note off,35,0,
321640,392.8666,14:0,4,Note on,40,64,
321640,392.8775,129:1,4,Note on,40,64,
321978,393.0339,14:0,4,Note off,40,0,
321978,393.0468,129:1,4,Note off,40,0,
322087,393.1942,14:0,4,Note on,40,64,
322087,393.2033,129:1,4,Note on,40,64,
322427,393.3527,14:0,4,Note off,40,0,
322427,393.3615,129:1,4,Note off,40,0,
322537,393.3694,14:0,3,Note off,35,0,
322537,393.3775,129:1,3,Note off,35,0,
322537,393.3859,14:0,3,Note on,33,64,
322537,393.3931,129:1,3,Note on,33,64,
322537,393.4011,14:0,4,Note on,33,64,
322537,393.4091,129:1,4,Note on,33,64,
322867,393.5476,14:0,4,Note off,33,0,
322867,393.5554,129:1,4,Note off,33,0,
322986,393.5643,14:0,4,Note on,40,64,
322986,393.5720,129:1,4,Note on,40,64,
323326,393.7089,14:0,4,Note off,40,0,
323326,393.7175,129:1,4,Note off,40,0,
323435,393.9169,14:0,4,Note on,40,64,
323435,393.9258,129:1,4,Note on,40,64,
323773,394.0619,14:0,4,Note off,40,0,
323773,394.0714,129:1,4,Note off,40,0,
323885,394.0816,14:0,4,Note on,37,64,
323885,394.0891,129:1,4,Note on,37,64,
324224,394.2345,14:0,4,Note off,37,0,
324224,394.2436,129:1,4,Note off,37,0,
324334,394.2527,14:0,3,Note off,33,0,
324334,394.2613,129:1,3,Note off,33,0,
324334,394.2704,14:0,3,Note on,37,64,
324334,394.2791,129:1,3,Note on,37,64,
324334,394.2926,14:0,4,Note on,37,64,
324334,394.3025,129:1,4,Note on,37,64,
324672,394.4526,14:0,4,Note off,37,0,
324672,394.4610,129:1,4,Note off,37,0,
324783,394.4689,14:0,4,Note on,41,64,
324783,394.4769,129:1,4,Note on,41,64,
325123,394.6413,14:0,4,Note off,41,0,
325123,394.6551,129:1,4,Note off,41,0,
325232,394.8026,14:0,4,Note on,36,64,
325232,394.8147,129:1,4,Note on,36,64,
325563,394.9631,14:0,4,Note off,36,0,
325563,394.9762,129:1,4,Note off,36,0,
325682,394.9849,14:0,4,Note on,36,64,
325682,394.9938,129:1,4,Note on,36,64,
326021,395.1508,14:0,4,Note off,36,0,
326021,395.1637,129:1,4,Note off,36,0,
326133,395.1801,14:0,3,Note off,37,0,
326133,395.1962,129:1,3,Note off,37,0,
326133,395.2072,14:0,3,Note on,43,64,
326133,395.2177,129:1,3,Note on,43,64,
326133,395.2253,14:0,4,Note on,43,64,
326133,395.2345,129:1,4,Note on,43,64,
326471,395.3901,14:0,4,Note off,43,0,
326471,395.4012,129:1,4,Note off,43,0,
326580,395.4095,14:0,4,Note on,43,64,
326580,395.4177,129:1,4,Note on,43,64,
326910,395.5751,14:0,4,Note off,43,0,
326910,395.5880,129:1,4,Note off,43,0,
327026,395.7340,14:0,4,Note on,35,64,
327026,395.7422,129:1,4,Note on,35,64,
327365,395.9482,14:0,4,Note off,35,0,
327365,395.9581,129:1,4,Note off,35,0,
327475,395.9688,14:0,4,Note on,40,64,
327475,395.9772,129:1,4,Note on,40,64,
327813,396.1236,14:0,4,Note off,40,0,
327813,396.1334,129:1,4,Note off,40,0,
327922,396.1419,14:0,3,Note off,43,0,
327922,396.1535,129:1,3,Note off,43,0,
327922,396.1629,14:0,3,Note on,40,64,
327922,396.1758,129:1,3,Note on,40,64,
327922,396.1897,14:0,4,Note on,40,64,
327922,396.1984,129:1,4,Note on,40,64,
328260,396.3597,14:0,4,Note off,40,0,
328260,396.3735,129:1,4,Note off,40,0,
328381,396.3821,14:0,4,Note on,33,64,
328381,396.3901,129:1,4,Note on,33,64,
328709,396.5498,14:0,4,Note off,33,0,
328709,396.5610,129:1,4,Note off,33,0,
328830,396.7134,14:0,4,Note on,33,64,
328830,396.7248,129:1,4,Note on,33,64,
329161,396.8864,14:0,4,Note off,33,0,
329161,396.8955,129:1,4,Note off,33,0,
329280,396.9065,14:0,4,Note on,40,64,
329280,396.9153,129:1,4,Note on,40,64,
329610,397.0795,14:0,4,Note off,40,0,
329610,397.0920,129:1,4,Note off,40,0,
329721,397.1060,14:0,3,Note off,40,0,
329721,397.1147,129:1,3,Note off,40,0,
329721,397.1221,14:0,3,Note on,40,64,
329721,397.1338,129:1,3,Note on,40,64,
329721,397.1412,14:0,4,Note on,40,64,
329721,397.1538,129:1,4,Note on,40,64,
330059,397.3369,14:0,4,Note off,40,0,
330059,397.4067,129:1,4,Note off,40,0,
330178,397.4154,14:0,4,Note on,37,64,
330178,397.4317,129:1,4,Note on,37,64,
329786,397.5579,14:0,4,Note off,37,0,
329786,397.5658,129:1,4,Note off,37,0,
329895,397.5717,14:0,4,Note on,41,64,
329895,397.5761,129:1,4,Note on,41,64,
330233,397.6819,14:0,4,Note off,41,0,
330233,397.6901,129:1,4,Note off,41,0,
330354,397.6953,14:0,4,Note on,41,64,
330354,397.7006,129:1,4,Note on,41,64,
330682,397.8441,14:0,4,Note off,41,0,
330682,397.8499,129:1,4,Note off,41,0,
330803,397.9361,14:0,3,Note off,40,0,
330803,397.9417,129:1,3,Note off,40,0,
330803,397.9457,14:0,3,Note on,36,64,
330803,397.9509,129:1,3,Note on,36,64,
330803,397.9553,14:0,4,Note on,36,64,
330803,397.9595,129:1,4,Note on,36,64,
331134,398.0730,14:0,4,Note off,36,0,
331134,398.0823,129:1,4,Note off,36,0,
331243,398.1778,14:0,4,Note on,36,64,
331243,398.1829,129:1,4,Note on,36,64,
331585,398.3077,14:0,4,Note off,36,0,
331585,398.3128,129:1,4,Note off,36,0,
331694,398.4015,14:0,4,Note on,43,64,
331694,398.4080,129:1,4,Note on,43,64,
332036,398.5430,14:0,4,Note off,43,0,
332036,398.5478,129:1,4,Note off,43,0,
332147,398.6409,14:0,4,Note on,35,64,
332147,398.6458,129:1,4,Note on,35,64,
332487,398.7774,14:0,4,Note off,35,0,
332487,398.7825,129:1,4,Note off,35,0,
332597,398.8725,14:0,3,Note off,36,0,
332597,398.8774,129:1,3,Note off,36,0,
332597,398.8823,14:0,3,Note on,35,64,
332597,398.8917,129:1,3,Note on,35,64,
332597,398.8995,14:0,4,Note on,35,64,
332597,398.9053,129:1,4,Note on,35,64,
332929,399.0077,14:0,4,Note off,35,0,
332929,399.0124,129:1,4,Note off,35,0,
333050,399.1057,14:0,4,Note on,40,64,
333050,399.1146,129:1,4,Note on,40,64,
333380,399.2423,14:0,4,Note off,40,0,
333380,399.2469,129:1,4,Note off,40,0,
333489,399.3330,14:0,4,Note on,40,64,
333489,399.3385,129:1,4,Note on,40,64,
333831,399.4780,14:0,4,Note off,40,0,
333831,399.4831,129:1,4,Note off,40,0,
333943,399.5777,14:0,4,Note on,33,64,
333943,399.5829,129:1,4,Note on,33,64,
334284,399.7134,14:0,4,Note off,33,0,
334284,399.7203,129:1,4,Note off,33,0,
334394,399.8282,14:0,3,Note off,35,0,
334394,399.8348,129:1,3,Note off,35,0,
334394,399.8416,14:0,3,Note on,33,64,
334394,399.8476,129:1,3,Note on,33,64,
334394,399.8525,14:0,4,Note on,33,64,
334394,399.8566,129:1,4,Note on,33,64,
334724,399.9439,14:0,4,Note off,33,0,
334724,399.9487,129:1,4,Note off,33,0,
334845,400.0370,14:0,4,Note on,40,64,
334845,400.0422,129:1,4,Note on,40,64,
335177,400.1782,14:0,4,Note off,40,0,
335177,400.1847,129:1,4,Note off,40,0,
335296,400.2795,14:0,4,Note on,37,64,
335296,400.2856,129:1,4,Note on,37,64,
335625,400.4113,14:0,4,Note off,37,0,
335625,400.4168,129:1,4,Note off,37,0,
335744,400.5125,14:0,4,Note on,37,64,
335744,400.5184,129:1,4,Note on,37,64,
336072,400.6445,14:0,4,Note off,37,0,
336072,400.6539,129:1,4,Note off,37,0,
336191,400.7465,14:0,3,Note off,33,0,
336191,400.7548,129:1,3,Note off,33,0,
336191,400.7592,14:0,3,Note on,41,64,
336191,400.7634,129:1,3,Note on,41,64,
336191,400.7684,14:0,4,Note on,41,64,
336191,400.7732,129:1,4,Note on,41,64,
336529,400.8826,14:0,4,Note off,41,0,
336529,400.8874,129:1,4,Note off,41,0,
336638,400.9957,14:0,4,Note on,41,64,
336638,401.0028,129:1,4,Note on,41,64,
336976,401.1158,14:0,4,Note off,41,0,
336976,401.1214,129:1,4,Note off,41,0,
337088,401.2220,14:0,4,Note on,36,64,
337088,401.2282,129:1,4,Note on,36,64,
337424,401.3489,14:0,4,Note off,36,0,
337424,401.3614,129:1,4,Note off,36,0,
337533,401.4583,14:0,4,Note on,43,64,
337533,401.4635,129:1,4,Note on,43,64,
337873,401.5826,14:0,4,Note off,43,0,
337873,401.5899,129:1,4,Note off,43,0,
337982,401.6875,14:0,3,Note off,41,0,
337982,401.6932,129:1,3,Note off,41,0,
337982,401.6987,14:0,3,Note on,43,64,
337982,401.7040,129:1,3,Note on,43,64,
337982,401.7088,14:0,4,Note on,43,64,
337982,401.7134,129:1,4,Note on,43,64,
338320,401.8253,14:0,4,Note off,43,0,
338320,401.8311,129:1,4,Note off,43,0,
338441,401.9221,14:0,4,Note on,35,64,
338441,401.9276,129:1,4,Note on,35,64,
338768,402.0491,14:0,4,Note off,35,0,
338768,402.0597,129:1,4,Note off,35,0,
338889,402.1688,14:0,4,Note on,35,64,
338889,402.1746,129:1,4,Note on,35,64,
339217,402.2828,14:0,4,Note off,35,0,
339217,402.2899,129:1,4,Note off,35,0,
339338,402.3834,14:0,4,Note on,40,64,
339338,402.3895,129:1,4,Note on,40,64,
339676,402.5213,14:0,4,Note off,40,0,
339676,402.5301,129:1,4,Note off,40,0,
339785,402.6298,14:0,3,Note off,43,0,
339785,402.6357,129:1,3,Note off,43,0,
339785,402.6400,14:0,3,Note on,40,64,
339785,402.6444,129:1,3,Note on,40,64,
339785,402.6496,14:0,4,Note on,40,64,
339785,402.6546,129:1,4,Note on,40,64,
340123,402.7545,14:0,4,Note off,40,0,
340123,402.7619,129:1,4,Note off,40,0,
340233,402.8590,14:0,4,Note on,33,64,
340233,402.8641,129:1,4,Note on,33,64,
340570,402.9874,14:0,4,Note off,33,0,
340570,402.9977,129:1,4,Note off,33,0,
340682,403.0989,14:0,4,Note on,40,64,
340682,403.1047,129:1,4,Note on,40,64,
341020,403.2213,14:0,4,Note off,40,0,
341020,403.2261,129:1,4,Note off,40,0,
341129,403.3269,14:0,4,Note on,40,64,
341129,403.3357,129:1,4,Note on,40,64,
341469,403.4554,14:0,4,Note off,40,0,
341469,403.4658,129:1,4,Note off,40,0,
341584,403.5639,14:0,3,Note off,40,0,
341584,403.5696,129:1,3,Note off,40,0,
341584,403.5741,14:0,3,Note on,37,64,
341584,403.5786,129:1,3,Note on,37,64,
341584,403.5833,14:0,4,Note on,37,64,
341584,403.5882,129:1,4,Note on,37,64,
341913,403.6883,14:0,4,Note off,37,0,
341913,403.6931,129:1,4,Note off,37,0,
342032,403.8065,14:0,4,Note on,37,64,
342032,403.8130,129:1,4,Note on,37,64,
342368,403.9241,14:0,4,Note off,37,0,
342368,403.9309,129:1,4,Note off,37,0,
342477,404.0346,14:0,4,Note on,41,64,
342477,404.0408,129:1,4,Note on,41,64,
342817,404.1574,14:0,4,Note off,41,0,
342817,404.1654,129:1,4,Note off,41,0,
342924,404.2775,14:0,4,Note on,36,64,
342924,404.2840,129:1,4,Note on,36,64,
343264,404.3904,14:0,4,Note off,36,0,
343264,404.3979,129:1,4,Note off,36,0,
343383,404.4929,14:0,3,Note off,37,0,
343383,404.4988,129:1,3,Note off,37,0,
343383,404.5038,14:0,3,Note on,36,64,
343383,404.5095,129:1,3,Note on,36,64,
343383,404.5179,14:0,4,Note on,36,64,
343383,404.5239,129:1,4,Note on,36,64,
343710,404.6259,14:0,4,Note off,36,0,
343710,404.6315,129:1,4,Note off,36,0,
343829,404.7296,14:0,4,Note on,43,64,
343829,404.7388,129:1,4,Note on,43,64,
344169,404.8614,14:0,4,Note off,43,0,
344169,404.8710,129:1,4,Note off,43,0,
344278,404.9773,14:0,4,Note on,43,64,
344278,404.9831,129:1,4,Note on,43,64,
344616,405.0949,14:0,4,Note off,43,0,
344616,405.1033,129:1,4,Note off,43,0,
344725,405.2100,14:0,4,Note on,35,64,
344725,405.2161,129:1,4,Note on,35,64,
345063,405.3276,14:0,4,Note off,35,0,
345063,405.3360,129:1,4,Note off,35,0,
345173,405.4424,14:0,3,Note off,36,0,
345173,405.4483,129:1,3,Note off,36,0,
345173,405.4534,14:0,3,Note on,35,64,
345173,405.4605,129:1,3,Note on,35,64,
345173,405.4689,14:0,4,Note on,35,64,
345173,405.4740,129:1,4,Note on,35,64,
345511,405.5793,14:0,4,Note off,35,0,
345511,405.5857,129:1,4,Note off,35,0,
345620,405.6967,14:0,4,Note on,40,64,
345620,405.7034,129:1,4,Note on,40,64,
345956,405.8322,14:0,4,Note off,40,0,
345956,405.8390,129:1,4,Note off,40,0,
346077,405.9508,14:0,4,Note on,33,64,
346077,405.9561,129:1,4,Note on,33,64,
346405,406.0552,14:0,4,Note off,33,0,
346405,406.0601,129:1,4,Note off,33,0,
346524,406.1742,14:0,4,Note on,33,64,
346524,406.1794,129:1,4,Note on,33,64,
346862,406.2917,14:0,4,Note off,33,0,
346862,406.2972,129:1,4,Note off,33,0,
346972,406.3964,14:0,3,Note off,35,0,
346972,406.4025,129:1,3,Note off,35,0,
346972,406.4069,14:0,3,Note on,40,64,
346972,406.4112,129:1,3,Note on,40,64,
346972,406.4161,14:0,4,Note on,40,64,
346972,406.4207,129:1,4,Note on,40,64,
347310,406.5168,14:0,4,Note off,40,0,
347310,406.5224,129:1,4,Note off,40,0,
347421,406.6207,14:0,4,Note on,40,64,
347421,406.6254,129:1,4,Note on,40,64,
347757,406.7308,14:0,4,Note off,40,0,
347757,406.7381,129:1,4,Note off,40,0,
347866,406.8426,14:0,4,Note on,37,64,
347866,406.8479,129:1,4,Note on,37,64,
348206,406.9643,14:0,4,Note off,37,0,
348206,406.9739,129:1,4,Note off,37,0,
348325,407.0758,14:0,4,Note on,41,64,
348325,407.0809,129:1,4,Note on,41,64,
348652,407.1968,14:0,4,Note off,41,0,
348652,407.2067,129:1,4,Note off,41,0,
348773,407.3125,14:0,3,Note off,40,0,
348773,407.3193,129:1,3,Note off,40,0,
348773,407.3245,14:0,3,Note on,41,64,
348773,407.3309,129:1,3,Note on,41,64,
348773,407.3377,14:0,4,Note on,41,64,
348773,407.3427,129:1,4,Note on,41,64,
349101,407.4497,14:0,4,Note off,41,0,
349101,407.4546,129:1,4,Note off,41,0,
349220,407.5535,14:0,4,Note on,36,64,
349220,407.5591,129:1,4,Note on,36,64,
349550,407.6651,14:0,4,Note off,36,0,
349550,407.6729,129:1,4,Note off,36,0,
349671,407.7963,14:0,4,Note on,36,64,
349671,407.8032,129:1,4,Note on,36,64,
350009,407.9108,14:0,4,Note off,36,0,
350009,407.9162,129:1,4,Note off,36,0,
350119,408.0153,14:0,4,Note on,43,64,
350119,408.0208,129:1,4,Note on,43,64,
350458,408.1372,14:0,4,Note off,43,0,
350458,408.1455,129:1,4,Note off,43,0,
350568,408.2498,14:0,3,Note off,41,0,
350568,408.2555,129:1,3,Note off,41,0,
350568,408.2600,14:0,3,Note on,35,64,
350568,408.2647,129:1,3,Note on,35,64,
350568,408.2698,14:0,4,Note on,35,64,
350568,408.2745,129:1,4,Note on,35,64,
350904,408.3802,14:0,4,Note off,35,0,
350904,408.3859,129:1,4,Note off,35,0,
351015,408.4908,14:0,4,Note on,35,64,
351015,408.4959,129:1,4,Note on,35,64,
351353,408.6034,14:0,4,Note off,35,0,
351353,408.6100,129:1,4,Note off,35,0,
351463,408.7161,14:0,4,Note on,40,64,
351463,408.7209,129:1,4,Note on,40,64,
351802,408.8375,14:0,4,Note off,40,0,
351802,408.8463,129:1,4,Note off,40,0,
351912,408.9484,14:0,4,Note on,40,64,
351912,408.9539,129:1,4,Note on,40,64,
352252,409.0715,14:0,4,Note off,40,0,
352252,409.0768,129:1,4,Note off,40,0,
352361,409.1993,14:0,3,Note off,35,0,
352361,409.2052,129:1,3,Note off,35,0,
352361,409.2101,14:0,3,Note on,33,64,
352361,409.2148,129:1,3,Note on,33,64,
352361,409.2202,14:0,4,Note on,33,64,
352361,409.2246,129:1,4,Note on,33,64,
352699,409.3305,14:0,4,Note off,33,0,
352699,409.3360,129:1,4,Note off,33,0,
352809,409.4458,14:0,4,Note on,33,64,
352809,409.4514,129:1,4,Note on,33,64,
353154,409.5639,14:0,4,Note off,33,0,
353154,409.5697,129:1,4,Note off,33,0,
353264,409.6750,14:0,4,Note on,40,64,
353264,409.6802,129:1,4,Note on,40,64,
353601,409.8182,14:0,4,Note off,40,0,
353601,409.8248,129:1,4,Note off,40,0,
353711,409.9332,14:0,4,Note on,37,64,
353711,409.9384,129:1,4,Note on,37,64,
354047,410.0435,14:0,4,Note off,37,0,
354047,410.0487,129:1,4,Note off,37,0,
354164,410.1608,14:0,3,Note off,33,0,
354164,410.1666,129:1,3,Note off,33,0,
354164,410.1736,14:0,3,Note on,37,64,
354164,410.1804,129:1,3,Note on,37,64,
354164,410.1871,14:0,4,Note on,37,64,
354164,410.1919,129:1,4,Note on,37,64,
354494,410.3070,14:0,4,Note off,37,0,
354494,410.3122,129:1,4,Note off,37,0,
354613,410.3170,14:0,4,Note on,41,64,
354613,410.3218,129:1,4,Note on,41,64,
354942,410.4727,14:0,4,Note off,41,0,
354942,410.4830,129:1,4,Note off,41,0,
355061,410.5941,14:0,4,Note on,41,64,
355061,410.5995,129:1,4,Note on,41,64,
355399,410.7115,14:0,4,Note off,41,0,
355399,410.7176,129:1,4,Note off,41,0,
355508,410.8328,14:0,4,Note on,36,64,
355508,410.8387,129:1,4,Note on,36,64,
355846,410.9476,14:0,4,Note off,36,0,
355846,410.9536,129:1,4,Note off,36,0,
355955,411.0708,14:0,3,Note off,37,0,
355955,411.0764,129:1,3,Note off,37,0,
355955,411.0818,14:0,3,Note on,43,64,
355955,411.0883,129:1,3,Note on,43,64,
355955,411.0948,14:0,4,Note on,43,64,
355955,411.1010,129:1,4,Note on,43,64,
356295,411.2130,14:0,4,Note off,43,0,
356295,411.2191,129:1,4,Note off,43,0,
356405,411.3366,14:0,4,Note on,43,64,
356405,411.3418,129:1,4,Note on,43,64,
356743,411.4493,14:0,4,Note off,43,0,
356743,411.4546,129:1,4,Note off,43,0,
356852,411.5653,14:0,4,Note on,35,64,
356852,411.5715,129:1,4,Note on,35,64,
357192,411.6915,14:0,4,Note off,35,0,
357192,411.6966,129:1,4,Note off,35,0,
357303,411.8384,14:0,4,Note on,35,64,
357303,411.8436,129:1,4,Note on,35,64,
357641,411.9593,14:0,4,Note off,35,0,
357641,411.9644,129:1,4,Note off,35,0,
357753,411.9709,14:0,3,Note off,43,0,
357753,411.9753,129:1,3,Note off,43,0,
357753,411.9796,14:0,3,Note on,40,64,
357753,411.9844,129:1,3,Note on,40,64,
357753,411.9906,14:0,4,Note on,40,64,
357753,411.9948,129:1,4,Note on,40,64,
358089,412.1123,14:0,4,Note off,40,0,
358089,412.1185,129:1,4,Note off,40,0,
358209,412.2328,14:0,4,Note on,40,64,
358209,412.2382,129:1,4,Note on,40,64,
358538,412.3577,14:0,4,Note off,40,0,
358538,412.3624,129:1,4,Note off,40,0,
358657,412.4761,14:0,4,Note on,33,64,
358657,412.4819,129:1,4,Note on,33,64,
358985,412.5917,14:0,4,Note off,33,0,
358985,412.5967,129:1,4,Note off,33,0,
359106,412.7059,14:0,4,Note on,40,64,
359106,412.7126,129:1,4,Note on,40,64,
359444,412.8228,14:0,4,Note off,40,0,
359444,412.8281,129:1,4,Note off,40,0,
359553,412.9432,14:0,3,Note off,40,0,
359553,412.9489,129:1,3,Note off,40,0,
359553,412.9541,14:0,3,Note on,40,64,
359553,412.9601,129:1,3,Note on,40,64,
359553,412.9668,14:0,4,Note on,40,64,
359553,412.9714,129:1,4,Note on,40,64,
359891,413.0850,14:0,4,Note off,40,0,
359891,413.0916,129:1,4,Note off,40,0,
360001,413.2095,14:0,4,Note on,37,64,
360001,413.2143,129:1,4,Note on,37,64,
360339,413.3275,14:0,4,Note off,37,0,
360339,413.3340,129:1,4,Note off,37,0,
360450,413.4461,14:0,4,Note on,37,64,
360450,413.4525,129:1,4,Note on,37,64,
360786,413.5638,14:0,4,Note off,37,0,
360786,413.5698,129:1,4,Note off,37,0,
360905,413.6822,14:0,4,Note on,41,64,
360905,413.6875,129:1,4,Note on,41,64,
361233,413.8159,14:0,4,Note off,41,0,
361233,413.8221,129:1,4,Note off,41,0,
361353,413.8278,14:0,3,Note off,40,0,
361353,413.8339,129:1,3,Note off,40,0,
361353,413.8405,14:0,3,Note on,36,64,
361353,413.8461,129:1,3,Note on,36,64,
361353,413.8523,14:0,4,Note on,36,64,
361353,413.8566,129:1,4,Note on,36,64,
361681,413.9831,14:0,4,Note off,36,0,
361681,413.9898,129:1,4,Note off,36,0,
361802,414.1104,14:0,4,Note on,36,64,
361802,414.1197,129:1,4,Note on,36,64,
362140,414.2391,14:0,4,Note off,36,0,
362140,414.2444,129:1,4,Note off,36,0,
362249,414.3633,14:0,4,Note on,43,64,
362249,414.3696,129:1,4,Note on,43,64,
362587,414.4800,14:0,4,Note off,43,0,
362587,414.4857,129:1,4,Note off,43,0,
362697,414.5977,14:0,4,Note on,43,64,
362697,414.6031,129:1,4,Note on,43,64,
363034,414.7166,14:0,4,Note off,43,0,
363034,414.7219,129:1,4,Note off,43,0,
363146,414.8335,14:0,3,Note off,36,0,
363146,414.8391,129:1,3,Note off,36,0,
363146,414.8435,14:0,3,Note on,35,64,
363146,414.8482,129:1,3,Note on,35,64,
363146,414.8532,14:0,4,Note on,35,64,
363146,414.8574,129:1,4,Note on,35,64,
363484,414.9835,14:0,4,Note off,35,0,
363484,414.9891,129:1,4,Note off,35,0,
363593,414.9936,14:0,4,Note on,35,64,
363593,414.9982,129:1,4,Note on,35,64,
363933,415.1554,14:0,4,Note off,35,0,
363933,415.1631,129:1,4,Note off,35,0,
364042,415.2777,14:0,4,Note on,40,64,
364042,415.2841,129:1,4,Note on,40,64,
364380,415.4065,14:0,4,Note off,40,0,
364380,415.4119,129:1,4,Note off,40,0,
364490,415.5284,14:0,4,Note on,33,64,
364490,415.5346,129:1,4,Note on,33,64,
364833,415.6515,14:0,4,Note off,33,0,
364833,415.6565,129:1,4,Note off,33,0,
364943,415.7992,14:0,3,Note off,35,0,
364943,415.8098,129:1,3,Note off,35,0,
364943,415.8196,14:0,3,Note on,33,64,
364943,415.8280,129:1,3,Note on,33,64,
364943,415.8374,14:0,4,Note on,33,64,
364943,415.8469,129:1,4,Note on,33,64,
365283,415.9775,14:0,4,Note off,33,0,
365283,415.9837,129:1,4,Note off,33,0,
365390,415.9892,14:0,4,Note on,40,64,
365390,415.9942,129:1,4,Note on,40,64,
365728,416.1118,14:0,4,Note off,40,0,
365728,416.1180,129:1,4,Note off,40,0,
365840,416.2351,14:0,4,Note on,40,64,
365840,416.2406,129:1,4,Note on,40,64,
366177,416.3655,14:0,4,Note off,40,0,
366177,416.3707,129:1,4,Note off,40,0,
366287,416.5034,14:0,4,Note on,37,64,
366287,416.5087,129:1,4,Note on,37,64,
366627,416.6246,14:0,4,Note off,37,0,
366627,416.6304,129:1,4,Note off,37,0,
366746,416.6353,14:0,3,Note off,33,0,
366746,416.6399,129:1,3,Note off,33,0,
366746,416.6442,14:0,3,Note on,41,64,
366746,416.6489,129:1,3,Note on,41,64,
366746,416.6539,14:0,4,Note on,41,64,
366746,416.6581,129:1,4,Note on,41,64,
367074,416.7915,14:0,4,Note off,41,0,
367074,416.7966,129:1,4,Note off,41,0,
367195,416.9186,14:0,4,Note on,41,64,
367195,416.9247,129:1,4,Note on,41,64,
367521,417.0387,14:0,4,Note off,41,0,
367521,417.0435,129:1,4,Note off,41,0,
367642,417.1683,14:0,4,Note on,36,64,
367642,417.1730,129:1,4,Note on,36,64,
367971,417.2913,14:0,4,Note off,36,0,
367971,417.2966,129:1,4,Note off,36,0,
368090,417.4198,14:0,4,Note on,36,64,
368090,417.4249,129:1,4,Note on,36,64,
368428,417.5506,14:0,4,Note off,36,0,
368428,417.5566,129:1,4,Note off,36,0,
368537,417.5619,14:0,3,Note off,41,0,
368537,417.5669,129:1,3,Note off,41,0,
368537,417.5724,14:0,3,Note on,43,64,
368537,417.5770,129:1,3,Note on,43,64,
368537,417.5814,14:0,4,Note on,43,64,
368537,417.5867,129:1,4,Note on,43,64,
368877,417.7306,14:0,4,Note off,43,0,
368877,417.7371,129:1,4,Note off,43,0,
368986,417.8908,14:0,4,Note on,35,64,
368986,417.8966,129:1,4,Note on,35,64,
369324,418.0217,14:0,4,Note off,35,0,
369324,418.0275,129:1,4,Note off,35,0,
369434,418.0324,14:0,4,Note on,35,64,
369434,418.0382,129:1,4,Note on,35,64,
369774,418.1981,14:0,4,Note off,35,0,
369774,418.2077,129:1,4,Note off,35,0,
369883,418.3489,14:0,4,Note on,40,64,
369883,418.3549,129:1,4,Note on,40,64,
370223,418.4835,14:0,4,Note off,40,0,
370223,418.4896,129:1,4,Note off,40,0,
370330,418.4937,14:0,3,Note off,43,0,
370330,418.4992,129:1,3,Note off,43,0,
370330,418.5063,14:0,3,Note on,40,64,
370330,418.5105,129:1,3,Note on,40,64,
370330,418.5151,14:0,4,Note on,40,64,
370330,418.5219,129:1,4,Note on,40,64,
370670,418.6648,14:0,4,Note off,40,0,
370670,418.6711,129:1,4,Note off,40,0,
370780,418.7949,14:0,4,Note on,33,64,
370780,418.8010,129:1,4,Note on,33,64,
371118,418.9202,14:0,4,Note off,33,0,
371118,418.9251,129:1,4,Note off,33,0,
371237,419.0514,14:0,4,Note on,33,64,
371237,419.0572,129:1,4,Note on,33,64,
371565,419.1881,14:0,4,Note off,33,0,
371565,419.1931,129:1,4,Note off,33,0,
371684,419.1975,14:0,4,Note on,40,64,
371684,419.2026,129:1,4,Note on,40,64,
372016,419.3655,14:0,4,Note off,40,0,
372016,419.3763,129:1,4,Note off,40,0,
372135,419.4989,14:0,3,Note off,40,0,
372135,419.5050,129:1,3,Note off,40,0,
372135,419.5097,14:0,3,Note on,37,64,
372135,419.5148,129:1,3,Note on,37,64,
372135,419.5200,14:0,4,Note on,37,64,
372135,419.5242,129:1,4,Note on,37,64,
372465,419.6482,14:0,4,Note off,37,0,
372465,419.6536,129:1,4,Note off,37,0,
372585,419.7857,14:0,4,Note on,37,64,
372585,419.7925,129:1,4,Note on,37,64,
372922,419.9496,14:0,4,Note off,37,0,
372922,419.9550,129:1,4,Note off,37,0,
373032,419.9595,14:0,4,Note on,41,64,
373032,419.9638,129:1,4,Note on,41,64,
373370,420.0910,14:0,4,Note off,41,0,
373370,420.0976,129:1,4,Note off,41,0,
373479,420.2252,14:0,4,Note on,41,64,
373479,420.2311,129:1,4,Note on,41,64,
373817,420.3677,14:0,4,Note off,41,0,
373817,420.3743,129:1,4,Note off,41,0,
373927,420.3807,14:0,3,Note off,37,0,
373927,420.3876,129:1,3,Note off,37,0,
373927,420.3938,14:0,3,Note on,36,64,
373927,420.4002,129:1,3,Note on,36,64,
373927,420.4064,14:0,4,Note on,36,64,
373927,420.4133,129:1,4,Note on,36,64,
374265,420.5515,14:0,4,Note off,36,0,
374265,420.5569,129:1,4,Note off,36,0,
374374,420.6897,14:0,4,Note on,43,64,
374374,420.6945,129:1,4,Note on,43,64,
374712,420.8140,14:0,4,Note off,43,0,
374712,420.8193,129:1,4,Note off,43,0,
374831,420.9506,14:0,4,Note on,43,64,
374831,420.9560,129:1,4,Note on,43,64,
375159,421.0754,14:0,4,Note off,43,0,
375159,421.0803,129:1,4,Note off,43,0,
375278,421.0871,14:0,4,Note on,35,64,
375278,421.0925,129:1,4,Note on,35,64,
375616,421.2407,14:0,4,Note off,35,0,
375616,421.2506,129:1,4,Note off,35,0,
375726,421.3765,14:0,3,Note off,36,0,
375726,421.3822,129:1,3,Note off,36,0,
375726,421.3877,14:0,3,Note on,35,64,
375726,421.3933,129:1,3,Note on,35,64,
375726,421.3986,14:0,4,Note on,35,64,
375726,421.4040,129:1,4,Note on,35,64,
376064,421.5254,14:0,4,Note off,35,0,
376064,421.5318,129:1,4,Note off,35,0,
376177,421.5366,14:0,4,Note on,40,64,
376177,421.5434,129:1,4,Note on,40,64,
376511,421.7068,14:0,4,Note off,40,0,
376511,421.7176,129:1,4,Note off,40,0,
376620,421.8645,14:0,4,Note on,40,64,
376620,421.8707,129:1,4,Note on,40,64,
376958,422.0039,14:0,4,Note off,40,0,
376958,422.0092,129:1,4,Note off,40,0,
377077,422.0140,14:0,4,Note on,33,64,
377077,422.0185,129:1,4,Note on,33,64,
377406,422.1729,14:0,4,Note off,33,0,
377406,422.1829,129:1,4,Note off,33,0,
377527,422.3113,14:0,3,Note off,35,0,
377527,422.3172,129:1,3,Note off,35,0,
377527,422.3219,14:0,3,Note on,40,64,
377527,422.3269,129:1,3,Note on,40,64,
377527,422.3338,14:0,4,Note on,40,64,
377527,422.3406,129:1,4,Note on,40,64,
377863,422.4736,14:0,4,Note off,40,0,
377863,422.4784,129:1,4,Note off,40,0,
377972,422.4836,14:0,4,Note on,40,64,
377972,422.4885,129:1,4,Note on,40,64,
378312,422.6444,14:0,4,Note off,40,0,
378312,422.6541,129:1,4,Note off,40,0,
378421,422.7807,14:0,4,Note on,37,64,
378421,422.7861,129:1,4,Note on,37,64,
378757,422.9154,14:0,4,Note off,37,0,
378757,422.9210,129:1,4,Note off,37,0,
378869,423.0494,14:0,4,Note on,37,64,
378869,423.0547,129:1,4,Note on,37,64,
379205,423.1843,14:0,4,Note off,37,0,
379205,423.1899,129:1,4,Note off,37,0,
379324,423.1945,14:0,3,Note off,40,0,
379324,423.1989,129:1,3,Note off,40,0,
379324,423.2038,14:0,3,Note on,41,64,
379324,423.2079,129:1,3,Note on,41,64,
379324,423.2125,14:0,4,Note on,41,64,
379324,423.2169,129:1,4,Note on,41,64,
379662,423.3474,14:0,4,Note off,41,0,
379662,423.3548,129:1,4,Note off,41,0,
379771,423.4814,14:0,4,Note on,36,64,
379771,423.4873,129:1,4,Note on,36,64,
380107,423.6119,14:0,4,Note off,36,0,
380107,423.6171,129:1,4,Note off,36,0,
380217,423.7407,14:0,4,Note on,36,64,
380217,423.7464,129:1,4,Note on,36,64,
380553,423.8865,14:0,4,Note off,36,0,
380553,423.8922,129:1,4,Note off,36,0,
380672,423.8969,14:0,4,Note on,43,64,
380672,423.9018,129:1,4,Note on,43,64,
381000,424.0451,14:0,4,Note off,43,0,
381000,424.0555,129:1,4,Note off,43,0,
381121,424.1924,14:0,3,Note off,41,0,
381121,424.1975,129:1,3,Note off,41,0,
381121,424.2027,14:0,3,Note on,43,64,
381121,424.2080,129:1,3,Note on,43,64,
381121,424.2147,14:0,4,Note on,43,64,
381121,424.2199,129:1,4,Note on,43,64,
381449,424.3462,14:0,4,Note off,43,0,
381449,424.3521,129:1,4,Note off,43,0,
381568,424.3568,14:0,4,Note on,35,64,
381568,424.3610,129:1,4,Note on,35,64,
381908,424.5172,14:0,4,Note off,35,0,
381908,424.5267,129:1,4,Note off,35,0,
382017,424.6581,14:0,4,Note on,35,64,
382017,424.6637,129:1,4,Note on,35,64,
382353,424.7944,14:0,4,Note off,35,0,
382353,424.8002,129:1,4,Note off,35,0,
382463,424.9276,14:0,4,Note on,40,64,
382463,424.9334,129:1,4,Note on,40,64,
382801,425.0652,14:0,4,Note off,40,0,
382801,425.0711,129:1,4,Note off,40,0,
382920,425.0762,14:0,3,Note off,43,0,
382920,425.0805,129:1,3,Note off,43,0,
382920,425.0875,14:0,3,Note on,33,64,
382920,425.0941,129:1,3,Note on,33,64,
382920,425.1005,14:0,4,Note on,33,64,
382920,425.1073,129:1,4,Note on,33,64,
383246,425.2484,14:0,4,Note off,33,0,
383246,425.2539,129:1,4,Note off,33,0,
383365,425.3977,14:0,4,Note on,33,64,
383365,425.4035,129:1,4,Note on,33,64,
383703,425.5362,14:0,4,Note off,33,0,
383703,425.5414,129:1,4,Note off,33,0,
383818,425.5456,14:0,4,Note on,40,64,
383818,425.5512,129:1,4,Note on,40,64,
384153,425.6869,14:0,4,Note off,40,0,
384153,425.6956,129:1,4,Note off,40,0,
384264,425.8522,14:0,4,Note on,40,64,
384264,425.8589,129:1,4,Note on,40,64,
384602,425.9995,14:0,4,Note off,40,0,
384602,426.0053,129:1,4,Note off,40,0,
384711,426.0107,14:0,3,Note off,33,0,
384711,426.0163,129:1,3,Note off,33,0,
384711,426.0215,14:0,3,Note on,37,64,
384711,426.0267,129:1,3,Note on,37,64,
384711,426.0313,14:0,4,Note on,37,64,
384711,426.0367,129:1,4,Note on,37,64,
385051,426.1809,14:0,4,Note off,37,0,
385051,426.1866,129:1,4,Note off,37,0,
385161,426.3200,14:0,4,Note on,41,64,
385161,426.3249,129:1,4,Note on,41,64,
385498,426.4764,14:0,4,Note off,41,0,
385498,426.4825,129:1,4,Note off,41,0,
385610,426.4881,14:0,4,Note on,41,64,
385610,426.4924,129:1,4,Note on,41,64,
385946,426.6328,14:0,4,Note off,41,0,
385946,426.6386,129:1,4,Note off,41,0,
386055,426.7809,14:0,4,Note on,36,64,
386055,426.7865,129:1,4,Note on,36,64,
386393,426.9250,14:0,4,Note off,36,0,
386393,426.9317,129:1,4,Note off,36,0,
386512,426.9369,14:0,3,Note off,37,0,
386512,426.9439,129:1,3,Note off,37,0,
386512,426.9512,14:0,3,Note on,36,64,
386512,426.9575,129:1,3,Note on,36,64,
386512,426.9620,14:0,4,Note on,36,64,
386512,426.9666,129:1,4,Note on,36,64,
386842,427.1134,14:0,4,Note off,36,0,
386842,427.1191,129:1,4,Note off,36,0,
386963,427.2535,14:0,4,Note on,43,64,
386963,427.2585,129:1,4,Note on,43,64,
387290,427.3935,14:0,4,Note off,43,0,
387290,427.4005,129:1,4,Note off,43,0,
387411,427.4054,14:0,4,Note on,43,64,
387411,427.4128,129:1,4,Note on,43,64,
387747,427.5587,14:0,4,Note off,43,0,
387747,427.5675,129:1,4,Note off,43,0,
387856,427.7134,14:0,4,Note on,35,64,
387856,427.7192,129:1,4,Note on,35,64,
388196,427.9149,14:0,4,Note off,35,0,
388196,427.9208,129:1,4,Note off,35,0,
388305,427.9252,14:0,3,Note off,36,0,
388305,427.9316,129:1,3,Note off,36,0,
388305,427.9366,14:0,3,Note on,40,64,
388305,427.9409,129:1,3,Note on,40,64,
388305,427.9454,14:0,4,Note on,40,64,
388305,427.9504,129:1,4,Note on,40,64,
388643,428.0943,14:0,4,Note off,40,0,
388643,428.1032,129:1,4,Note off,40,0,
388753,428.1116,14:0,4,Note on,40,64,
388753,428.1181,129:1,4,Note on,40,64,
389091,428.2590,14:0,4,Note off,40,0,
389091,428.2682,129:1,4,Note off,40,0,
389202,428.4158,14:0,4,Note on,33,64,
389202,428.4233,129:1,4,Note on,33,64,
389544,428.5697,14:0,4,Note off,33,0,
389544,428.5761,129:1,4,Note off,33,0,
389651,428.5830,14:0,4,Note on,33,64,
389651,428.5891,129:1,4,Note on,33,64,
389989,428.7266,14:0,4,Note off,33,0,
389989,428.7342,129:1,4,Note off,33,0,
390105,428.8721,14:0,3,Note off,40,0,
390105,428.8776,129:1,3,Note off,40,0,
390105,428.8822,14:0,3,Note on,40,64,
390105,428.8877,129:1,3,Note on,40,64,
390105,428.8944,14:0,4,Note on,40,64,
390105,428.9002,129:1,4,Note on,40,64,
390439,429.0430,14:0,4,Note off,40,0,
390439,429.0495,129:1,4,Note off,40,0,
390548,429.0550,14:0,4,Note on,37,64,
390548,429.0605,129:1,4,Note on,37,64,
390886,429.2057,14:0,4,Note off,37,0,
390886,429.2106,129:1,4,Note off,37,0,
390999,429.3575,14:0,4,Note on,37,64,
390999,429.3687,129:1,4,Note on,37,64,
391335,429.5081,14:0,4,Note off,37,0,
391335,429.5145,129:1,4,Note off,37,0,
391449,429.5195,14:0,4,Note on,41,64,
391449,429.5239,129:1,4,Note on,41,64,
391788,429.6638,14:0,4,Note off,41,0,
391788,429.6708,129:1,4,Note off,41,0,
391898,429.8196,14:0,3,Note off,40,0,
391898,429.8256,129:1,3,Note off,40,0,
