%
M48
M72
T01C0.01575
T02C0.01969
T03C0.03937
%
T01
X214570Y115449
X216538Y130213
X215932Y136457
X218885Y140394
X221459Y144976
X214948Y150236
X211995Y154173
X211995Y159094
X200790Y160724
X188373Y166969
X188073Y173165
X176656Y181433
X170656Y176811
X184727Y159780
X190341Y151220
X173310Y150331
X165932Y149252
X152940Y145315
X147034Y145315
X149790Y131535
X180790Y133402
X190341Y133504
X203743Y132181
X213963Y170906
T02
X162093Y182520
X157172Y182520
X139751Y183012
X139751Y187933
X126365Y187933
X126365Y183012
T03
X131444Y171850
X131444Y161850
X131444Y151850
X131444Y141850
X131444Y131850
X131444Y121850
X132073Y199094
X132073Y209094
X132073Y219094
X176955Y219094
X176955Y209094
X176955Y199094
M30
