G75*
%MOIN*%
%OFA0B0*%
%FSLAX25Y25*%
%IPPOS*%
%LPD*%
%AMOC8*
5,1,8,0,0,1.08239X$1,22.5*
%
%ADD10R,0.05512X0.06299*%
%ADD11R,0.03150X0.03150*%
%ADD12R,0.03543X0.02756*%
%ADD13R,0.01370X0.05500*%
%ADD14R,0.02756X0.03543*%
%ADD15R,0.11811X0.00984*%
%ADD16R,0.04724X0.02165*%
%ADD17C,0.00744*%
D10*
X0194963Y0166571D03*
X0205987Y0166571D03*
D11*
X0206089Y0120709D03*
X0206089Y0126614D03*
X0205105Y0136457D03*
X0205105Y0142362D03*
X0205105Y0151220D03*
X0205105Y0157126D03*
D12*
X0196247Y0156732D03*
X0196247Y0151614D03*
X0196247Y0139016D03*
X0196247Y0133898D03*
X0196247Y0128189D03*
X0196247Y0123071D03*
X0178633Y0122535D03*
X0178633Y0127654D03*
X0160814Y0208110D03*
X0160814Y0213228D03*
D13*
X0161636Y0168465D03*
X0159077Y0168465D03*
X0156518Y0168465D03*
X0153959Y0168465D03*
X0151400Y0168465D03*
X0148841Y0168465D03*
X0164196Y0168465D03*
X0166755Y0168465D03*
X0169314Y0168465D03*
X0171873Y0168465D03*
X0174432Y0168465D03*
X0176991Y0168465D03*
X0179550Y0168465D03*
X0182109Y0168465D03*
X0182109Y0139677D03*
X0179550Y0139677D03*
X0176991Y0139677D03*
X0174432Y0139677D03*
X0171873Y0139677D03*
X0169314Y0139677D03*
X0166755Y0139677D03*
X0164196Y0139677D03*
X0161636Y0139677D03*
X0159077Y0139677D03*
X0156518Y0139677D03*
X0153959Y0139677D03*
X0151400Y0139677D03*
X0148841Y0139677D03*
D14*
X0154577Y0131244D03*
X0159696Y0131244D03*
X0154711Y0190197D03*
X0149593Y0190197D03*
X0149593Y0198858D03*
X0154711Y0198858D03*
X0154711Y0207126D03*
X0149593Y0207126D03*
D15*
X0231680Y0171890D03*
X0231680Y0169921D03*
X0231680Y0167953D03*
X0231680Y0165984D03*
X0231680Y0164016D03*
X0231680Y0162047D03*
X0231680Y0160079D03*
X0231680Y0158110D03*
X0231680Y0156142D03*
X0231680Y0154173D03*
X0231680Y0152205D03*
X0231680Y0150236D03*
X0231680Y0148268D03*
X0231680Y0146299D03*
X0231680Y0144331D03*
X0231680Y0142362D03*
X0231680Y0140394D03*
X0231680Y0138425D03*
X0231680Y0136457D03*
X0231680Y0134488D03*
X0231680Y0132520D03*
X0231680Y0130551D03*
X0231680Y0128583D03*
X0231680Y0126614D03*
X0231680Y0124646D03*
X0231680Y0122677D03*
X0231680Y0120709D03*
X0231680Y0118740D03*
X0231680Y0116772D03*
X0231680Y0114803D03*
D16*
X0177743Y0153386D03*
X0177743Y0157126D03*
X0177743Y0160866D03*
X0167506Y0160866D03*
X0167506Y0153386D03*
D17*
X0167229Y0188935D02*
X0168965Y0188935D01*
X0167229Y0188935D02*
X0167229Y0191459D01*
X0168965Y0191459D01*
X0168965Y0188935D01*
X0168965Y0189678D02*
X0167229Y0189678D01*
X0167229Y0190421D02*
X0168965Y0190421D01*
X0168965Y0191164D02*
X0167229Y0191164D01*
X0176284Y0188935D02*
X0178020Y0188935D01*
X0176284Y0188935D02*
X0176284Y0191459D01*
X0178020Y0191459D01*
X0178020Y0188935D01*
X0178020Y0189678D02*
X0176284Y0189678D01*
X0176284Y0190421D02*
X0178020Y0190421D01*
X0178020Y0191164D02*
X0176284Y0191164D01*
X0157548Y0220593D02*
X0155812Y0220593D01*
X0157548Y0220593D02*
X0157548Y0218069D01*
X0155812Y0218069D01*
X0155812Y0220593D01*
X0155812Y0218812D02*
X0157548Y0218812D01*
X0157548Y0219555D02*
X0155812Y0219555D01*
X0155812Y0220298D02*
X0157548Y0220298D01*
X0148493Y0220593D02*
X0146757Y0220593D01*
X0148493Y0220593D02*
X0148493Y0218069D01*
X0146757Y0218069D01*
X0146757Y0220593D01*
X0146757Y0218812D02*
X0148493Y0218812D01*
X0148493Y0219555D02*
X0146757Y0219555D01*
X0146757Y0220298D02*
X0148493Y0220298D01*
M02*
