G75*
%MOIN*%
%OFA0B0*%
%FSLAX25Y25*%
%IPPOS*%
%LPD*%
%AMOC8*
5,1,8,0,0,1.08239X$1,22.5*
%
%ADD10C,0.06506*%
%ADD11C,0.03969*%
%ADD12C,0.03575*%
D10*
X0128491Y0121850D02*
X0134396Y0121850D01*
X0134396Y0131850D02*
X0128491Y0131850D01*
X0128491Y0141850D02*
X0134396Y0141850D01*
X0134396Y0151850D02*
X0128491Y0151850D01*
X0128491Y0161850D02*
X0134396Y0161850D01*
X0134396Y0171850D02*
X0128491Y0171850D01*
X0129121Y0199094D02*
X0135026Y0199094D01*
X0135026Y0209094D02*
X0129121Y0209094D01*
X0129121Y0219094D02*
X0135026Y0219094D01*
X0174003Y0219094D02*
X0179908Y0219094D01*
X0179908Y0209094D02*
X0174003Y0209094D01*
X0174003Y0199094D02*
X0179908Y0199094D01*
D11*
X0162093Y0184204D02*
X0162093Y0180835D01*
X0157172Y0180835D02*
X0157172Y0184204D01*
X0141435Y0183012D02*
X0138066Y0183012D01*
X0138066Y0187933D02*
X0141435Y0187933D01*
X0128049Y0187933D02*
X0124681Y0187933D01*
X0124681Y0183012D02*
X0128049Y0183012D01*
D12*
X0214570Y0115449D03*
X0216538Y0130213D03*
X0215932Y0136457D03*
X0218885Y0140394D03*
X0221459Y0144976D03*
X0214948Y0150236D03*
X0211995Y0154173D03*
X0211995Y0159094D03*
X0200790Y0160724D03*
X0188373Y0166969D03*
X0188073Y0173165D03*
X0176656Y0181433D03*
X0170656Y0176811D03*
X0184727Y0159780D03*
X0190341Y0151220D03*
X0173310Y0150331D03*
X0165932Y0149252D03*
X0152940Y0145315D03*
X0147034Y0145315D03*
X0149790Y0131535D03*
X0180790Y0133402D03*
X0190341Y0133504D03*
X0203743Y0132181D03*
X0213963Y0170906D03*
M02*
